<svg version="1.1" viewBox="0.0 0.0 960.0 540.0" fill="none" stroke="none" stroke-linecap="square" stroke-miterlimit="10" xmlns:xlink="http://www.w3.org/1999/xlink" xmlns="http://www.w3.org/2000/svg"><clipPath id="g8ed9875dd8_0_123.0"><path d="m0 0l960.0 0l0 540.0l-960.0 0l0 -540.0z" clip-rule="nonzero"/></clipPath><g clip-path="url(#g8ed9875dd8_0_123.0)"><path fill="#ffffff" d="m0 0l960.0 0l0 540.0l-960.0 0z" fill-rule="evenodd"/><path fill="#000000" fill-opacity="0.0" d="m350.0958 135.72705l552.94495 0l0 226.64566l-552.94495 0z" fill-rule="evenodd"/><path fill="#ff8900" d="m374.25204 188.91238q-1.625 0 -3.46875 -0.796875q-1.84375 -0.796875 -3.375 -2.28125l-0.140625 0l-0.421875 2.515625l-3.640625 0l0 -33.078125l4.609375 0l0 8.765625l-0.1875 4.203125l0.140625 0q1.5 -1.5 3.40625 -2.375q1.921875 -0.890625 3.875 -0.890625q2.25 0 4.015625 0.828125q1.765625 0.8125 2.953125 2.328125q1.203125 1.515625 1.828125 3.65625q0.625 2.140625 0.625 4.8125q0 2.9375 -0.84375 5.21875q-0.828125 2.28125 -2.25 3.84375q-1.421875 1.5625 -3.265625 2.40625q-1.84375 0.84375 -3.859375 0.84375zm-0.875 -3.828125q2.703125 0 4.515625 -2.171875q1.828125 -2.171875 1.828125 -6.265625q0 -3.59375 -1.40625 -5.6875q-1.390625 -2.109375 -4.46875 -2.109375q-1.40625 0 -2.953125 0.71875q-1.53125 0.71875 -3.078125 2.359375l0 10.78125q1.453125 1.296875 2.9375 1.84375q1.5 0.53125 2.625 0.53125zm24.915558 3.828125q-4.0625 0 -5.9375 -2.359375q-1.859375 -2.359375 -1.859375 -6.875l0 -14.140625l4.625 0l0 13.53125q0 3.03125 1.0625 4.453125q1.078125 1.421875 3.6875 1.421875q1.78125 0 3.25 -0.859375q1.46875 -0.859375 3.140625 -2.921875l0 -15.625l4.625 0l0 22.8125l-3.78125 0l-0.375 -3.78125l-0.1875 0q-1.671875 1.96875 -3.65625 3.15625q-1.984375 1.1875 -4.59375 1.1875zm35.087433 0q-2.53125 0 -4.28125 -0.703125q-1.75 -0.703125 -2.796875 -1.953125q-1.046875 -1.265625 -1.515625 -3.015625q-0.46875 -1.75 -0.46875 -3.890625l0 -10.078125l-6.25 0l0 -3.5l6.4375 -0.234375l0.609375 -7.234375l3.828125 0l0 7.234375l10.78125 0l0 3.734375l-10.78125 0l0 10.078125q0 2.9375 1.1875 4.390625q1.1875 1.4375 4.3125 1.4375q1.5 0 2.75 -0.25q1.265625 -0.265625 2.484375 -0.734375l0.921875 3.40625q-1.53125 0.515625 -3.265625 0.90625q-1.71875 0.40625 -3.953125 0.40625zm27.993683 0q-2.53125 0 -4.28125 -0.703125q-1.75 -0.703125 -2.796875 -1.953125q-1.046875 -1.265625 -1.515625 -3.015625q-0.46875 -1.75 -0.46875 -3.890625l0 -10.078125l-6.25 0l0 -3.5l6.4375 -0.234375l0.609375 -7.234375l3.828125 0l0 7.234375l10.78125 0l0 3.734375l-10.78125 0l0 10.078125q0 2.9375 1.1875 4.390625q1.1875 1.4375 4.3125 1.4375q1.5 0 2.75 -0.25q1.265625 -0.265625 2.484375 -0.734375l0.921875 3.40625q-1.53125 0.515625 -3.265625 0.90625q-1.71875 0.40625 -3.953125 0.40625zm23.696808 0q-2.25 0 -4.296875 -0.796875q-2.046875 -0.796875 -3.640625 -2.328125q-1.578125 -1.546875 -2.515625 -3.75q-0.9375 -2.21875 -0.9375 -5.078125q0 -2.84375 0.9375 -5.078125q0.9375 -2.234375 2.515625 -3.765625q1.59375 -1.546875 3.640625 -2.34375q2.046875 -0.796875 4.296875 -0.796875q2.234375 0 4.28125 0.796875q2.0625 0.796875 3.640625 2.34375q1.59375 1.53125 2.515625 3.765625q0.9375 2.234375 0.9375 5.078125q0 2.859375 -0.9375 5.078125q-0.921875 2.203125 -2.515625 3.75q-1.578125 1.53125 -3.640625 2.328125q-2.046875 0.796875 -4.28125 0.796875zm0 -3.78125q3.078125 0 4.84375 -2.234375q1.78125 -2.25 1.78125 -5.9375q0 -3.671875 -1.78125 -5.90625q-1.765625 -2.25 -4.84375 -2.25q-3.078125 0 -4.859375 2.25q-1.765625 2.234375 -1.765625 5.90625q0 3.6875 1.765625 5.9375q1.78125 2.234375 4.859375 2.234375zm18.103058 3.21875l0 -22.8125l3.78125 0l0.375 3.6875l0.171875 0q1.734375 -1.78125 3.734375 -3.015625q2.015625 -1.234375 4.671875 -1.234375q4.015625 0 5.875 2.390625q1.875 2.375 1.875 6.84375l0 14.140625l-4.625 0l0 -13.53125q0 -2.984375 -1.078125 -4.40625q-1.0625 -1.421875 -3.6875 -1.421875q-1.8125 0 -3.265625 0.90625q-1.4375 0.90625 -3.21875 2.734375l0 15.71875l-4.609375 0z" fill-rule="nonzero"/><path fill="#21727b" d="m575.34845 195.44363q-2.1875 0 -3.828125 -0.3125q-1.625 -0.296875 -2.703125 -1.03125q-1.078125 -0.71875 -1.59375 -1.953125q-0.515625 -1.234375 -0.515625 -3.046875q0 -1.265625 0.0625 -2.328125q0.078125 -1.078125 0.140625 -2.109375q0.078125 -1.03125 0.140625 -2.078125q0.078125 -1.046875 0.078125 -2.21875q0 -0.640625 -0.28125 -1.296875q-0.265625 -0.65625 -1.015625 -1.140625q-0.75 -0.5 -2.0625 -0.828125q-1.296875 -0.328125 -3.3125 -0.328125l0 -2.796875q2.015625 0 3.3125 -0.3125q1.3125 -0.328125 2.0625 -0.8125q0.75 -0.5 1.015625 -1.15625q0.28125 -0.65625 0.28125 -1.3125q0 -2.234375 -0.21875 -4.265625q-0.203125 -2.03125 -0.203125 -4.453125q0 -1.8125 0.515625 -3.046875q0.515625 -1.25 1.59375 -1.96875q1.078125 -0.71875 2.703125 -1.015625q1.640625 -0.3125 3.828125 -0.3125l3.03125 0l0 2.5625l-2.28125 0q-1.6875 0 -2.765625 0.21875q-1.0625 0.203125 -1.671875 0.703125q-0.609375 0.484375 -0.84375 1.234375q-0.234375 0.734375 -0.234375 1.859375q0 1.953125 0.140625 4.015625q0.140625 2.046875 0.140625 4.1875q0 2.390625 -0.953125 3.578125q-0.953125 1.1875 -3.421875 1.609375l0 0.1875q2.46875 0.421875 3.421875 1.609375q0.953125 1.1875 0.953125 3.5625q0 2.34375 -0.140625 4.234375q-0.140625 1.875 -0.140625 3.984375q0 1.125 0.234375 1.859375q0.234375 0.75 0.84375 1.234375q0.609375 0.5 1.671875 0.703125q1.078125 0.21875 2.765625 0.21875l2.28125 0l0 2.5625l-3.03125 0z" fill-rule="nonzero"/><path fill="#41ceda" d="m423.18954 269.24573q-2.65625 0 -4.96875 -0.796875q-2.3125 -0.796875 -4.0 -2.328125q-1.671875 -1.546875 -2.625 -3.75q-0.953125 -2.21875 -0.953125 -5.078125q0 -2.8437653 1.015625 -5.0781403q1.03125 -2.234375 2.796875 -3.765625q1.78125 -1.546875 4.09375 -2.34375q2.3125 -0.796875 4.921875 -0.796875q2.796875 0 4.890625 0.953125q2.109375 0.953125 3.515625 2.3125l-2.25 2.9375q-1.34375 -1.125 -2.796875 -1.75q-1.4375 -0.625 -3.125 -0.625q-1.8125 0 -3.359375 0.59375q-1.546875 0.578125 -2.640625 1.65625q-1.09375 1.0625 -1.703125 2.578125q-0.59375 1.515625 -0.59375 3.3281403q0 1.828125 0.578125 3.34375q0.578125 1.515625 1.671875 2.59375q1.09375 1.0625 2.59375 1.65625q1.5 0.578125 3.3125 0.578125q2.09375 0 3.75 -0.796875q1.65625 -0.796875 3.015625 -1.90625l2.0 2.984375q-1.953125 1.671875 -4.296875 2.59375q-2.328125 0.90625 -4.84375 0.90625zm25.899933 0q-2.25 0 -4.296875 -0.796875q-2.046875 -0.796875 -3.640625 -2.328125q-1.578125 -1.546875 -2.515625 -3.75q-0.9375 -2.21875 -0.9375 -5.078125q0 -2.8437653 0.9375 -5.0781403q0.9375 -2.234375 2.515625 -3.765625q1.59375 -1.546875 3.640625 -2.34375q2.046875 -0.796875 4.296875 -0.796875q2.234375 0 4.28125 0.796875q2.0625 0.796875 3.640625 2.34375q1.59375 1.53125 2.515625 3.765625q0.9375 2.234375 0.9375 5.0781403q0 2.859375 -0.9375 5.078125q-0.921875 2.203125 -2.515625 3.75q-1.578125 1.53125 -3.640625 2.328125q-2.046875 0.796875 -4.28125 0.796875zm0 -3.78125q3.078125 0 4.84375 -2.234375q1.78125 -2.25 1.78125 -5.9375q0 -3.6718903 -1.78125 -5.9062653q-1.765625 -2.25 -4.84375 -2.25q-3.078125 0 -4.859375 2.25q-1.765625 2.234375 -1.765625 5.9062653q0 3.6875 1.765625 5.9375q1.78125 2.234375 4.859375 2.234375zm32.837433 3.78125q-3.828125 0 -5.828125 -2.1875q-2.0 -2.203125 -2.0 -6.359375l0 -21.406265l-7.84375 0l0 -3.6875l12.453125 0l0 25.375015q0 2.390625 1.1875 3.4375q1.203125 1.046875 3.109375 1.046875q1.765625 0 4.109375 -0.984375l1.109375 3.453125q-1.625 0.65625 -3.0 0.984375q-1.375 0.328125 -3.296875 0.328125zm23.149933 0q-2.25 0 -4.296875 -0.796875q-2.046875 -0.796875 -3.640625 -2.328125q-1.578125 -1.546875 -2.515625 -3.75q-0.9375 -2.21875 -0.9375 -5.078125q0 -2.8437653 0.9375 -5.0781403q0.9375 -2.234375 2.515625 -3.765625q1.59375 -1.546875 3.640625 -2.34375q2.046875 -0.796875 4.296875 -0.796875q2.234375 0 4.28125 0.796875q2.0625 0.796875 3.640625 2.34375q1.59375 1.53125 2.515625 3.765625q0.9375 2.234375 0.9375 5.0781403q0 2.859375 -0.9375 5.078125q-0.921875 2.203125 -2.515625 3.75q-1.578125 1.53125 -3.640625 2.328125q-2.046875 0.796875 -4.28125 0.796875zm0 -3.78125q3.078125 0 4.84375 -2.234375q1.78125 -2.25 1.78125 -5.9375q0 -3.6718903 -1.78125 -5.9062653q-1.765625 -2.25 -4.84375 -2.25q-3.078125 0 -4.859375 2.25q-1.765625 2.234375 -1.765625 5.9062653q0 3.6875 1.765625 5.9375q1.78125 2.234375 4.859375 2.234375zm20.431213 3.21875l0 -22.812515l3.828125 0l0.375 5.3125l0.140625 0q1.765625 -2.796875 4.3125 -4.328125q2.546875 -1.546875 5.625 -1.546875q1.34375 0 2.375 0.21875q1.03125 0.203125 2.09375 0.71875l-1.015625 3.96875q-1.171875 -0.375 -2.015625 -0.5625q-0.828125 -0.1875 -2.140625 -0.1875q-2.46875 0 -4.765625 1.40625q-2.28125 1.390625 -4.1875 4.84375l0 12.968765l-4.625 0z" fill-rule="nonzero"/><path fill="#2f2d2c" d="m561.0642 253.24571q-1.78125 0 -3.0 -1.1875q-1.203125 -1.1875 -1.203125 -3.15625q0 -1.90625 1.203125 -3.125q1.21875 -1.21875 3.0 -1.21875q1.765625 0 2.984375 1.21875q1.21875 1.21875 1.21875 3.125q0 1.96875 -1.21875 3.15625q-1.21875 1.1875 -2.984375 1.1875zm0 16.000015q-1.78125 0 -3.0 -1.1875q-1.203125 -1.1875 -1.203125 -3.15625q0 -1.90625 1.203125 -3.125q1.21875 -1.21875 3.0 -1.21875q1.765625 0 2.984375 1.21875q1.21875 1.21875 1.21875 3.125q0 1.96875 -1.21875 3.15625q-1.21875 1.1875 -2.984375 1.1875z" fill-rule="nonzero"/><path fill="#153570" d="m618.2078 269.24573q-1.625 0 -3.46875 -0.796875q-1.84375 -0.796875 -3.375 -2.28125l-0.140625 0l-0.421875 2.515625l-3.640625 0l0 -33.07814l4.609375 0l0 8.765625l-0.1875 4.203125l0.140625 0q1.5 -1.5 3.40625 -2.375q1.921875 -0.890625 3.875 -0.890625q2.25 0 4.015625 0.828125q1.765625 0.8125 2.953125 2.328125q1.203125 1.515625 1.828125 3.65625q0.625 2.140625 0.625 4.8125153q0 2.9375 -0.84375 5.21875q-0.828125 2.28125 -2.25 3.84375q-1.421875 1.5625 -3.265625 2.40625q-1.84375 0.84375 -3.859375 0.84375zm-0.875 -3.828125q2.703125 0 4.515625 -2.171875q1.828125 -2.171875 1.828125 -6.265625q0 -3.5937653 -1.40625 -5.6875153q-1.390625 -2.109375 -4.46875 -2.109375q-1.40625 0 -2.953125 0.71875q-1.53125 0.71875 -3.078125 2.359375l0 10.781265q1.453125 1.296875 2.9375 1.84375q1.5 0.53125 2.625 0.53125zm32.556213 3.828125q-3.828125 0 -5.828125 -2.1875q-2.0 -2.203125 -2.0 -6.359375l0 -21.406265l-7.84375 0l0 -3.6875l12.453125 0l0 25.375015q0 2.390625 1.1875 3.4375q1.203125 1.046875 3.109375 1.046875q1.765625 0 4.109375 -0.984375l1.109375 3.453125q-1.625 0.65625 -3.0 0.984375q-1.375 0.328125 -3.296875 0.328125zm20.353027 0q-4.0625 0 -5.9375 -2.359375q-1.859375 -2.359375 -1.859375 -6.875l0 -14.14064l4.625 0l0 13.531265q0 3.03125 1.0625 4.453125q1.078125 1.421875 3.6875 1.421875q1.78125 0 3.25 -0.859375q1.46875 -0.859375 3.140625 -2.921875l0 -15.625015l4.625 0l0 22.812515l-3.78125 0l-0.375 -3.78125l-0.1875 0q-1.671875 1.96875 -3.65625 3.15625q-1.984375 1.1875 -4.59375 1.1875zm32.181213 0q-2.609375 0 -4.84375 -0.796875q-2.234375 -0.796875 -3.921875 -2.328125q-1.671875 -1.546875 -2.640625 -3.78125q-0.953125 -2.234375 -0.953125 -5.09375q0 -2.7968903 0.984375 -5.0000153q0.984375 -2.21875 2.59375 -3.75q1.609375 -1.546875 3.703125 -2.359375q2.09375 -0.828125 4.390625 -0.828125q2.515625 0 4.46875 0.796875q1.96875 0.796875 3.296875 2.21875q1.328125 1.421875 2.015625 3.40625q0.703125 1.96875 0.703125 4.3593903q0 0.75 -0.046875 1.40625q-0.046875 0.640625 -0.140625 1.109375l-17.34375 0q0.375 3.546875 2.671875 5.28125q2.3125 1.71875 5.671875 1.71875q1.921875 0 3.5 -0.53125q1.59375 -0.546875 3.125 -1.46875l1.640625 2.9375q-1.78125 1.15625 -4.0 1.9375q-2.203125 0.765625 -4.875 0.765625zm-0.546875 -20.29689q-1.3125 0 -2.484375 0.40625q-1.15625 0.390625 -2.09375 1.1875q-0.9375 0.78125 -1.59375 1.953125q-0.640625 1.171875 -0.921875 2.703125l13.296875 0q-0.234375 -3.125 -1.890625 -4.6875q-1.65625 -1.5625 -4.3125 -1.5625z" fill-rule="nonzero"/><path fill="#298993" d="m729.0263 253.24571q-1.78125 0 -3.0 -1.1875q-1.203125 -1.1875 -1.203125 -3.15625q0 -1.90625 1.203125 -3.125q1.21875 -1.21875 3.0 -1.21875q1.765625 0 2.984375 1.21875q1.21875 1.21875 1.21875 3.125q0 1.96875 -1.21875 3.15625q-1.21875 1.1875 -2.984375 1.1875zm-3.734375 25.42189l-1.265625 -2.84375q2.9375 -1.21875 4.390625 -3.015625q1.453125 -1.796875 1.546875 -4.40625q-0.1875 0.046875 -0.375 0.046875q-0.1875 0 -0.375 0q-1.640625 0 -2.828125 -0.953125q-1.1875 -0.953125 -1.1875 -2.875q0 -1.859375 1.203125 -2.859375q1.21875 -1.015625 2.90625 -1.015625q2.234375 0 3.390625 1.734375q1.171875 1.71875 1.171875 4.75q0 4.25 -2.234375 7.109375q-2.234375 2.875 -6.34375 4.328125z" fill-rule="nonzero"/><path fill="#21727b" d="m363.76767 355.77698l0 -2.5625l2.28125 0q1.671875 0 2.765625 -0.21875q1.109375 -0.203125 1.703125 -0.703125q0.609375 -0.484375 0.84375 -1.234375q0.234375 -0.734375 0.234375 -1.859375q0 -2.109375 -0.140625 -3.984375q-0.140625 -1.890625 -0.140625 -4.234375q0 -2.375 0.9375 -3.5625q0.9375 -1.1875 3.40625 -1.609375l0 -0.1875q-2.46875 -0.421875 -3.40625 -1.609375q-0.9375 -1.1875 -0.9375 -3.578125q0 -2.140625 0.140625 -4.1875q0.140625 -2.0625 0.140625 -4.015625q0 -1.125 -0.234375 -1.859375q-0.234375 -0.75 -0.84375 -1.234375q-0.59375 -0.5 -1.703125 -0.703125q-1.09375 -0.21875 -2.765625 -0.21875l-2.28125 0l0 -2.5625l3.03125 0q2.234375 0 3.84375 0.3125q1.609375 0.296875 2.671875 1.015625q1.078125 0.71875 1.59375 1.96875q0.515625 1.234375 0.515625 3.046875q0 2.421875 -0.21875 4.453125q-0.203125 2.03125 -0.203125 4.265625q0 0.65625 0.28125 1.3125q0.28125 0.65625 1.03125 1.15625q0.75 0.484375 2.03125 0.8125q1.28125 0.3125 3.328125 0.3125l0 2.796875q-2.046875 0 -3.328125 0.328125q-1.28125 0.328125 -2.03125 0.828125q-0.75 0.484375 -1.03125 1.140625q-0.28125 0.65625 -0.28125 1.296875q0 1.171875 0.0625 2.21875q0.078125 1.046875 0.140625 2.078125q0.078125 1.03125 0.140625 2.109375q0.078125 1.0625 0.078125 2.328125q0 1.8125 -0.515625 3.046875q-0.515625 1.234375 -1.59375 1.953125q-1.0625 0.734375 -2.671875 1.03125q-1.609375 0.3125 -3.84375 0.3125l-3.03125 0z" fill-rule="nonzero"/><path fill="#000000" fill-opacity="0.0" d="m327.0478 117.222664l89.98425 23.590553" fill-rule="evenodd"/><path stroke="#ff8900" stroke-width="3.0" stroke-linejoin="round" stroke-linecap="butt" d="m327.0478 117.222664l72.57266 19.025871" fill-rule="evenodd"/><path fill="#ff8900" stroke="#ff8900" stroke-width="3.0" stroke-linecap="butt" d="m398.36383 141.04175l14.425842 -1.3407135l-11.912628 -8.245712z" fill-rule="evenodd"/><path fill="#000000" fill-opacity="0.0" d="m482.62466 361.12598l5.826782 -73.07086" fill-rule="evenodd"/><path stroke="#41ceda" stroke-width="3.0" stroke-linejoin="round" stroke-linecap="butt" d="m482.62466 361.12598l4.3959656 -55.127808" fill-rule="evenodd"/><path fill="#41ceda" stroke="#41ceda" stroke-width="3.0" stroke-linecap="butt" d="m491.96014 306.39206l-3.8573303 -13.965118l-6.021698 13.177338z" fill-rule="evenodd"/><path fill="#000000" fill-opacity="0.0" d="m771.7507 331.87402l-77.19684 -43.811035" fill-rule="evenodd"/><path stroke="#153570" stroke-width="3.0" stroke-linejoin="round" stroke-linecap="butt" d="m771.7507 331.87402l-61.542236 -34.926666" fill-rule="evenodd"/><path fill="#153570" stroke="#153570" stroke-width="3.0" stroke-linecap="butt" d="m712.65424 292.63782l-14.286194 -2.4101562l9.394653 11.029266z" fill-rule="evenodd"/><path fill="#000000" fill-opacity="0.0" d="m107.32937 117.2231l198.33069 0" fill-rule="evenodd"/><path stroke="#ff8900" stroke-width="3.0" stroke-linejoin="round" stroke-linecap="butt" d="m107.32937 117.2231l198.33069 0" fill-rule="evenodd"/><path fill="#000000" fill-opacity="0.0" d="m350.09723 415.18463l241.92126 0" fill-rule="evenodd"/><path stroke="#41ceda" stroke-width="3.0" stroke-linejoin="round" stroke-linecap="butt" d="m350.09723 415.18463l241.92126 0" fill-rule="evenodd"/><path fill="#000000" fill-opacity="0.0" d="m678.3753 385.93176l255.05511 0" fill-rule="evenodd"/><path stroke="#153570" stroke-width="3.0" stroke-linejoin="round" stroke-linecap="butt" d="m678.3753 385.93176l255.05511 0" fill-rule="evenodd"/></g></svg>