<svg version="1.1" viewBox="0.0 0.0 960.0 540.0" fill="none" stroke="none" stroke-linecap="square" stroke-miterlimit="10" xmlns:xlink="http://www.w3.org/1999/xlink" xmlns="http://www.w3.org/2000/svg"><clipPath id="g8ed9875dd8_0_62.0"><path d="m0 0l960.0 0l0 540.0l-960.0 0l0 -540.0z" clip-rule="nonzero"/></clipPath><g clip-path="url(#g8ed9875dd8_0_62.0)"><path fill="#ffffff" d="m0 0l960.0 0l0 540.0l-960.0 0z" fill-rule="evenodd"/><path fill="#000000" fill-opacity="0.0" d="m127.05162 411.38333l0 -148.15747l203.52757 0l0 148.15747z" fill-rule="evenodd"/><path fill="#000000" d="m235.22163 333.303q7.203125 0 10.9375 2.0q3.71875 2.0 5.59375 6.53125q1.859375 -4.53125 5.5937653 -6.53125q3.734375 -2.0 10.9375 -2.0l81.0625 0q22.140625 0 22.140625 -20.796875l0 -8.53125l5.0625 0l0 6.671875q0 27.984375 -27.203125 27.984375l-81.0625 0q-14.125015 0 -14.125015 12.0l0 9.34375l-5.078125 0l0 -9.34375q0 -12.0 -13.859375 -12.0l-81.0625 0q-27.203125 0 -27.203125 -27.984375l0 -6.671875l5.0625 0l0 8.53125q0 20.796875 22.140625 20.796875l81.0625 0z" fill-rule="nonzero"/><path fill="#000000" fill-opacity="0.0" d="m43.43627 157.03398l907.1496 0l0 71.55905l-907.1496 0z" fill-rule="evenodd"/><path fill="#153570" d="m65.5769 190.35274l-9.9375 -6.75l0 -1.640625l9.9375 -6.75l0 2.109375l-8.015625 5.40625l0 0.109375l8.015625 5.40625l0 2.109375zm9.415573 1.59375q-0.90625 0 -1.71875 -0.25q-0.796875 -0.25 -1.390625 -0.71875q-0.59375 -0.46875 -0.953125 -1.140625q-0.34375 -0.6875 -0.34375 -1.5625q0 -1.09375 0.515625 -1.90625q0.53125 -0.8125 1.65625 -1.390625q1.140625 -0.59375 2.921875 -0.96875q1.78125 -0.375 4.296875 -0.578125q-0.03125 -0.671875 -0.21875 -1.25q-0.1875 -0.59375 -0.59375 -1.03125q-0.390625 -0.4375 -1.046875 -0.703125q-0.65625 -0.28125 -1.578125 -0.28125q-1.28125 0 -2.453125 0.5q-1.171875 0.5 -2.078125 1.046875l-0.859375 -1.484375q0.484375 -0.328125 1.125 -0.65625q0.65625 -0.328125 1.390625 -0.59375q0.734375 -0.265625 1.5625 -0.4375q0.828125 -0.1875 1.6875 -0.1875q2.65625 0 3.953125 1.453125q1.296875 1.453125 1.296875 3.890625l0 7.9375l-1.796875 0l-0.1875 -1.765625l-0.078125 0q-1.09375 0.859375 -2.421875 1.46875q-1.3125 0.609375 -2.6875 0.609375zm0.578125 -1.75q1.125 0 2.203125 -0.484375q1.078125 -0.5 2.203125 -1.4375l0 -3.40625q-2.078125 0.15625 -3.484375 0.453125q-1.40625 0.28125 -2.25 0.703125q-0.828125 0.40625 -1.171875 0.9375q-0.34375 0.515625 -0.34375 1.15625q0 0.5625 0.234375 0.953125q0.234375 0.375 0.625 0.640625q0.390625 0.25 0.90625 0.375q0.515625 0.109375 1.078125 0.109375z" fill-rule="nonzero"/><path fill="#41ceda" d="m102.90174 191.63399l0 -18.984375l2.1875 0l0 5.171875l-0.140625 3.0625l0.078125 0q1.015625 -1.078125 2.171875 -1.796875q1.15625 -0.734375 2.6875 -0.734375q2.3125 0 3.390625 1.328125q1.078125 1.3125 1.078125 3.90625l0 8.046875l-2.1875 0l0 -7.75q0 -1.84375 -0.6875 -2.734375q-0.6875 -0.890625 -2.296875 -0.890625q-0.578125 0 -1.078125 0.140625q-0.484375 0.140625 -0.96875 0.4375q-0.484375 0.296875 -1.0 0.734375q-0.5 0.4375 -1.046875 1.03125l0 9.03125l-2.1875 0zm17.399948 0l0 -12.953125l1.8125 0l0.1875 3.0625l0.078125 0q1.015625 -1.578125 2.484375 -2.484375q1.484375 -0.90625 3.2968674 -0.90625q0.71875 0 1.328125 0.125q0.625 0.125 1.234375 0.421875l-0.5 1.890625q-0.703125 -0.25 -1.171875 -0.34375q-0.453125 -0.109375 -1.2343674 -0.109375q-1.46875 0 -2.8125 0.84375q-1.34375 0.828125 -2.515625 2.859375l0 7.59375l-2.1875 0zm20.89994 0.3125q-1.46875 0 -2.734375 -0.453125q-1.265625 -0.453125 -2.21875 -1.328125q-0.9375 -0.875 -1.484375 -2.140625q-0.546875 -1.265625 -0.546875 -2.890625q0 -1.578125 0.546875 -2.828125q0.546875 -1.25 1.46875 -2.125q0.921875 -0.890625 2.109375 -1.359375q1.1875 -0.46875 2.484375 -0.46875q1.390625 0 2.484375 0.453125q1.109375 0.4375 1.875 1.234375q0.765625 0.796875 1.15625 1.921875q0.40625 1.109375 0.40625 2.46875q0 0.375 -0.03125 0.734375q-0.03125 0.34375 -0.078125 0.609375l-10.203125 0q0.203125 2.203125 1.59375 3.3125q1.40625 1.109375 3.4375 1.109375q1.171875 0 2.109375 -0.328125q0.953125 -0.34375 1.84375 -0.90625l0.796875 1.453125q-0.96875 0.625 -2.203125 1.078125q-1.234375 0.453125 -2.8125 0.453125zm-0.3125 -11.859375q-0.8125 0 -1.546875 0.265625q-0.734375 0.265625 -1.328125 0.765625q-0.578125 0.5 -0.984375 1.25q-0.390625 0.734375 -0.546875 1.6875l8.265625 0q-0.140625 -1.984375 -1.171875 -2.96875q-1.015625 -1.0 -2.6875 -1.0zm13.962448 11.546875l0 -11.171875l-3.703125 0l0 -1.65625l3.703125 -0.125l0 -1.09375q0 -2.375 1.265625 -3.8125q1.265625 -1.4375 3.953125 -1.4375q1.921875 0 3.734375 0.75l-0.5 1.640625q-0.8125 -0.359375 -1.5 -0.484375q-0.671875 -0.125 -1.515625 -0.125q-1.765625 0 -2.53125 0.890625q-0.75 0.890625 -0.75 2.5l0 1.171875l5.4375 0l0 1.78125l-5.4375 0l0 11.171875l-2.15625 0z" fill-rule="nonzero"/><path fill="#2f2d2c" d="m166.65778 180.66524l0 -1.65625l11.46875 0l0 1.65625l-11.46875 0zm0 6.0l0 -1.65625l11.46875 0l0 1.65625l-11.46875 0z" fill-rule="nonzero"/><path fill="#ff8900" d="m184.63585 182.24336l-0.671875 -5.984375l-0.046875 -2.9375l2.9375 0l-0.0625 2.9375l-0.65625 5.984375l-1.5 0zm6.0 0l-0.671875 -5.984375l-0.046875 -2.9375l2.9375 0l-0.0625 2.9375l-0.65625 5.984375l-1.5 0zm8.228073 9.390625l0 -18.984375l2.1875 0l0 5.171875l-0.140625 3.0625l0.078125 0q1.015625 -1.078125 2.171875 -1.796875q1.15625 -0.734375 2.6875 -0.734375q2.3125 0 3.390625 1.328125q1.078125 1.3125 1.078125 3.90625l0 8.046875l-2.1875 0l0 -7.75q0 -1.84375 -0.6875 -2.734375q-0.6875 -0.890625 -2.296875 -0.890625q-0.578125 0 -1.078125 0.140625q-0.484375 0.140625 -0.96875 0.4375q-0.484375 0.296875 -1.0 0.734375q-0.5 0.4375 -1.046875 1.03125l0 9.03125l-2.1875 0zm24.009323 0.3125q-1.40625 0 -2.375 -0.375q-0.953125 -0.390625 -1.546875 -1.09375q-0.578125 -0.703125 -0.84375 -1.6875q-0.25 -1.0 -0.25 -2.1875l0 -6.140625l-3.640625 0l0 -1.65625l3.734375 -0.125l0.28125 -4.15625l1.8125 0l0 4.15625l6.375 0l0 1.78125l-6.375 0l0 6.15625q0 0.890625 0.15625 1.546875q0.171875 0.640625 0.546875 1.09375q0.375 0.453125 1.0 0.6875q0.640625 0.21875 1.578125 0.21875q0.9375 0 1.671875 -0.15625q0.75 -0.15625 1.453125 -0.421875l0.46875 1.59375q-0.875 0.3125 -1.84375 0.53125q-0.96875 0.234375 -2.203125 0.234375zm15.993698 0q-1.40625 0 -2.375 -0.375q-0.953125 -0.390625 -1.546875 -1.09375q-0.578125 -0.703125 -0.84375 -1.6875q-0.25 -1.0 -0.25 -2.1875l0 -6.140625l-3.640625 0l0 -1.65625l3.734375 -0.125l0.28125 -4.15625l1.8125 0l0 4.15625l6.375 0l0 1.78125l-6.375 0l0 6.15625q0 0.890625 0.15625 1.546875q0.171875 0.640625 0.546875 1.09375q0.375 0.453125 1.0 0.6875q0.640625 0.21875 1.578125 0.21875q0.9375 0 1.671875 -0.15625q0.75 -0.15625 1.453125 -0.421875l0.46875 1.59375q-0.875 0.3125 -1.84375 0.53125q-0.96875 0.234375 -2.203125 0.234375zm7.978073 5.15625l0 -18.421875l1.8125 0l0.1875 1.65625l0.078125 0q0.90625 -0.859375 2.09375 -1.421875q1.1875 -0.5625 2.375 -0.5625q1.3125 0 2.3125 0.46875q1.0000153 0.46875 1.6718903 1.34375q0.6875 0.859375 1.03125 2.078125q0.34375 1.203125 0.34375 2.734375q0 1.640625 -0.484375 2.9375q-0.46875 1.296875 -1.28125 2.203125q-0.8125 0.90625 -1.8906403 1.375q-1.0625 0.453125 -2.234375 0.453125q-0.90625 0 -1.96875 -0.4375q-1.046875 -0.4375 -1.890625 -1.234375l-0.078125 0l0.109375 2.453125l0 4.375l-2.1875 0zm5.640625 -6.984375q1.765625 0 2.875 -1.359375q1.1250153 -1.359375 1.1250153 -3.78125q0 -1.078125 -0.21875 -1.953125q-0.203125 -0.875 -0.64064026 -1.5q-0.4375 -0.640625 -1.140625 -0.984375q-0.6875 -0.34375 -1.640625 -0.34375q-0.859375 0 -1.84375 0.46875q-0.96875 0.46875 -1.96875 1.484375l0 6.453125q0.921875 0.8125 1.859375 1.171875q0.9375 0.34375 1.59375 0.34375zm16.134323 1.828125q-1.921875 0 -3.546875 -0.59375q-1.625 -0.59375 -2.828125 -1.421875l1.015625 -1.4375q1.125 0.796875 2.46875 1.28125q1.34375 0.46875 3.15625 0.46875q1.65625 0 2.46875 -0.59375q0.8125 -0.59375 0.8125 -1.421875q0 -0.375 -0.140625 -0.6875q-0.125 -0.328125 -0.578125 -0.625q-0.4375 -0.296875 -1.234375 -0.5625q-0.796875 -0.265625 -2.109375 -0.53125q-2.53125 -0.53125 -3.796875 -1.421875q-1.265625 -0.890625 -1.265625 -2.359375q0 -0.78125 0.34375 -1.453125q0.359375 -0.6875 1.03125 -1.171875q0.6875 -0.5 1.6875 -0.78125q1.0 -0.28125 2.328125 -0.28125q1.484375 0 2.875 0.5q1.390625 0.5 2.34375 1.15625l-1.0625 1.421875q-0.90625 -0.625 -2.0 -0.984375q-1.09375 -0.375 -2.34375 -0.375q-1.65625 0 -2.328125 0.5625q-0.65625 0.546875 -0.65625 1.296875q0 0.859375 0.875 1.296875q0.875 0.4375 2.875 0.859375q1.640625 0.34375 2.671875 0.734375q1.046875 0.390625 1.640625 0.875q0.59375 0.46875 0.8125 1.0625q0.234375 0.578125 0.234375 1.328125q0 0.796875 -0.375 1.5q-0.359375 0.6875 -1.09375 1.21875q-0.734375 0.53125 -1.8125 0.828125q-1.078125 0.3125 -2.46875 0.3125zm15.728088 -10.0q-0.90625 0 -1.53125 -0.609375q-0.625 -0.609375 -0.625 -1.625q0 -1.015625 0.625 -1.640625q0.625 -0.625 1.53125 -0.625q0.90625 0 1.53125 0.625q0.625 0.625 0.625 1.640625q0 1.015625 -0.625 1.625q-0.625 0.609375 -1.53125 0.609375zm0 10.0q-0.90625 0 -1.53125 -0.609375q-0.625 -0.609375 -0.625 -1.625q0 -1.015625 0.625 -1.640625q0.625 -0.625 1.53125 -0.625q0.90625 0 1.53125 0.625q0.625 0.625 0.625 1.640625q0 1.015625 -0.625 1.625q-0.625 0.609375 -1.53125 0.609375zm10.634308 3.953125l8.734375 -23.1875l1.984375 0l-8.75 23.1875l-1.96875 0zm15.993713 0l8.734375 -23.1875l1.984375 0l-8.75 23.1875l-1.96875 0zm21.884338 -3.953125q-0.9375 0 -2.015625 -0.453125q-1.078125 -0.46875 -2.015625 -1.296875l-0.078125 0l-0.1875 1.4375l-1.75 0l0 -18.984375l2.1875 0l0 5.171875l-0.09375 2.515625l0.09375 0q0.875 -0.90625 2.03125 -1.4375q1.15625 -0.546875 2.3125 -0.546875q1.296875 0 2.3125 0.46875q1.015625 0.46875 1.6875 1.34375q0.6875 0.859375 1.03125 2.078125q0.34375 1.203125 0.34375 2.703125q0 1.65625 -0.484375 2.96875q-0.46875 1.296875 -1.28125 2.203125q-0.8125 0.90625 -1.890625 1.375q-1.0625 0.453125 -2.203125 0.453125zm-0.34375 -1.828125q0.84375 0 1.5625 -0.359375q0.71875 -0.359375 1.25 -1.015625q0.546875 -0.65625 0.828125 -1.609375q0.296875 -0.96875 0.296875 -2.15625q0 -1.078125 -0.21875 -1.953125q-0.203125 -0.875 -0.640625 -1.5q-0.4375 -0.640625 -1.140625 -0.984375q-0.6875 -0.34375 -1.640625 -0.34375q-0.859375 0 -1.84375 0.46875q-0.96875 0.46875 -1.96875 1.484375l0 6.453125q0.921875 0.8125 1.859375 1.171875q0.953125 0.34375 1.65625 0.34375zm16.228058 1.515625l0 -11.171875l-6.015625 0l0 -1.78125l8.203125 0l0 12.953125l-2.1875 0zm0.578125 -15.671875q-0.75 0 -1.265625 -0.46875q-0.5 -0.46875 -0.5 -1.234375q0 -0.78125 0.5 -1.234375q0.515625 -0.46875 1.265625 -0.46875q0.75 0 1.25 0.46875q0.5 0.453125 0.5 1.234375q0 0.765625 -0.5 1.234375q-0.5 0.46875 -1.25 0.46875zm17.493683 15.984375q-1.40625 0 -2.375 -0.375q-0.953125 -0.390625 -1.546875 -1.09375q-0.578125 -0.703125 -0.84375 -1.6875q-0.25 -1.0 -0.25 -2.1875l0 -6.140625l-3.640625 0l0 -1.65625l3.734375 -0.125l0.28125 -4.15625l1.8125 0l0 4.15625l6.375 0l0 1.78125l-6.375 0l0 6.15625q0 0.890625 0.15625 1.546875q0.171875 0.640625 0.546875 1.09375q0.375 0.453125 1.0 0.6875q0.640625 0.21875 1.578125 0.21875q0.9375 0 1.671875 -0.15625q0.75 -0.15625 1.453125 -0.421875l0.46875 1.59375q-0.875 0.3125 -1.84375 0.53125q-0.96875 0.234375 -2.203125 0.234375zm14.024963 0q-0.9375 0 -2.015625 -0.453125q-1.078125 -0.46875 -2.015625 -1.296875l-0.078125 0l-0.1875 1.4375l-1.75 0l0 -18.984375l2.1875 0l0 5.171875l-0.09375 2.515625l0.09375 0q0.875 -0.90625 2.03125 -1.4375q1.15625 -0.546875 2.3125 -0.546875q1.296875 0 2.3125 0.46875q1.015625 0.46875 1.6875 1.34375q0.6875 0.859375 1.03125 2.078125q0.34375 1.203125 0.34375 2.703125q0 1.65625 -0.484375 2.96875q-0.46875 1.296875 -1.28125 2.203125q-0.8125 0.90625 -1.890625 1.375q-1.0625 0.453125 -2.203125 0.453125zm-0.34375 -1.828125q0.84375 0 1.5625 -0.359375q0.71875 -0.359375 1.25 -1.015625q0.546875 -0.65625 0.828125 -1.609375q0.296875 -0.96875 0.296875 -2.15625q0 -1.078125 -0.21875 -1.953125q-0.203125 -0.875 -0.640625 -1.5q-0.4375 -0.640625 -1.140625 -0.984375q-0.6875 -0.34375 -1.640625 -0.34375q-0.859375 0 -1.84375 0.46875q-0.96875 0.46875 -1.96875 1.484375l0 6.453125q0.921875 0.8125 1.859375 1.171875q0.953125 0.34375 1.65625 0.34375zm11.290588 7.09375q-0.953125 0 -1.703125 -0.28125l0.453125 -1.71875q0.265625 0.078125 0.578125 0.125q0.3125 0.0625 0.59375 0.0625q1.359375 0 2.21875 -0.796875q0.859375 -0.78125 1.328125 -1.984375l0.40625 -0.953125l-6.046875 -12.984375l2.203125 0l3.171875 7.171875q0.375 0.84375 0.78125 1.84375q0.421875 0.984375 0.828125 1.90625l0.09375 0q0.359375 -0.921875 0.71875 -1.890625q0.359375 -0.984375 0.671875 -1.859375l2.828125 -7.171875l2.078125 0l-5.703125 14.015625q-0.375 0.96875 -0.859375 1.78125q-0.46875 0.828125 -1.140625 1.421875q-0.671875 0.609375 -1.546875 0.953125q-0.859375 0.359375 -1.953125 0.359375zm21.040558 -5.265625q-0.9375 0 -2.015625 -0.453125q-1.078125 -0.46875 -2.015625 -1.296875l-0.078125 0l-0.1875 1.4375l-1.75 0l0 -18.984375l2.1875 0l0 5.171875l-0.09375 2.515625l0.09375 0q0.875 -0.90625 2.03125 -1.4375q1.15625 -0.546875 2.3125 -0.546875q1.296875 0 2.3125 0.46875q1.015625 0.46875 1.6875 1.34375q0.6875 0.859375 1.03125 2.078125q0.34375 1.203125 0.34375 2.703125q0 1.65625 -0.484375 2.96875q-0.46875 1.296875 -1.28125 2.203125q-0.8125 0.90625 -1.890625 1.375q-1.0625 0.453125 -2.203125 0.453125zm-0.34375 -1.828125q0.84375 0 1.5625 -0.359375q0.71875 -0.359375 1.25 -1.015625q0.546875 -0.65625 0.828125 -1.609375q0.296875 -0.96875 0.296875 -2.15625q0 -1.078125 -0.21875 -1.953125q-0.203125 -0.875 -0.640625 -1.5q-0.4375 -0.640625 -1.140625 -0.984375q-0.6875 -0.34375 -1.640625 -0.34375q-0.859375 0 -1.84375 0.46875q-0.96875 0.46875 -1.96875 1.484375l0 6.453125q0.921875 0.8125 1.859375 1.171875q0.953125 0.34375 1.65625 0.34375zm16.228058 1.515625l0 -11.171875l-6.015625 0l0 -1.78125l8.203125 0l0 12.953125l-2.1875 0zm0.578125 -15.671875q-0.75 0 -1.265625 -0.46875q-0.5 -0.46875 -0.5 -1.234375q0 -0.78125 0.5 -1.234375q0.515625 -0.46875 1.265625 -0.46875q0.75 0 1.25 0.46875q0.5 0.453125 0.5 1.234375q0 0.765625 -0.5 1.234375q-0.5 0.46875 -1.25 0.46875zm17.493713 15.984375q-1.40625 0 -2.375 -0.375q-0.953125 -0.390625 -1.546875 -1.09375q-0.578125 -0.703125 -0.84375 -1.6875q-0.25 -1.0 -0.25 -2.1875l0 -6.140625l-3.640625 0l0 -1.65625l3.734375 -0.125l0.28125 -4.15625l1.8125 0l0 4.15625l6.375 0l0 1.78125l-6.375 0l0 6.15625q0 0.890625 0.15625 1.546875q0.171875 0.640625 0.546875 1.09375q0.375 0.453125 1.0 0.6875q0.640625 0.21875 1.578125 0.21875q0.9375 0 1.671875 -0.15625q0.75 -0.15625 1.453125 -0.421875l0.46875 1.59375q-0.875 0.3125 -1.84375 0.53125q-0.96875 0.234375 -2.203125 0.234375zm14.712463 0q-1.515625 0 -2.8125 -0.453125q-1.28125 -0.453125 -2.25 -1.3125q-0.953125 -0.859375 -1.5 -2.125q-0.53125 -1.265625 -0.53125 -2.875q0 -1.625 0.578125 -2.890625q0.578125 -1.265625 1.5625 -2.140625q0.984375 -0.890625 2.296875 -1.34375q1.328125 -0.453125 2.796875 -0.453125q1.59375 0 2.75 0.5625q1.171875 0.5625 1.96875 1.34375l-1.09375 1.40625q-0.796875 -0.6875 -1.671875 -1.09375q-0.859375 -0.40625 -1.875 -0.40625q-1.125 0 -2.0625 0.359375q-0.921875 0.359375 -1.578125 1.03125q-0.65625 0.671875 -1.03125 1.59375q-0.375 0.90625 -0.375 2.03125q0 1.125 0.359375 2.03125q0.375 0.90625 1.015625 1.5625q0.65625 0.640625 1.578125 1.0q0.921875 0.359375 2.046875 0.359375q1.1875 0 2.1875 -0.453125q1.0 -0.46875 1.796875 -1.171875l1.0 1.421875q-1.09375 0.953125 -2.40625 1.484375q-1.3125 0.53125 -2.75 0.53125zm14.774963 0q-1.28125 0 -2.453125 -0.453125q-1.15625 -0.453125 -2.03125 -1.3125q-0.875 -0.859375 -1.40625 -2.125q-0.515625 -1.265625 -0.515625 -2.875q0 -1.625 0.515625 -2.890625q0.53125 -1.265625 1.40625 -2.140625q0.875 -0.890625 2.03125 -1.34375q1.171875 -0.453125 2.453125 -0.453125q1.28125 0 2.4375 0.453125q1.15625 0.453125 2.03125 1.34375q0.890625 0.875 1.40625 2.140625q0.515625 1.265625 0.515625 2.890625q0 1.609375 -0.515625 2.875q-0.515625 1.265625 -1.40625 2.125q-0.875 0.859375 -2.03125 1.3125q-1.15625 0.453125 -2.4375 0.453125zm0 -1.8125q0.9375 0 1.6875 -0.359375q0.765625 -0.359375 1.3125 -1.0q0.546875 -0.65625 0.828125 -1.5625q0.296875 -0.90625 0.296875 -2.03125q0 -1.125 -0.296875 -2.03125q-0.28125 -0.921875 -0.828125 -1.59375q-0.546875 -0.671875 -1.3125 -1.03125q-0.75 -0.359375 -1.6875 -0.359375q-0.9375 0 -1.703125 0.359375q-0.75 0.359375 -1.296875 1.03125q-0.546875 0.671875 -0.84375 1.59375q-0.296875 0.90625 -0.296875 2.03125q0 1.125 0.296875 2.03125q0.296875 0.90625 0.84375 1.5625q0.546875 0.640625 1.296875 1.0q0.765625 0.359375 1.703125 0.359375zm15.212463 1.8125q-1.28125 0 -2.3125 -0.453125q-1.015625 -0.453125 -1.765625 -1.3125q-0.734375 -0.859375 -1.140625 -2.109375q-0.40625 -1.265625 -0.40625 -2.890625q0 -1.578125 0.484375 -2.84375q0.5 -1.265625 1.3125 -2.140625q0.828125 -0.875 1.890625 -1.359375q1.0625 -0.484375 2.203125 -0.484375q1.171875 0 2.09375 0.453125q0.921875 0.4375 1.78125 1.234375l0.078125 0l-0.109375 -2.40625l0 -4.984375l2.1875 0l0 18.984375l-1.8125 0l-0.1875 -1.703125l-0.078125 0q-0.796875 0.828125 -1.90625 1.421875q-1.109375 0.59375 -2.3125 0.59375zm0.453125 -1.828125q1.921875 0 3.65625 -1.953125l0 -6.453125q-0.875 -0.828125 -1.71875 -1.171875q-0.84375 -0.34375 -1.6875 -0.34375q-0.859375 0 -1.59375 0.359375q-0.734375 0.359375 -1.28125 1.015625q-0.546875 0.65625 -0.875 1.5625q-0.3125 0.90625 -0.3125 2.015625q0 2.359375 1.0 3.671875q1.0 1.296875 2.8125 1.296875zm16.743713 1.515625l0 -11.171875l-6.015625 0l0 -1.78125l8.203125 0l0 12.953125l-2.1875 0zm0.578125 -15.671875q-0.75 0 -1.265625 -0.46875q-0.5 -0.46875 -0.5 -1.234375q0 -0.78125 0.5 -1.234375q0.515625 -0.46875 1.265625 -0.46875q0.75 0 1.25 0.46875q0.5 0.453125 0.5 1.234375q0 0.765625 -0.5 1.234375q-0.5 0.46875 -1.25 0.46875zm9.478088 15.671875l0 -12.953125l1.8125 0l0.1875 2.203125l0.09375 0q1.015625 -1.078125 2.1875 -1.796875q1.171875 -0.734375 2.703125 -0.734375q2.3125 0 3.390625 1.328125q1.078125 1.3125 1.078125 3.90625l0 8.046875l-2.1875 0l0 -7.75q0 -1.84375 -0.6875 -2.734375q-0.6875 -0.890625 -2.296875 -0.890625q-0.578125 0 -1.078125 0.140625q-0.484375 0.140625 -0.96875 0.4375q-0.484375 0.296875 -1.0 0.734375q-0.5 0.4375 -1.046875 1.03125l0 9.03125l-2.1875 0zm21.399963 5.96875q-2.859375 0 -4.421875 -0.9375q-1.546875 -0.921875 -1.546875 -2.65625q0 -0.78125 0.546875 -1.53125q0.546875 -0.734375 1.578125 -1.34375l0 -0.109375q-0.53125 -0.296875 -0.9375 -0.796875q-0.390625 -0.515625 -0.390625 -1.34375q0 -0.609375 0.390625 -1.265625q0.40625 -0.65625 1.15625 -1.15625l0 -0.109375q-0.671875 -0.5 -1.140625 -1.34375q-0.453125 -0.84375 -0.453125 -2.015625q0 -1.0625 0.40625 -1.90625q0.40625 -0.859375 1.09375 -1.453125q0.703125 -0.609375 1.625 -0.9375q0.921875 -0.34375 1.953125 -0.34375q1.078125 0 1.921875 0.328125l5.359375 0l0 1.78125l-3.359375 0q0.453125 0.453125 0.765625 1.15625q0.328125 0.6875 0.328125 1.453125q0 1.046875 -0.390625 1.875q-0.375 0.828125 -1.0625 1.40625q-0.671875 0.5625 -1.59375 0.875q-0.921875 0.296875 -1.96875 0.296875q-0.5 0 -1.078125 -0.109375q-0.5625 -0.125 -1.09375 -0.359375q-1.015625 0.640625 -1.015625 1.484375q0 0.78125 0.703125 1.140625q0.703125 0.359375 1.984375 0.359375l2.90625 0q2.5 0 3.71875 0.6875q1.21875 0.6875 1.21875 2.34375q0 0.90625 -0.515625 1.734375q-0.5 0.828125 -1.4375 1.4375q-0.9375 0.609375 -2.265625 0.984375q-1.328125 0.375 -2.984375 0.375zm-0.140625 -11.546875q1.265625 0 2.125 -0.8125q0.875 -0.828125 0.875 -2.25q0 -0.65625 -0.25 -1.21875q-0.234375 -0.5625 -0.640625 -0.953125q-0.390625 -0.40625 -0.9375 -0.625q-0.546875 -0.234375 -1.171875 -0.234375q-0.609375 0 -1.15625 0.234375q-0.546875 0.21875 -0.953125 0.625q-0.390625 0.390625 -0.640625 0.953125q-0.234375 0.5625 -0.234375 1.21875q0 1.421875 0.875 2.25q0.890625 0.8125 2.109375 0.8125zm0.296875 9.953125q1.125 0 2.03125 -0.21875q0.90625 -0.21875 1.546875 -0.578125q0.640625 -0.359375 0.96875 -0.828125q0.328125 -0.453125 0.328125 -0.96875q0 -0.921875 -0.734375 -1.25q-0.71875 -0.3125 -2.21875 -0.3125l-2.53125 0q-0.5625 0 -1.0625 -0.046875q-0.484375 -0.03125 -0.90625 -0.171875q-0.9375 0.5 -1.296875 1.046875q-0.359375 0.546875 -0.359375 1.109375q0 1.015625 1.078125 1.609375q1.078125 0.609375 3.15625 0.609375zm15.946838 -4.0625q-0.90625 0 -1.53125 -0.609375q-0.625 -0.609375 -0.625 -1.625q0 -1.015625 0.625 -1.640625q0.625 -0.625 1.53125 -0.625q0.90625 0 1.53125 0.625q0.625 0.625 0.625 1.640625q0 1.015625 -0.625 1.625q-0.625 0.609375 -1.53125 0.609375zm15.993713 0q-1.28125 0 -2.453125 -0.453125q-1.15625 -0.453125 -2.03125 -1.3125q-0.875 -0.859375 -1.40625 -2.125q-0.515625 -1.265625 -0.515625 -2.875q0 -1.625 0.515625 -2.890625q0.53125 -1.265625 1.40625 -2.140625q0.875 -0.890625 2.03125 -1.34375q1.171875 -0.453125 2.453125 -0.453125q1.28125 0 2.4375 0.453125q1.15625 0.453125 2.03125 1.34375q0.890625 0.875 1.40625 2.140625q0.515625 1.265625 0.515625 2.890625q0 1.609375 -0.515625 2.875q-0.515625 1.265625 -1.40625 2.125q-0.875 0.859375 -2.03125 1.3125q-1.15625 0.453125 -2.4375 0.453125zm0 -1.8125q0.9375 0 1.6875 -0.359375q0.765625 -0.359375 1.3125 -1.0q0.546875 -0.65625 0.828125 -1.5625q0.296875 -0.90625 0.296875 -2.03125q0 -1.125 -0.296875 -2.03125q-0.28125 -0.921875 -0.828125 -1.59375q-0.546875 -0.671875 -1.3125 -1.03125q-0.75 -0.359375 -1.6875 -0.359375q-0.9375 0 -1.703125 0.359375q-0.75 0.359375 -1.296875 1.03125q-0.546875 0.671875 -0.84375 1.59375q-0.296875 0.90625 -0.296875 2.03125q0 1.125 0.296875 2.03125q0.296875 0.90625 0.84375 1.5625q0.546875 0.640625 1.296875 1.0q0.765625 0.359375 1.703125 0.359375zm11.884338 1.5l0 -12.953125l1.8125 0l0.1875 3.0625l0.078125 0q1.015625 -1.578125 2.484375 -2.484375q1.484375 -0.90625 3.296875 -0.90625q0.71875 0 1.328125 0.125q0.625 0.125 1.234375 0.421875l-0.5 1.890625q-0.703125 -0.25 -1.171875 -0.34375q-0.453125 -0.109375 -1.234375 -0.109375q-1.46875 0 -2.8125 0.84375q-1.34375 0.828125 -2.515625 2.859375l0 7.59375l-2.1875 0zm19.993713 5.96875q-2.859375 0 -4.421875 -0.9375q-1.546875 -0.921875 -1.546875 -2.65625q0 -0.78125 0.546875 -1.53125q0.546875 -0.734375 1.578125 -1.34375l0 -0.109375q-0.53125 -0.296875 -0.9375 -0.796875q-0.390625 -0.515625 -0.390625 -1.34375q0 -0.609375 0.390625 -1.265625q0.40625 -0.65625 1.15625 -1.15625l0 -0.109375q-0.671875 -0.5 -1.140625 -1.34375q-0.453125 -0.84375 -0.453125 -2.015625q0 -1.0625 0.40625 -1.90625q0.40625 -0.859375 1.09375 -1.453125q0.703125 -0.609375 1.625 -0.9375q0.921875 -0.34375 1.953125 -0.34375q1.078125 0 1.921875 0.328125l5.359375 0l0 1.78125l-3.359375 0q0.453125 0.453125 0.765625 1.15625q0.328125 0.6875 0.328125 1.453125q0 1.046875 -0.390625 1.875q-0.375 0.828125 -1.0625 1.40625q-0.671875 0.5625 -1.59375 0.875q-0.921875 0.296875 -1.96875 0.296875q-0.5 0 -1.078125 -0.109375q-0.5625 -0.125 -1.09375 -0.359375q-1.015625 0.640625 -1.015625 1.484375q0 0.78125 0.703125 1.140625q0.703125 0.359375 1.984375 0.359375l2.90625 0q2.5 0 3.71875 0.6875q1.21875 0.6875 1.21875 2.34375q0 0.90625 -0.515625 1.734375q-0.5 0.828125 -1.4375 1.4375q-0.9375 0.609375 -2.265625 0.984375q-1.328125 0.375 -2.984375 0.375zm-0.140625 -11.546875q1.265625 0 2.125 -0.8125q0.875 -0.828125 0.875 -2.25q0 -0.65625 -0.25 -1.21875q-0.234375 -0.5625 -0.640625 -0.953125q-0.390625 -0.40625 -0.9375 -0.625q-0.546875 -0.234375 -1.171875 -0.234375q-0.609375 0 -1.15625 0.234375q-0.546875 0.21875 -0.953125 0.625q-0.390625 0.390625 -0.640625 0.953125q-0.234375 0.5625 -0.234375 1.21875q0 1.421875 0.875 2.25q0.890625 0.8125 2.109375 0.8125zm0.296875 9.953125q1.125 0 2.03125 -0.21875q0.90625 -0.21875 1.546875 -0.578125q0.640625 -0.359375 0.96875 -0.828125q0.328125 -0.453125 0.328125 -0.96875q0 -0.921875 -0.734375 -1.25q-0.71875 -0.3125 -2.21875 -0.3125l-2.53125 0q-0.5625 0 -1.0625 -0.046875q-0.484375 -0.03125 -0.90625 -0.171875q-0.9375 0.5 -1.296875 1.046875q-0.359375 0.546875 -0.359375 1.109375q0 1.015625 1.078125 1.609375q1.078125 0.609375 3.15625 0.609375zm12.196838 -13.765625l-0.671875 -5.984375l-0.046875 -2.9375l2.9375 0l-0.0625 2.9375l-0.65625 5.984375l-1.5 0zm6.0 0l-0.671875 -5.984375l-0.046875 -2.9375l2.9375 0l-0.0625 2.9375l-0.65625 5.984375l-1.5 0z" fill-rule="nonzero"/><path fill="#153570" d="m631.069 190.35274l0 -2.109375l8.015625 -5.40625l0 -0.109375l-8.015625 -5.40625l0 -2.109375l9.9375 6.75l0 1.640625l-9.9375 6.75z" fill-rule="nonzero"/><path fill="#21727b" d="m662.3064 191.63399l0 -17.484375l2.234375 0l0 7.328125l7.3125 0l0 -7.328125l2.234375 0l0 17.484375l-2.234375 0l0 -8.234375l-7.3125 0l0 8.234375l-2.234375 0zm22.681213 0.3125q-1.46875 0 -2.734375 -0.453125q-1.265625 -0.453125 -2.21875 -1.328125q-0.9375 -0.875 -1.484375 -2.140625q-0.546875 -1.265625 -0.546875 -2.890625q0 -1.578125 0.546875 -2.828125q0.546875 -1.25 1.46875 -2.125q0.921875 -0.890625 2.109375 -1.359375q1.1875 -0.46875 2.484375 -0.46875q1.390625 0 2.484375 0.453125q1.109375 0.4375 1.875 1.234375q0.765625 0.796875 1.15625 1.921875q0.40625 1.109375 0.40625 2.46875q0 0.375 -0.03125 0.734375q-0.03125 0.34375 -0.078125 0.609375l-10.203125 0q0.203125 2.203125 1.59375 3.3125q1.40625 1.109375 3.4375 1.109375q1.171875 0 2.109375 -0.328125q0.953125 -0.34375 1.84375 -0.90625l0.796875 1.453125q-0.96875 0.625 -2.203125 1.078125q-1.234375 0.453125 -2.8125 0.453125zm-0.3125 -11.859375q-0.8125 0 -1.546875 0.265625q-0.734375 0.265625 -1.328125 0.765625q-0.578125 0.5 -0.984375 1.25q-0.390625 0.734375 -0.546875 1.6875l8.265625 0q-0.140625 -1.984375 -1.171875 -2.96875q-1.015625 -1.0 -2.6875 -1.0zm18.353088 11.859375q-2.078125 0 -3.171875 -1.171875q-1.09375 -1.171875 -1.09375 -3.484375l0 -12.84375l-4.609375 0l0 -1.796875l6.796875 0l0 14.796875q0 1.4375 0.6875 2.0625q0.703125 0.625 1.875 0.625q1.140625 0 2.421875 -0.578125l0.5625 1.625q-0.90625 0.375 -1.65625 0.5625q-0.734375 0.203125 -1.8125 0.203125zm15.993652 0q-2.078125 0 -3.171875 -1.171875q-1.09375 -1.171875 -1.09375 -3.484375l0 -12.84375l-4.609375 0l0 -1.796875l6.796875 0l0 14.796875q0 1.4375 0.6875 2.0625q0.703125 0.625 1.875 0.625q1.140625 0 2.421875 -0.578125l0.5625 1.625q-0.90625 0.375 -1.65625 0.5625q-0.734375 0.203125 -1.8125 0.203125zm13.149963 0q-1.28125 0 -2.453125 -0.453125q-1.15625 -0.453125 -2.03125 -1.3125q-0.875 -0.859375 -1.40625 -2.125q-0.515625 -1.265625 -0.515625 -2.875q0 -1.625 0.515625 -2.890625q0.53125 -1.265625 1.40625 -2.140625q0.875 -0.890625 2.03125 -1.34375q1.171875 -0.453125 2.453125 -0.453125q1.28125 0 2.4375 0.453125q1.15625 0.453125 2.03125 1.34375q0.890625 0.875 1.40625 2.140625q0.515625 1.265625 0.515625 2.890625q0 1.609375 -0.515625 2.875q-0.515625 1.265625 -1.40625 2.125q-0.875 0.859375 -2.03125 1.3125q-1.15625 0.453125 -2.4375 0.453125zm0 -1.8125q0.9375 0 1.6875 -0.359375q0.765625 -0.359375 1.3125 -1.0q0.546875 -0.65625 0.828125 -1.5625q0.296875 -0.90625 0.296875 -2.03125q0 -1.125 -0.296875 -2.03125q-0.28125 -0.921875 -0.828125 -1.59375q-0.546875 -0.671875 -1.3125 -1.03125q-0.75 -0.359375 -1.6875 -0.359375q-0.9375 0 -1.703125 0.359375q-0.75 0.359375 -1.296875 1.03125q-0.546875 0.671875 -0.84375 1.59375q-0.296875 0.90625 -0.296875 2.03125q0 1.125 0.296875 2.03125q0.296875 0.90625 0.84375 1.5625q0.546875 0.640625 1.296875 1.0q0.765625 0.359375 1.703125 0.359375zm26.924866 1.5l-2.671875 -17.515625l2.5 0l1.28125 10.984375q0.0625 0.5625 0.109375 1.015625q0.0625 0.453125 0.09375 0.921875q0.046875 0.46875 0.078125 0.96875q0.046875 0.5 0.0625 1.140625l0.09375 0q0.09375 -0.640625 0.203125 -1.140625q0.109375 -0.5 0.203125 -0.96875q0.09375 -0.46875 0.203125 -0.921875q0.109375 -0.453125 0.234375 -0.984375l1.703125 -6.515625l2.140625 0l1.65625 6.515625q0.125 0.53125 0.234375 0.984375q0.109375 0.453125 0.203125 0.921875q0.09375 0.46875 0.1875 0.96875q0.09375 0.5 0.21875 1.140625l0.109375 0q0.03125 -0.640625 0.0625 -1.140625q0.046875 -0.5 0.078125 -0.96875q0.046875 -0.46875 0.078125 -0.921875q0.046875 -0.453125 0.109375 -0.984375l1.21875 -11.015625l2.40625 0l-2.5625 17.515625l-2.78125 0l-1.703125 -7.03125q-0.203125 -0.8125 -0.359375 -1.578125q-0.140625 -0.78125 -0.28125 -1.578125l-0.078125 0q-0.125 0.796875 -0.265625 1.578125q-0.125 0.765625 -0.34375 1.578125l-1.703125 7.03125l-2.71875 0zm21.056213 0.3125q-1.28125 0 -2.453125 -0.453125q-1.15625 -0.453125 -2.03125 -1.3125q-0.875 -0.859375 -1.40625 -2.125q-0.515625 -1.265625 -0.515625 -2.875q0 -1.625 0.515625 -2.890625q0.53125 -1.265625 1.40625 -2.140625q0.875 -0.890625 2.03125 -1.34375q1.171875 -0.453125 2.453125 -0.453125q1.28125 0 2.4375 0.453125q1.15625 0.453125 2.03125 1.34375q0.890625 0.875 1.40625 2.140625q0.515625 1.265625 0.515625 2.890625q0 1.609375 -0.515625 2.875q-0.515625 1.265625 -1.40625 2.125q-0.875 0.859375 -2.03125 1.3125q-1.15625 0.453125 -2.4375 0.453125zm0 -1.8125q0.9375 0 1.6875 -0.359375q0.765625 -0.359375 1.3125 -1.0q0.546875 -0.65625 0.828125 -1.5625q0.296875 -0.90625 0.296875 -2.03125q0 -1.125 -0.296875 -2.03125q-0.28125 -0.921875 -0.828125 -1.59375q-0.546875 -0.671875 -1.3125 -1.03125q-0.75 -0.359375 -1.6875 -0.359375q-0.9375 0 -1.703125 0.359375q-0.75 0.359375 -1.296875 1.03125q-0.546875 0.671875 -0.84375 1.59375q-0.296875 0.90625 -0.296875 2.03125q0 1.125 0.296875 2.03125q0.296875 0.90625 0.84375 1.5625q0.546875 0.640625 1.296875 1.0q0.765625 0.359375 1.703125 0.359375zm11.884338 1.5l0 -12.953125l1.8125 0l0.1875 3.0625l0.078125 0q1.015625 -1.578125 2.484375 -2.484375q1.484375 -0.90625 3.296875 -0.90625q0.71875 0 1.328125 0.125q0.625 0.125 1.234375 0.421875l-0.5 1.890625q-0.703125 -0.25 -1.171875 -0.34375q-0.453125 -0.109375 -1.234375 -0.109375q-1.46875 0 -2.8125 0.84375q-1.34375 0.828125 -2.515625 2.859375l0 7.59375l-2.1875 0zm22.946838 0.3125q-2.078125 0 -3.171875 -1.171875q-1.09375 -1.171875 -1.09375 -3.484375l0 -12.84375l-4.609375 0l0 -1.796875l6.796875 0l0 14.796875q0 1.4375 0.6875 2.0625q0.703125 0.625 1.875 0.625q1.140625 0 2.421875 -0.578125l0.5625 1.625q-0.90625 0.375 -1.65625 0.5625q-0.734375 0.203125 -1.8125 0.203125zm12.368713 0q-1.28125 0 -2.3125 -0.453125q-1.015625 -0.453125 -1.765625 -1.3125q-0.734375 -0.859375 -1.140625 -2.109375q-0.40625 -1.265625 -0.40625 -2.890625q0 -1.578125 0.484375 -2.84375q0.5 -1.265625 1.3125 -2.140625q0.828125 -0.875 1.890625 -1.359375q1.0625 -0.484375 2.203125 -0.484375q1.171875 0 2.09375 0.453125q0.921875 0.4375 1.78125 1.234375l0.078125 0l-0.109375 -2.40625l0 -4.984375l2.1875 0l0 18.984375l-1.8125 0l-0.1875 -1.703125l-0.078125 0q-0.796875 0.828125 -1.90625 1.421875q-1.109375 0.59375 -2.3125 0.59375zm0.453125 -1.828125q1.921875 0 3.65625 -1.953125l0 -6.453125q-0.875 -0.828125 -1.71875 -1.171875q-0.84375 -0.34375 -1.6875 -0.34375q-0.859375 0 -1.59375 0.359375q-0.734375 0.359375 -1.28125 1.015625q-0.546875 0.65625 -0.875 1.5625q-0.3125 0.90625 -0.3125 2.015625q0 2.359375 1.0 3.671875q1.0 1.296875 2.8125 1.296875zm15.571777 -4.671875l-0.265625 -9.171875l-0.046875 -2.5l2.125 0l-0.046875 2.5l-0.265625 9.171875l-1.5 0zm0.75 6.5q-0.796875 0 -1.375 -0.546875q-0.578125 -0.5625 -0.578125 -1.53125q0 -0.921875 0.578125 -1.46875q0.578125 -0.546875 1.375 -0.546875q0.796875 0 1.359375 0.546875q0.578125 0.546875 0.578125 1.46875q0 0.96875 -0.578125 1.53125q-0.5625 0.546875 -1.359375 0.546875z" fill-rule="nonzero"/><path fill="#153570" d="m865.262 190.35274l-9.9375 -6.75l0 -1.640625l9.9375 -6.75l0 2.109375l-8.015625 5.40625l0 0.109375l8.015625 5.40625l0 2.109375zm5.4937134 5.546875l8.734375 -23.1875l1.984375 0l-8.75 23.1875l-1.96875 0zm19.915527 -3.953125q-0.90625 0 -1.71875 -0.25q-0.796875 -0.25 -1.390625 -0.71875q-0.59375 -0.46875 -0.953125 -1.140625q-0.34375 -0.6875 -0.34375 -1.5625q0 -1.09375 0.515625 -1.90625q0.53125 -0.8125 1.65625 -1.390625q1.140625 -0.59375 2.921875 -0.96875q1.78125 -0.375 4.296875 -0.578125q-0.03125 -0.671875 -0.21875 -1.25q-0.1875 -0.59375 -0.59375 -1.03125q-0.390625 -0.4375 -1.046875 -0.703125q-0.65625 -0.28125 -1.578125 -0.28125q-1.28125 0 -2.453125 0.5q-1.171875 0.5 -2.078125 1.046875l-0.859375 -1.484375q0.484375 -0.328125 1.125 -0.65625q0.65625 -0.328125 1.390625 -0.59375q0.734375 -0.265625 1.5625 -0.4375q0.828125 -0.1875 1.6875 -0.1875q2.65625 0 3.953125 1.453125q1.296875 1.453125 1.296875 3.890625l0 7.9375l-1.796875 0l-0.1875 -1.765625l-0.078125 0q-1.09375 0.859375 -2.421875 1.46875q-1.3125 0.609375 -2.6875 0.609375zm0.578125 -1.75q1.125 0 2.203125 -0.484375q1.078125 -0.5 2.203125 -1.4375l0 -3.40625q-2.078125 0.15625 -3.484375 0.453125q-1.40625 0.28125 -2.25 0.703125q-0.828125 0.40625 -1.171875 0.9375q-0.34375 0.515625 -0.34375 1.15625q0 0.5625 0.234375 0.953125q0.234375 0.375 0.625 0.640625q0.390625 0.25 0.90625 0.375q0.515625 0.109375 1.078125 0.109375zm11.712463 0.15625l0 -2.109375l8.015625 -5.40625l0 -0.109375l-8.015625 -5.40625l0 -2.109375l9.9375 6.75l0 1.640625l-9.9375 6.75z" fill-rule="nonzero"/><path fill="#000000" fill-opacity="0.0" d="m78.154854 140.32545l0 31.40158" fill-rule="evenodd"/><path stroke="#153570" stroke-width="2.0" stroke-linejoin="round" stroke-linecap="butt" d="m78.154854 140.32545l0 19.40158" fill-rule="evenodd"/><path fill="#153570" stroke="#153570" stroke-width="2.0" stroke-linecap="butt" d="m74.85139 159.72704l3.3034668 9.076187l3.3034668 -9.076187z" fill-rule="evenodd"/><path fill="#000000" fill-opacity="0.0" d="m357.79523 244.30797l0 -38.29921" fill-rule="evenodd"/><path stroke="#ff8900" stroke-width="2.0" stroke-linejoin="round" stroke-linecap="butt" d="m357.79523 244.30797l0 -26.29921" fill-rule="evenodd"/><path fill="#ff8900" stroke="#ff8900" stroke-width="2.0" stroke-linecap="butt" d="m361.0987 218.00876l-3.3034668 -9.076202l-3.3034668 9.076202z" fill-rule="evenodd"/><path fill="#000000" fill-opacity="0.0" d="m687.45404 134.06036l0 35.307083" fill-rule="evenodd"/><path stroke="#21727b" stroke-width="2.0" stroke-linejoin="round" stroke-linecap="butt" d="m687.45404 134.06036l0 23.307083" fill-rule="evenodd"/><path fill="#21727b" stroke="#21727b" stroke-width="2.0" stroke-linecap="butt" d="m684.1506 157.36746l3.3034668 9.076187l3.3034668 -9.076187z" fill-rule="evenodd"/><path fill="#000000" fill-opacity="0.0" d="m612.26953 124.73455l151.02362 -0.22047424" fill-rule="evenodd"/><path stroke="#21727b" stroke-width="2.0" stroke-linejoin="round" stroke-linecap="butt" d="m612.26953 124.73455l151.02362 -0.22047424" fill-rule="evenodd"/><path fill="#000000" fill-opacity="0.0" d="m9.414773 128.6587l202.04724 0.94488525" fill-rule="evenodd"/><path stroke="#153570" stroke-width="2.0" stroke-linejoin="round" stroke-linecap="butt" d="m9.414773 128.6587l202.04724 0.94488525" fill-rule="evenodd"/><path fill="#000000" fill-opacity="0.0" d="m275.65317 275.31833l164.28348 0.34643555" fill-rule="evenodd"/><path stroke="#ff8900" stroke-width="2.0" stroke-linejoin="round" stroke-linecap="butt" d="m275.65317 275.31833l164.28348 0.34643555" fill-rule="evenodd"/><path fill="#000000" fill-opacity="0.0" d="m702.0421 283.09692l209.92126 -0.4409485" fill-rule="evenodd"/><path stroke="#153570" stroke-width="2.0" stroke-linejoin="round" stroke-linecap="butt" d="m702.0421 283.09692l209.92126 -0.4409485" fill-rule="evenodd"/><path fill="#000000" fill-opacity="0.0" d="m879.46716 245.56955l0 -45.039368" fill-rule="evenodd"/><path stroke="#153570" stroke-width="2.0" stroke-linejoin="round" stroke-linecap="butt" d="m879.46716 245.56955l0 -33.039368" fill-rule="evenodd"/><path fill="#153570" stroke="#153570" stroke-width="2.0" stroke-linecap="butt" d="m882.7706 212.53018l-3.3034668 -9.076187l-3.3034668 9.076187z" fill-rule="evenodd"/><path fill="#000000" fill-opacity="0.0" d="m143.36522 244.30643l0 -38.29921" fill-rule="evenodd"/><path stroke="#41ceda" stroke-width="2.0" stroke-linejoin="round" stroke-linecap="butt" d="m143.3652 244.30643l0 -26.29921" fill-rule="evenodd"/><path fill="#41ceda" stroke="#41ceda" stroke-width="2.0" stroke-linecap="butt" d="m146.66867 218.00722l-3.3034668 -9.076202l-3.3034668 9.076202z" fill-rule="evenodd"/><path fill="#000000" fill-opacity="0.0" d="m61.215996 272.14557l164.28348 0.34646606" fill-rule="evenodd"/><path stroke="#41ceda" stroke-width="2.0" stroke-linejoin="round" stroke-linecap="butt" d="m61.215996 272.14557l164.28348 0.34646606" fill-rule="evenodd"/><path fill="#000000" fill-opacity="0.0" d="m143.36522 415.47113l209.92125 -0.4409485" fill-rule="evenodd"/><path stroke="#000000" stroke-width="2.0" stroke-linejoin="round" stroke-linecap="butt" d="m143.36522 415.47113l209.92125 -0.4409485" fill-rule="evenodd"/></g></svg>