<svg version="1.1" viewBox="0.0 0.0 960.0 540.0" fill="none" stroke="none" stroke-linecap="square" stroke-miterlimit="10" xmlns:xlink="http://www.w3.org/1999/xlink" xmlns="http://www.w3.org/2000/svg"><clipPath id="g8ed9875dd8_0_133.0"><path d="m0 0l960.0 0l0 540.0l-960.0 0l0 -540.0z" clip-rule="nonzero"/></clipPath><g clip-path="url(#g8ed9875dd8_0_133.0)"><path fill="#ffffff" d="m0 0l960.0 0l0 540.0l-960.0 0z" fill-rule="evenodd"/><path fill="#000000" fill-opacity="0.0" d="m5.2834644 133.87401l64.78741 0l0 26.48819l-64.78741 0z" fill-rule="evenodd"/><path fill="#39b7c2" d="m38.222492 165.9781l1.125 -9.21875l-5.125 0l-1.140625 9.21875l-4.1875 0l1.140625 -9.21875l-3.703125 0l0 -4.640625l4.296875 0l0.640625 -5.421875l-3.953125 0l0 -4.640625l4.546875 0l0.984375 -8.140625l4.140625 0l-0.984375 8.140625l5.171875 0l0.984375 -8.140625l4.15625 0l-1.0 8.140625l3.90625 0l0 4.640625l-4.4375 0l-0.6875 5.421875l4.140625 0l0 4.640625l-4.6875 0l-1.140625 9.21875l-4.1875 0zm1.71875 -13.859375l0.640625 -5.421875l-5.125 0l-0.6875 5.421875l5.171875 0z" fill-rule="nonzero"/><path fill="#000000" fill-opacity="0.0" d="m52.220818 169.6699l36.25197 0" fill-rule="evenodd"/><path stroke="#39b7c2" stroke-width="4.0" stroke-linejoin="round" stroke-linecap="butt" d="m52.220818 169.6699l36.25197 0" fill-rule="evenodd"/><path fill="#000000" fill-opacity="0.0" d="m97.87882 169.6699l36.251976 0" fill-rule="evenodd"/><path stroke="#39b7c2" stroke-width="4.0" stroke-linejoin="round" stroke-linecap="butt" d="m97.87882 169.6699l36.251976 0" fill-rule="evenodd"/><path fill="#000000" fill-opacity="0.0" d="m143.53683 169.6699l36.25197 0" fill-rule="evenodd"/><path stroke="#39b7c2" stroke-width="4.0" stroke-linejoin="round" stroke-linecap="butt" d="m143.53683 169.6699l36.25197 0" fill-rule="evenodd"/><path fill="#000000" fill-opacity="0.0" d="m189.19484 169.6699l36.25197 0" fill-rule="evenodd"/><path stroke="#39b7c2" stroke-width="4.0" stroke-linejoin="round" stroke-linecap="butt" d="m189.19484 169.6699l36.25197 0" fill-rule="evenodd"/><path fill="#000000" fill-opacity="0.0" d="m235.68706 169.6699l36.25197 0" fill-rule="evenodd"/><path stroke="#39b7c2" stroke-width="4.0" stroke-linejoin="round" stroke-linecap="butt" d="m235.68706 169.6699l36.25197 0" fill-rule="evenodd"/><path fill="#000000" fill-opacity="0.0" d="m281.34506 169.6699l36.251953 0" fill-rule="evenodd"/><path stroke="#39b7c2" stroke-width="4.0" stroke-linejoin="round" stroke-linecap="butt" d="m281.34506 169.6699l36.251953 0" fill-rule="evenodd"/><path fill="#000000" fill-opacity="0.0" d="m52.220016 229.74803l256.8819 0" fill-rule="evenodd"/><path stroke="#153570" stroke-width="3.0" stroke-linejoin="round" stroke-linecap="butt" d="m52.220016 229.74803l256.8819 0" fill-rule="evenodd"/><path fill="#000000" fill-opacity="0.0" d="m318.56036 133.87401l64.787415 0l0 26.48819l-64.787415 0z" fill-rule="evenodd"/><path fill="#39b7c2" d="m351.4994 165.9781l1.125 -9.21875l-5.125 0l-1.140625 9.21875l-4.1875 0l1.140625 -9.21875l-3.703125 0l0 -4.640625l4.296875 0l0.640625 -5.421875l-3.953125 0l0 -4.640625l4.546875 0l0.984375 -8.140625l4.140625 0l-0.984375 8.140625l5.171875 0l0.984375 -8.140625l4.15625 0l-1.0 8.140625l3.90625 0l0 4.640625l-4.4375 0l-0.6875 5.421875l4.140625 0l0 4.640625l-4.6875 0l-1.140625 9.21875l-4.1875 0zm1.71875 -13.859375l0.640625 -5.421875l-5.125 0l-0.6875 5.421875l5.171875 0z" fill-rule="nonzero"/><path fill="#000000" fill-opacity="0.0" d="m365.4977 169.6699l36.251984 0" fill-rule="evenodd"/><path stroke="#39b7c2" stroke-width="4.0" stroke-linejoin="round" stroke-linecap="butt" d="m365.4977 169.6699l36.251984 0" fill-rule="evenodd"/><path fill="#000000" fill-opacity="0.0" d="m411.15573 169.6699l36.251953 0" fill-rule="evenodd"/><path stroke="#39b7c2" stroke-width="4.0" stroke-linejoin="round" stroke-linecap="butt" d="m411.15573 169.6699l36.251953 0" fill-rule="evenodd"/><path fill="#000000" fill-opacity="0.0" d="m456.81372 169.6699l36.251984 0" fill-rule="evenodd"/><path stroke="#39b7c2" stroke-width="4.0" stroke-linejoin="round" stroke-linecap="butt" d="m456.81372 169.6699l36.251984 0" fill-rule="evenodd"/><path fill="#000000" fill-opacity="0.0" d="m502.47174 169.6699l36.251953 0" fill-rule="evenodd"/><path stroke="#39b7c2" stroke-width="4.0" stroke-linejoin="round" stroke-linecap="butt" d="m502.47174 169.6699l36.251953 0" fill-rule="evenodd"/><path fill="#000000" fill-opacity="0.0" d="m548.9639 169.6699l36.252014 0" fill-rule="evenodd"/><path stroke="#39b7c2" stroke-width="4.0" stroke-linejoin="round" stroke-linecap="butt" d="m548.9639 169.6699l36.252014 0" fill-rule="evenodd"/><path fill="#000000" fill-opacity="0.0" d="m594.62195 169.6699l36.251953 0" fill-rule="evenodd"/><path stroke="#39b7c2" stroke-width="4.0" stroke-linejoin="round" stroke-linecap="butt" d="m594.62195 169.6699l36.251953 0" fill-rule="evenodd"/><path fill="#000000" fill-opacity="0.0" d="m365.49954 229.74803l256.88187 0" fill-rule="evenodd"/><path stroke="#153570" stroke-width="3.0" stroke-linejoin="round" stroke-linecap="butt" d="m365.49954 229.74803l256.88187 0" fill-rule="evenodd"/><path fill="#000000" fill-opacity="0.0" d="m642.4029 133.87401l64.787415 0l0 26.48819l-64.787415 0z" fill-rule="evenodd"/><path fill="#39b7c2" d="m675.3419 165.9781l1.125 -9.21875l-5.125 0l-1.140625 9.21875l-4.1875 0l1.140625 -9.21875l-3.703125 0l0 -4.640625l4.296875 0l0.640625 -5.421875l-3.953125 0l0 -4.640625l4.546875 0l0.984375 -8.140625l4.140625 0l-0.984375 8.140625l5.171875 0l0.984375 -8.140625l4.15625 0l-1.0 8.140625l3.90625 0l0 4.640625l-4.4375 0l-0.6875 5.421875l4.140625 0l0 4.640625l-4.6875 0l-1.140625 9.21875l-4.1875 0zm1.71875 -13.859375l0.640625 -5.421875l-5.125 0l-0.6875 5.421875l5.171875 0z" fill-rule="nonzero"/><path fill="#000000" fill-opacity="0.0" d="m689.3403 169.6699l36.251953 0" fill-rule="evenodd"/><path stroke="#39b7c2" stroke-width="4.0" stroke-linejoin="round" stroke-linecap="butt" d="m689.3403 169.6699l36.251953 0" fill-rule="evenodd"/><path fill="#000000" fill-opacity="0.0" d="m734.9982 169.6699l36.252014 0" fill-rule="evenodd"/><path stroke="#39b7c2" stroke-width="4.0" stroke-linejoin="round" stroke-linecap="butt" d="m734.9982 169.6699l36.252014 0" fill-rule="evenodd"/><path fill="#000000" fill-opacity="0.0" d="m780.65625 169.6699l36.251953 0" fill-rule="evenodd"/><path stroke="#39b7c2" stroke-width="4.0" stroke-linejoin="round" stroke-linecap="butt" d="m780.65625 169.6699l36.251953 0" fill-rule="evenodd"/><path fill="#000000" fill-opacity="0.0" d="m826.3143 169.6699l36.251953 0" fill-rule="evenodd"/><path stroke="#39b7c2" stroke-width="4.0" stroke-linejoin="round" stroke-linecap="butt" d="m826.3143 169.6699l36.251953 0" fill-rule="evenodd"/><path fill="#000000" fill-opacity="0.0" d="m872.80646 169.6699l36.252014 0" fill-rule="evenodd"/><path stroke="#39b7c2" stroke-width="4.0" stroke-linejoin="round" stroke-linecap="butt" d="m872.80646 169.6699l36.252014 0" fill-rule="evenodd"/><path fill="#000000" fill-opacity="0.0" d="m918.4645 169.6699l36.251953 0" fill-rule="evenodd"/><path stroke="#39b7c2" stroke-width="4.0" stroke-linejoin="round" stroke-linecap="butt" d="m918.4645 169.6699l36.251953 0" fill-rule="evenodd"/><path fill="#000000" fill-opacity="0.0" d="m689.34204 229.74803l256.8819 0" fill-rule="evenodd"/><path stroke="#153570" stroke-width="3.0" stroke-linejoin="round" stroke-linecap="butt" d="m689.34204 229.74803l256.8819 0" fill-rule="evenodd"/><path fill="#000000" fill-opacity="0.0" d="m156.6378 297.24933l64.7874 0l0 26.48819l-64.7874 0z" fill-rule="evenodd"/><path fill="#39b7c2" d="m189.57683 329.35342l1.125 -9.21875l-5.125 0l-1.140625 9.21875l-4.1875 0l1.140625 -9.21875l-3.703125 0l0 -4.640625l4.296875 0l0.640625 -5.421875l-3.953125 0l0 -4.640625l4.546875 0l0.984375 -8.140625l4.140625 0l-0.984375 8.140625l5.171875 0l0.984375 -8.140625l4.15625 0l-1.0 8.140625l3.90625 0l0 4.640625l-4.4375 0l-0.6875 5.421875l4.140625 0l0 4.640625l-4.6875 0l-1.140625 9.21875l-4.1875 0zm1.71875 -13.859375l0.640625 -5.421875l-5.125 0l-0.6875 5.421875l5.171875 0z" fill-rule="nonzero"/><path fill="#000000" fill-opacity="0.0" d="m203.57515 333.04523l36.25197 0" fill-rule="evenodd"/><path stroke="#39b7c2" stroke-width="4.0" stroke-linejoin="round" stroke-linecap="butt" d="m203.57515 333.04523l36.25197 0" fill-rule="evenodd"/><path fill="#000000" fill-opacity="0.0" d="m249.23315 333.04523l36.251984 0" fill-rule="evenodd"/><path stroke="#39b7c2" stroke-width="4.0" stroke-linejoin="round" stroke-linecap="butt" d="m249.23315 333.04523l36.251984 0" fill-rule="evenodd"/><path fill="#000000" fill-opacity="0.0" d="m294.89117 333.04523l36.251953 0" fill-rule="evenodd"/><path stroke="#39b7c2" stroke-width="4.0" stroke-linejoin="round" stroke-linecap="butt" d="m294.89117 333.04523l36.251953 0" fill-rule="evenodd"/><path fill="#000000" fill-opacity="0.0" d="m340.54916 333.04523l36.251984 0" fill-rule="evenodd"/><path stroke="#39b7c2" stroke-width="4.0" stroke-linejoin="round" stroke-linecap="butt" d="m340.54916 333.04523l36.251984 0" fill-rule="evenodd"/><path fill="#000000" fill-opacity="0.0" d="m387.04138 333.04523l36.251953 0" fill-rule="evenodd"/><path stroke="#39b7c2" stroke-width="4.0" stroke-linejoin="round" stroke-linecap="butt" d="m387.04138 333.04523l36.251953 0" fill-rule="evenodd"/><path fill="#000000" fill-opacity="0.0" d="m432.6994 333.04523l36.251953 0" fill-rule="evenodd"/><path stroke="#39b7c2" stroke-width="4.0" stroke-linejoin="round" stroke-linecap="butt" d="m432.6994 333.04523l36.251953 0" fill-rule="evenodd"/><path fill="#000000" fill-opacity="0.0" d="m203.57698 393.12335l256.8819 0" fill-rule="evenodd"/><path stroke="#153570" stroke-width="3.0" stroke-linejoin="round" stroke-linecap="butt" d="m203.57698 393.12335l256.8819 0" fill-rule="evenodd"/><path fill="#000000" fill-opacity="0.0" d="m480.48032 297.24933l64.787384 0l0 26.48819l-64.787384 0z" fill-rule="evenodd"/><path fill="#39b7c2" d="m513.4193 329.35342l1.125 -9.21875l-5.1249695 0l-1.140625 9.21875l-4.1875 0l1.140625 -9.21875l-3.703125 0l0 -4.640625l4.296875 0l0.640625 -5.421875l-3.953125 0l0 -4.640625l4.546875 0l0.984375 -8.140625l4.1406555 0l-0.9844055 8.140625l5.1718445 0l0.984375 -8.140625l4.15625 0l-1.0 8.140625l3.90625 0l0 4.640625l-4.4375 0l-0.6875 5.421875l4.140625 0l0 4.640625l-4.6875 0l-1.140625 9.21875l-4.1875 0zm1.71875 -13.859375l0.640625 -5.421875l-5.1249695 0l-0.6875 5.421875l5.1718445 0z" fill-rule="nonzero"/><path fill="#000000" fill-opacity="0.0" d="m527.41766 333.04523l36.251953 0" fill-rule="evenodd"/><path stroke="#39b7c2" stroke-width="4.0" stroke-linejoin="round" stroke-linecap="butt" d="m527.41766 333.04523l36.251953 0" fill-rule="evenodd"/><path fill="#000000" fill-opacity="0.0" d="m573.0757 333.04523l36.251953 0" fill-rule="evenodd"/><path stroke="#39b7c2" stroke-width="4.0" stroke-linejoin="round" stroke-linecap="butt" d="m573.0757 333.04523l36.251953 0" fill-rule="evenodd"/><path fill="#000000" fill-opacity="0.0" d="m618.7337 333.04523l36.251953 0" fill-rule="evenodd"/><path stroke="#39b7c2" stroke-width="4.0" stroke-linejoin="round" stroke-linecap="butt" d="m618.7337 333.04523l36.251953 0" fill-rule="evenodd"/><path fill="#000000" fill-opacity="0.0" d="m664.39166 333.04523l36.252014 0" fill-rule="evenodd"/><path stroke="#39b7c2" stroke-width="4.0" stroke-linejoin="round" stroke-linecap="butt" d="m664.39166 333.04523l36.252014 0" fill-rule="evenodd"/><path fill="#000000" fill-opacity="0.0" d="m710.8839 333.04523l36.251953 0" fill-rule="evenodd"/><path stroke="#39b7c2" stroke-width="4.0" stroke-linejoin="round" stroke-linecap="butt" d="m710.8839 333.04523l36.251953 0" fill-rule="evenodd"/><path fill="#000000" fill-opacity="0.0" d="m756.54193 333.04523l36.251953 0" fill-rule="evenodd"/><path stroke="#39b7c2" stroke-width="4.0" stroke-linejoin="round" stroke-linecap="butt" d="m756.54193 333.04523l36.251953 0" fill-rule="evenodd"/><path fill="#000000" fill-opacity="0.0" d="m527.4195 393.12335l256.8819 0" fill-rule="evenodd"/><path stroke="#153570" stroke-width="3.0" stroke-linejoin="round" stroke-linecap="butt" d="m527.4195 393.12335l256.8819 0" fill-rule="evenodd"/></g></svg>