<svg version="1.1" viewBox="0.0 0.0 960.0 540.0" fill="none" stroke="none" stroke-linecap="square" stroke-miterlimit="10" xmlns:xlink="http://www.w3.org/1999/xlink" xmlns="http://www.w3.org/2000/svg"><clipPath id="g8ed9875dd8_0_5.0"><path d="m0 0l960.0 0l0 540.0l-960.0 0l0 -540.0z" clip-rule="nonzero"/></clipPath><g clip-path="url(#g8ed9875dd8_0_5.0)"><path fill="#ffffff" d="m0 0l960.0 0l0 540.0l-960.0 0z" fill-rule="evenodd"/><path fill="#000000" fill-opacity="0.0" d="m45.65354 204.24501l868.6929 0l0 114.80315l-868.6929 0z" fill-rule="evenodd"/><path fill="#39b7c2" d="m212.37764 281.33096q-5.546875 0 -9.71875 -2.34375q-4.15625 -2.359375 -6.390625 -6.71875q-2.234375 -4.375 -2.234375 -10.25q0 -5.859375 2.234375 -10.20314q2.234375 -4.359375 6.390625 -6.703125q4.171875 -2.34375 9.71875 -2.34375q6.984375 0 12.046875 3.84375q0.796875 0.640625 1.109375 1.28125q0.328125 0.640625 0.328125 1.59375q0 1.390625 -0.78125 2.375q-0.765625 0.984375 -1.875 0.984375q-0.75 0 -1.3125 -0.1875q-0.5625 -0.1875 -1.25 -0.65625q-2.140625 -1.390625 -3.953125 -2.0q-1.8125 -0.625 -3.890625 -0.625q-5.125 0 -7.71875 3.171875q-2.578125 3.171875 -2.578125 9.468765q0 12.703125 10.296875 12.703125q1.96875 0 3.734375 -0.609375q1.765625 -0.625 4.109375 -2.015625q0.796875 -0.46875 1.328125 -0.65625q0.53125 -0.1875 1.234375 -0.1875q1.109375 0 1.875 0.984375q0.78125 0.984375 0.78125 2.375q0 0.953125 -0.34375 1.625q-0.34375 0.65625 -1.09375 1.25q-5.0625 3.84375 -12.046875 3.84375zm29.482437 -27.312515q5.765625 0 8.53125 2.8125153q2.78125 2.796875 2.78125 8.546875l0 12.0625q0 1.75 -1.015625 2.734375q-1.015625 0.984375 -2.828125 0.984375q-1.703125 0 -2.75 -1.03125q-1.03125 -1.046875 -1.03125 -2.6875l0 -0.375q-0.796875 1.96875 -2.671875 3.09375q-1.859375 1.109375 -4.375 1.109375q-2.65625 0 -4.828125 -1.0625q-2.15625 -1.0625 -3.40625 -2.984375q-1.25 -1.921875 -1.25 -4.265625q0 -2.875 1.453125 -4.53125q1.46875 -1.65625 4.71875 -2.40625q3.265625 -0.75 8.921875 -0.75l1.375 0l0 -0.953125q0 -2.234375 -0.984375 -3.25q-0.984375 -1.015625 -3.28125 -1.015625q-2.28125 0 -6.609375 1.59375q-1.21875 0.59375 -2.078125 0.59375q-1.171875 0 -1.875 -0.828125q-0.6875 -0.828125 -0.6875 -2.15625q0 -1.078125 0.484375 -1.765625q0.484375 -0.6875 1.546875 -1.28125q1.859375 -1.0156403 4.546875 -1.5937653q2.703125 -0.59375 5.3125 -0.59375zm-1.59375 21.70314q2.34375 0 3.78125 -1.5625q1.4375 -1.578125 1.4375 -4.078125l0 -0.90625l-0.90625 0q-4.3125 0 -6.046875 0.6875q-1.734375 0.6875 -1.734375 2.5q0 1.5 0.984375 2.4375q0.984375 0.921875 2.484375 0.921875zm28.85147 5.546875q-3.25 0 -5.65625 -0.53125q-2.40625 -0.53125 -4.21875 -1.703125q-0.796875 -0.484375 -1.21875 -1.28125q-0.421875 -0.796875 -0.421875 -1.8125q0 -1.21875 0.6875 -2.046875q0.6875 -0.828125 1.703125 -0.828125q0.703125 0 1.390625 0.234375q0.6875 0.234375 1.4375 0.5625q1.5 0.6875 2.9375 1.09375q1.4375 0.390625 3.5625 0.390625q1.875 0 2.90625 -0.578125q1.046875 -0.59375 1.046875 -1.59375q0 -0.75 -0.453125 -1.203125q-0.453125 -0.453125 -1.6875 -0.828125q-1.21875 -0.375 -3.890625 -0.90625q-4.734375 -0.90625 -6.828125 -2.71875q-2.078125 -1.8125 -2.078125 -5.0625q0 -2.40625 1.46875 -4.328125q1.46875 -1.921875 4.03125 -3.0156403q2.5625 -1.09375 5.75 -1.09375q2.296875 0 4.484375 0.59375q2.1875 0.578125 3.890625 1.6562653q1.65625 1.0 1.65625 2.984375q0 1.28125 -0.703125 2.140625q-0.6875 0.84375 -1.6875 0.84375q-1.234375 0 -2.9375 -0.96875q-1.328125 -0.6875 -2.421875 -1.03125q-1.09375 -0.34375 -2.59375 -0.34375q-1.65625 0 -2.625 0.609375q-0.953125 0.609375 -0.953125 1.671875q0 1.125 1.125 1.71875q1.125 0.578125 4.3125 1.171875q3.578125 0.6875 5.609375 1.671875q2.03125 0.984375 2.9375 2.484375q0.90625 1.5 0.90625 3.78125q0 3.796875 -3.125 6.03125q-3.125 2.234375 -8.34375 2.234375z" fill-rule="nonzero"/><path fill="#39b7c2" d="m297.1042 281.26846q-3.890625 0 -6.859375 -1.640625q-2.953125 -1.65625 -4.546875 -4.6875q-1.59375 -3.046875 -1.59375 -7.109375q0 -4.046875 1.671875 -7.15625q1.6875 -3.125 4.71875 -4.8281403q3.046875 -1.71875 6.984375 -1.71875q2.078125 0 4.1874695 0.59375q2.109375 0.578125 3.703125 1.5937653q1.71875 1.125 1.71875 2.828125q0 1.171875 -0.5625 1.890625q-0.5625 0.71875 -1.46875 0.71875q-0.59375 0 -1.234375 -0.265625q-0.625 -0.265625 -1.265625 -0.640625q-1.1718445 -0.6875 -2.2499695 -1.078125q-1.0625 -0.40625 -2.453125 -0.40625q-3.296875 0 -5.09375 2.15625q-1.78125 2.15625 -1.78125 6.203125q0 4.0 1.78125 6.171875q1.796875 2.15625 5.09375 2.15625q1.34375 0 2.375 -0.390625q1.046875 -0.40625 2.3280945 -1.109375q0.796875 -0.46875 1.375 -0.703125q0.59375 -0.25 1.171875 -0.25q0.859375 0 1.4375 0.75q0.59375 0.734375 0.59375 1.859375q0 0.90625 -0.40625 1.578125q-0.390625 0.65625 -1.296875 1.203125q-1.65625 1.0625 -3.8437195 1.671875q-2.1875 0.609375 -4.484375 0.609375zm25.758453 -27.14064q5.453125 0 8.078125 2.7031403q2.640625 2.6875 2.640625 8.171875l0 13.015625q0 1.4375 -0.859375 2.265625q-0.84375 0.828125 -2.328125 0.828125q-1.390625 0 -2.28125 -0.84375q-0.875 -0.859375 -0.875 -2.25l0 -1.171875q-0.90625 2.078125 -2.859375 3.25q-1.9375 1.171875 -4.5 1.171875q-2.609375 0 -4.75 -1.0625q-2.125 -1.0625 -3.359375 -2.921875q-1.21875 -1.875 -1.21875 -4.171875q0 -2.875 1.46875 -4.53125q1.46875 -1.65625 4.765625 -2.390625q3.3125 -0.75 9.125 -0.75l1.328125 0l0 -1.234375q0 -2.609375 -1.125 -3.8125q-1.109375 -1.203125 -3.609375 -1.203125q-1.546875 0 -3.15625 0.453125q-1.59375 0.453125 -3.78125 1.3125q-1.390625 0.6875 -2.03125 0.6875q-0.953125 0 -1.578125 -0.6875q-0.609375 -0.6875 -0.609375 -1.8125q0 -0.90625 0.453125 -1.5625q0.453125 -0.671875 1.515625 -1.265625q1.875 -1.0156403 4.453125 -1.5937653q2.59375 -0.59375 5.09375 -0.59375zm-1.640625 22.343765q2.65625 0 4.328125 -1.78125q1.6875 -1.796875 1.6875 -4.609375l0 -1.125l-0.953125 0q-3.578125 0 -5.546875 0.328125q-1.96875 0.3125 -2.828125 1.109375q-0.859375 0.796875 -0.859375 2.1875q0 1.703125 1.203125 2.796875q1.203125 1.09375 2.96875 1.09375zm40.89087 -33.48439q1.5 0 2.453125 0.859375q0.96875 0.84375 0.96875 2.234375l0 31.89064q0 1.4375 -0.90625 2.296875q-0.90625 0.84375 -2.40625 0.84375q-1.484375 0 -2.390625 -0.84375q-0.90625 -0.859375 -0.90625 -2.296875l0 -1.34375q-1.1875 2.1875 -3.40625 3.421875q-2.203125 1.21875 -5.03125 1.21875q-3.359375 0 -6.0 -1.703125q-2.640625 -1.703125 -4.109375 -4.8125q-1.453125 -3.125 -1.453125 -7.1875q0 -4.046875 1.453125 -7.078125q1.46875 -3.046875 4.078125 -4.7031403q2.625 -1.65625 6.03125 -1.65625q2.828125 0 5.015625 1.171875q2.1875 1.1718903 3.359375 3.3125153l0 -12.64064q0 -1.328125 0.875 -2.15625q0.890625 -0.828125 2.375 -0.828125zm-9.859375 33.10939q3.203125 0 4.9375 -2.1875q1.734375 -2.1875 1.734375 -6.234375q0 -4.046875 -1.734375 -6.203125q-1.734375 -2.171875 -4.890625 -2.171875q-3.1875 0 -4.953125 2.140625q-1.765625 2.125 -1.765625 6.125q0 4.0625 1.765625 6.296875q1.765625 2.234375 4.90625 2.234375zm23.45642 5.0625q-1.4375 0 -2.375 -0.8125q-0.921875 -0.828125 -0.921875 -2.375l0 -20.59375q0 -1.5468903 0.921875 -2.3437653q0.9375 -0.796875 2.375 -0.796875q1.453125 0 2.40625 0.796875q0.953125 0.796875 0.953125 2.3437653l0 20.59375q0 1.546875 -0.953125 2.375q-0.953125 0.8125 -2.40625 0.8125zm0 -31.67189q-1.8125 0 -2.890625 -0.984375q-1.0625 -0.984375 -1.0625 -2.59375q0 -1.59375 1.0625 -2.546875q1.078125 -0.96875 2.890625 -0.96875q1.765625 0 2.859375 0.96875q1.09375 0.953125 1.09375 2.546875q0 1.609375 -1.078125 2.59375q-1.0625 0.984375 -2.875 0.984375zm25.389038 4.640625q4.6875 0 6.984375 2.6718903q2.296875 2.65625 2.296875 8.046875l0 13.125q0 1.484375 -0.890625 2.34375q-0.875 0.84375 -2.421875 0.84375q-1.546875 0 -2.453125 -0.84375q-0.90625 -0.859375 -0.90625 -2.34375l0 -12.75q0 -3.046875 -1.140625 -4.421875q-1.140625 -1.390625 -3.59375 -1.390625q-2.890625 0 -4.625 1.8125q-1.734375 1.8125 -1.734375 4.859375l0 11.890625q0 1.484375 -0.90625 2.34375q-0.90625 0.84375 -2.453125 0.84375q-1.546875 0 -2.421875 -0.84375q-0.875 -0.859375 -0.875 -2.34375l0 -20.640625q0 -1.3906403 0.90625 -2.2343903q0.90625 -0.859375 2.453125 -0.859375q1.390625 0 2.265625 0.828125q0.875 0.828125 0.875 2.1562653l0 1.4375q1.34375 -2.1875 3.578125 -3.3593903q2.234375 -1.171875 5.0625 -1.171875zm38.1344 0.109375q1.484375 0 2.390625 0.859375q0.90625 0.84375 0.90625 2.2812653l0 21.0625q0 6.140625 -3.40625 9.28125q-3.40625 3.15625 -10.078125 3.15625q-5.8125 0 -9.703125 -2.1875q-1.984375 -1.171875 -1.984375 -2.828125q0 -1.171875 0.5625 -1.875q0.5625 -0.6875 1.46875 -0.6875q0.484375 0 1.171875 0.234375q0.703125 0.25 1.4375 0.5625q1.921875 0.796875 3.4375 1.21875q1.53125 0.4375 3.5 0.4375q6.984375 0 6.984375 -6.828125l0 -3.40625q-1.171875 2.1875 -3.421875 3.390625q-2.234375 1.1875 -5.109375 1.1875q-3.40625 0 -6.046875 -1.625q-2.640625 -1.625 -4.140625 -4.546875q-1.484375 -2.9375 -1.484375 -6.78125q0 -3.84375 1.453125 -6.796875q1.46875 -2.96875 4.140625 -4.5937653q2.671875 -1.625 6.078125 -1.625q2.875 0 5.109375 1.203125q2.25 1.2031403 3.421875 3.3906403l0 -1.390625q0 -1.3906403 0.90625 -2.2343903q0.90625 -0.859375 2.40625 -0.859375zm-10.078125 20.687515q3.203125 0 4.984375 -2.078125q1.78125 -2.078125 1.78125 -5.703125q0 -3.6875 -1.78125 -5.765625q-1.78125 -2.078125 -4.984375 -2.078125q-3.15625 0 -4.96875 2.078125q-1.8125 2.078125 -1.8125 5.765625q0 3.625 1.8125 5.703125q1.8125 2.078125 4.96875 2.078125z" fill-rule="nonzero"/><path fill="#153570" d="m477.6831 281.33096q-4.21875 0 -7.84375 -0.984375q-3.625 -1.0 -5.921875 -2.8125q-0.796875 -0.578125 -1.140625 -1.234375q-0.34375 -0.671875 -0.34375 -1.6875q0 -1.34375 0.8125 -2.34375q0.828125 -1.015625 1.90625 -1.015625q0.578125 0 1.140625 0.1875q0.5625 0.1875 1.359375 0.65625q2.296875 1.4375 4.640625 2.109375q2.34375 0.671875 5.171875 0.671875q3.515625 0 5.375 -1.171875q1.875 -1.171875 1.875 -3.359375q0 -1.65625 -1.734375 -2.671875q-1.734375 -1.015625 -6.15625 -1.921875q-4.953125 -1.015625 -7.921875 -2.453125q-2.953125 -1.4375 -4.3125 -3.5625q-1.359375 -2.140625 -1.359375 -5.1875153q0 -3.359375 1.9375 -6.046875q1.953125 -2.6875 5.390625 -4.203125q3.4375 -1.53125 7.765625 -1.53125q7.5625 0 12.46875 3.78125q0.8125 0.640625 1.15625 1.3125q0.34375 0.671875 0.34375 1.625q0 1.328125 -0.828125 2.34375q-0.828125 1.015625 -1.890625 1.015625q-0.59375 0 -1.09375 -0.15625q-0.5 -0.15625 -1.421875 -0.6875q-2.171875 -1.390625 -4.015625 -2.078125q-1.84375 -0.703125 -4.671875 -0.703125q-3.25 0 -5.125 1.265625q-1.859375 1.25 -1.859375 3.421875q0 1.28125 0.71875 2.1093903q0.71875 0.828125 2.390625 1.46875q1.6875 0.640625 4.78125 1.328125q7.25 1.609375 10.421875 4.125q3.1875 2.5 3.1875 6.875q0 3.40625 -1.90625 6.015625q-1.890625 2.609375 -5.328125 4.0625q-3.4375 1.4375 -7.96875 1.4375z" fill-rule="nonzero"/><path fill="#153570" d="m512.13403 276.20596q2.65625 0.15625 2.65625 2.40625q0 1.28125 -1.046875 1.953125q-1.03125 0.65625 -2.953125 0.546875l-1.4375 -0.109375q-8.953125 -0.640625 -8.953125 -9.59375l0 -11.625l-2.671875 0q-1.4375 0 -2.21875 -0.640625q-0.765625 -0.640625 -0.765625 -1.875q0 -1.21875 0.765625 -1.8593903q0.78125 -0.640625 2.21875 -0.640625l2.671875 0l0 -4.90625q0 -1.4375 0.90625 -2.28125q0.90625 -0.859375 2.453125 -0.859375q1.484375 0 2.390625 0.859375q0.921875 0.84375 0.921875 2.28125l0 4.90625l4.53125 0q1.4375 0 2.203125 0.640625q0.78125 0.64064026 0.78125 1.8593903q0 1.234375 -0.78125 1.875q-0.765625 0.640625 -2.203125 0.640625l-4.53125 0l0 12.109375q0 3.9375 3.625 4.203125l1.4375 0.109375zm24.745361 -20.046875q0.421875 -0.96876526 1.140625 -1.4218903q0.71875 -0.453125 1.578125 -0.453125q1.21875 0 2.203125 0.828125q1.0 0.828125 1.0 2.0625153q0 0.578125 -0.328125 1.21875l-14.5625 30.5q-0.90625 1.8125 -2.828125 1.8125q-1.21875 0 -2.15625 -0.78125q-0.9375 -0.765625 -0.9375 -1.9375q0 -0.578125 0.328125 -1.328125l3.625 -7.625l-9.921875 -20.640625q-0.265625 -0.53125 -0.265625 -1.21875q0 -1.2343903 1.03125 -2.0781403q1.046875 -0.859375 2.390625 -0.859375q0.90625 0 1.640625 0.453125q0.75 0.453125 1.171875 1.4062653l7.46875 16.484375l7.421875 -16.421875zm14.066589 25.0q-1.4375 0 -2.375 -0.8125q-0.921875 -0.828125 -0.921875 -2.375l0 -31.843765q0 -1.546875 0.921875 -2.34375q0.9375 -0.796875 2.375 -0.796875q1.453125 0 2.40625 0.796875q0.953125 0.796875 0.953125 2.34375l0 31.843765q0 1.546875 -0.953125 2.375q-0.953125 0.8125 -2.40625 0.8125zm30.8891 -7.453125q0.90625 0 1.453125 0.6875q0.5625 0.6875 0.5625 1.859375q0 1.65625 -1.96875 2.78125q-1.8125 1.015625 -4.109375 1.625q-2.28125 0.609375 -4.375 0.609375q-6.28125 0 -9.96875 -3.625q-3.671875 -3.625 -3.671875 -9.921875q0 -4.0 1.59375 -7.078125q1.59375 -3.09375 4.5 -4.7968903q2.90625 -1.71875 6.59375 -1.71875q3.515625 0 6.125 1.546875q2.625 1.5468903 4.0625 4.3750153q1.4375 2.828125 1.4375 6.671875q0 2.28125 -2.03125 2.28125l-15.734375 0q0.328125 3.6875 2.078125 5.421875q1.765625 1.734375 5.125 1.734375q1.703125 0 3.015625 -0.421875q1.3125 -0.4375 2.96875 -1.1875q1.59375 -0.84375 2.34375 -0.84375zm-9.234375 -14.890625q-2.71875 0 -4.34375 1.71875q-1.625 1.703125 -1.953125 4.90625l12.0625 0q-0.109375 -3.265625 -1.609375 -4.9375q-1.484375 -1.6875 -4.15625 -1.6875z" fill-rule="nonzero"/><path fill="#ff8900" d="m618.20264 281.33096q-4.21875 0 -7.84375 -0.984375q-3.625 -1.0 -5.921875 -2.8125q-0.796875 -0.578125 -1.140625 -1.234375q-0.34375 -0.671875 -0.34375 -1.6875q0 -1.34375 0.8125 -2.34375q0.828125 -1.015625 1.90625 -1.015625q0.578125 0 1.140625 0.1875q0.5625 0.1875 1.359375 0.65625q2.296875 1.4375 4.640625 2.109375q2.34375 0.671875 5.171875 0.671875q3.515625 0 5.375 -1.171875q1.875 -1.171875 1.875 -3.359375q0 -1.65625 -1.734375 -2.671875q-1.734375 -1.015625 -6.15625 -1.921875q-4.953125 -1.015625 -7.921875 -2.453125q-2.953125 -1.4375 -4.3125 -3.5625q-1.359375 -2.140625 -1.359375 -5.1875153q0 -3.359375 1.9375 -6.046875q1.953125 -2.6875 5.390625 -4.203125q3.4375 -1.53125 7.765625 -1.53125q7.5625 0 12.46875 3.78125q0.8125 0.640625 1.15625 1.3125q0.34375 0.671875 0.34375 1.625q0 1.328125 -0.828125 2.34375q-0.828125 1.015625 -1.890625 1.015625q-0.59375 0 -1.09375 -0.15625q-0.5 -0.15625 -1.421875 -0.6875q-2.171875 -1.390625 -4.015625 -2.078125q-1.84375 -0.703125 -4.671875 -0.703125q-3.25 0 -5.125 1.265625q-1.859375 1.25 -1.859375 3.421875q0 1.28125 0.71875 2.1093903q0.71875 0.828125 2.390625 1.46875q1.6875 0.640625 4.78125 1.328125q7.25 1.609375 10.421875 4.125q3.1875 2.5 3.1875 6.875q0 3.40625 -1.90625 6.015625q-1.890625 2.609375 -5.328125 4.0625q-3.4375 1.4375 -7.96875 1.4375z" fill-rule="nonzero"/><path fill="#ff8900" d="m654.3567 254.12782q9.171875 0 9.171875 10.718765l0 13.125q0 1.484375 -0.890625 2.34375q-0.875 0.84375 -2.421875 0.84375q-1.546875 0 -2.453125 -0.84375q-0.90625 -0.859375 -0.90625 -2.34375l0 -13.125q0 -2.828125 -1.140625 -4.125q-1.140625 -1.3125 -3.59375 -1.3125q-2.890625 0 -4.625 1.8125q-1.734375 1.8125 -1.734375 4.859375l0 11.890625q0 1.484375 -0.90625 2.34375q-0.90625 0.84375 -2.453125 0.84375q-1.546875 0 -2.421875 -0.84375q-0.875 -0.859375 -0.875 -2.34375l0 -31.89064q0 -1.390625 0.921875 -2.234375q0.9375 -0.859375 2.4375 -0.859375q1.484375 0 2.390625 0.796875q0.90625 0.796875 0.90625 2.1875l0 12.42189q1.34375 -2.078125 3.546875 -3.1718903q2.21875 -1.09375 5.046875 -1.09375zm36.587524 19.57814q0.90625 0 1.453125 0.6875q0.5625 0.6875 0.5625 1.859375q0 1.65625 -1.96875 2.78125q-1.8125 1.015625 -4.109375 1.625q-2.28125 0.609375 -4.375 0.609375q-6.28125 0 -9.96875 -3.625q-3.671875 -3.625 -3.671875 -9.921875q0 -4.0 1.59375 -7.078125q1.59375 -3.09375 4.5 -4.7968903q2.90625 -1.71875 6.59375 -1.71875q3.515625 0 6.125 1.546875q2.625 1.5468903 4.0625 4.3750153q1.4375 2.828125 1.4375 6.671875q0 2.28125 -2.03125 2.28125l-15.734375 0q0.328125 3.6875 2.078125 5.421875q1.765625 1.734375 5.125 1.734375q1.703125 0 3.015625 -0.421875q1.3125 -0.4375 2.96875 -1.1875q1.59375 -0.84375 2.34375 -0.84375zm-9.234375 -14.890625q-2.71875 0 -4.34375 1.71875q-1.625 1.703125 -1.953125 4.90625l12.0625 0q-0.109375 -3.265625 -1.609375 -4.9375q-1.484375 -1.6875 -4.15625 -1.6875zm37.551575 14.890625q0.90625 0 1.453125 0.6875q0.5625 0.6875 0.5625 1.859375q0 1.65625 -1.96875 2.78125q-1.8125 1.015625 -4.109375 1.625q-2.28125 0.609375 -4.375 0.609375q-6.28125 0 -9.96875 -3.625q-3.671875 -3.625 -3.671875 -9.921875q0 -4.0 1.59375 -7.078125q1.59375 -3.09375 4.5 -4.7968903q2.90625 -1.71875 6.59375 -1.71875q3.515625 0 6.125 1.546875q2.625 1.5468903 4.0625 4.3750153q1.4375 2.828125 1.4375 6.671875q0 2.28125 -2.03125 2.28125l-15.734375 0q0.328125 3.6875 2.078125 5.421875q1.765625 1.734375 5.125 1.734375q1.703125 0 3.015625 -0.421875q1.3125 -0.4375 2.96875 -1.1875q1.59375 -0.84375 2.34375 -0.84375zm-9.234375 -14.890625q-2.71875 0 -4.34375 1.71875q-1.625 1.703125 -1.953125 4.90625l12.0625 0q-0.109375 -3.265625 -1.609375 -4.9375q-1.484375 -1.6875 -4.15625 -1.6875zm30.084473 17.390625q2.65625 0.15625 2.65625 2.40625q0 1.28125 -1.046875 1.953125q-1.03125 0.65625 -2.953125 0.546875l-1.4375 -0.109375q-8.953125 -0.640625 -8.953125 -9.59375l0 -11.625l-2.671875 0q-1.4375 0 -2.21875 -0.640625q-0.765625 -0.640625 -0.765625 -1.875q0 -1.21875 0.765625 -1.8593903q0.78125 -0.640625 2.21875 -0.640625l2.671875 0l0 -4.90625q0 -1.4375 0.90625 -2.28125q0.90625 -0.859375 2.453125 -0.859375q1.484375 0 2.390625 0.859375q0.921875 0.84375 0.921875 2.28125l0 4.90625l4.53125 0q1.4375 0 2.203125 0.640625q0.78125 0.64064026 0.78125 1.8593903q0 1.234375 -0.78125 1.875q-0.765625 0.640625 -2.203125 0.640625l-4.53125 0l0 12.109375q0 3.9375 3.625 4.203125l1.4375 0.109375zm15.568665 5.0625q-5.8125 0 -9.390625 -2.28125q-1.703125 -1.015625 -1.703125 -2.890625q0 -1.0625 0.578125 -1.71875q0.59375 -0.671875 1.453125 -0.671875q0.90625 0 2.5 0.84375q1.703125 0.796875 3.109375 1.234375q1.421875 0.421875 3.609375 0.421875q2.25 0 3.5 -0.734375q1.25 -0.75 1.25 -2.09375q0 -0.90625 -0.515625 -1.4375q-0.5 -0.53125 -1.8125 -0.984375q-1.296875 -0.453125 -3.96875 -1.046875q-4.75 -0.953125 -6.796875 -2.703125q-2.046875 -1.765625 -2.046875 -4.859375q0 -2.34375 1.375 -4.234375q1.390625 -1.90625 3.8125 -2.9375153q2.4375 -1.046875 5.53125 -1.046875q2.234375 0 4.3125 0.5625q2.078125 0.5625 3.734375 1.6250153q1.703125 1.0625 1.703125 2.828125q0 1.0625 -0.59375 1.78125q-0.578125 0.71875 -1.421875 0.71875q-0.59375 0 -1.15625 -0.234375q-0.5625 -0.234375 -1.40625 -0.71875q-1.546875 -0.796875 -2.671875 -1.203125q-1.125 -0.40625 -2.765625 -0.40625q-1.984375 0 -3.125 0.8125q-1.140625 0.796875 -1.140625 2.1875q0 1.328125 1.171875 2.03125q1.171875 0.6875 4.53125 1.375q3.5625 0.75 5.59375 1.71875q2.03125 0.953125 2.90625 2.390625q0.875 1.4375 0.875 3.671875q0 3.625 -3.015625 5.8125q-3.0 2.1875 -8.015625 2.1875z" fill-rule="nonzero"/><path fill="#000000" fill-opacity="0.0" d="m95.11976 358.9813l268.56693 0l0 59.055115l-268.56693 0z" fill-rule="evenodd"/><path fill="#39b7c2" d="m121.14859 384.58508q-1.421875 0 -2.703125 -0.390625q-1.265625 -0.40625 -2.03125 -1.09375q-0.359375 -0.296875 -0.359375 -0.765625q0 -0.328125 0.1875 -0.5625q0.1875 -0.234375 0.453125 -0.234375q0.25 0 0.625 0.234375q1.671875 1.234375 3.796875 1.234375q1.484375 0 2.28125 -0.546875q0.8125 -0.5625 0.8125 -1.609375q0 -0.828125 -0.75 -1.234375q-0.75 -0.40625 -2.390625 -0.78125q-1.5625 -0.34375 -2.578125 -0.765625q-1.0 -0.4375 -1.578125 -1.171875q-0.5625 -0.734375 -0.5625 -1.875q0 -1.140625 0.625 -2.015625q0.625 -0.890625 1.75 -1.375q1.125 -0.5 2.546875 -0.5q1.328125 0 2.453125 0.375q1.125 0.359375 1.90625 1.09375q0.375 0.3125 0.375 0.765625q0 0.3125 -0.203125 0.5625q-0.203125 0.234375 -0.453125 0.234375q-0.25 0 -0.625 -0.234375q-0.859375 -0.65625 -1.609375 -0.9375q-0.75 -0.296875 -1.8125 -0.296875q-1.4375 0 -2.25 0.59375q-0.796875 0.578125 -0.796875 1.625q0 0.890625 0.703125 1.359375q0.71875 0.453125 2.28125 0.828125q1.640625 0.375 2.65625 0.78125q1.015625 0.390625 1.625 1.09375q0.609375 0.703125 0.609375 1.796875q0 1.125 -0.625 2.0q-0.625 0.859375 -1.765625 1.34375q-1.125 0.46875 -2.59375 0.46875zm11.494751 -1.5q0.40625 0.03125 0.578125 0.21875q0.1875 0.171875 0.1875 0.484375q0 0.375 -0.296875 0.578125q-0.28125 0.1875 -0.84375 0.15625l-0.5 -0.03125q-1.515625 -0.125 -2.265625 -0.921875q-0.734375 -0.8125 -0.734375 -2.40625l0 -4.390625l-1.125 0q-0.828125 0 -0.828125 -0.71875q0 -0.34375 0.21875 -0.53125q0.21875 -0.203125 0.609375 -0.203125l1.125 0l0 -1.921875q0 -0.421875 0.25 -0.65625q0.25 -0.25 0.671875 -0.25q0.4375 0 0.6875 0.25q0.265625 0.234375 0.265625 0.65625l0 1.921875l1.84375 0q0.390625 0 0.609375 0.203125q0.21875 0.1875 0.21875 0.53125q0 0.359375 -0.21875 0.546875q-0.21875 0.171875 -0.609375 0.171875l-1.84375 0l0 4.515625q0 0.890625 0.359375 1.296875q0.375 0.40625 1.125 0.46875l0.515625 0.03125zm8.731949 -7.390625q0.109375 -0.28125 0.328125 -0.40625q0.21875 -0.125 0.453125 -0.125q0.359375 0 0.625 0.25q0.265625 0.234375 0.265625 0.5625q0 0.1875 -0.0625 0.359375l-5.1875 11.0q-0.125 0.265625 -0.34375 0.40625q-0.203125 0.140625 -0.4375 0.140625q-0.34375 0 -0.625 -0.234375q-0.265625 -0.21875 -0.265625 -0.546875q0 -0.15625 0.09375 -0.375l1.296875 -2.75l-3.609375 -7.640625q-0.0625 -0.15625 -0.0625 -0.34375q0 -0.34375 0.296875 -0.578125q0.296875 -0.25 0.671875 -0.25q0.546875 0 0.796875 0.515625l2.890625 6.421875l2.875 -6.40625zm4.449997 8.828125q-0.40625 0 -0.671875 -0.21875q-0.265625 -0.234375 -0.265625 -0.671875l0 -11.53125q0 -0.453125 0.265625 -0.6875q0.265625 -0.234375 0.671875 -0.234375q0.421875 0 0.671875 0.234375q0.265625 0.234375 0.265625 0.6875l0 11.53125q0 0.4375 -0.265625 0.671875q-0.25 0.21875 -0.671875 0.21875zm10.702316 -2.390625q0.25 0 0.421875 0.203125q0.171875 0.203125 0.171875 0.53125q0 0.53125 -0.671875 0.90625q-0.65625 0.375 -1.4375 0.578125q-0.765625 0.203125 -1.46875 0.203125q-2.171875 0 -3.421875 -1.25q-1.25 -1.265625 -1.25 -3.453125q0 -1.390625 0.546875 -2.46875q0.5625 -1.09375 1.546875 -1.6875q1.0 -0.59375 2.28125 -0.59375q1.828125 0 2.890625 1.171875q1.0625 1.171875 1.0625 3.171875q0 0.75 -0.671875 0.75l-5.765625 0q0.1875 2.890625 2.78125 2.890625q0.6875 0 1.1875 -0.1875q0.5 -0.1875 1.0625 -0.484375q0.0625 -0.03125 0.3125 -0.15625q0.25 -0.125 0.421875 -0.125zm-3.25 -5.65625q-1.078125 0 -1.734375 0.703125q-0.65625 0.6875 -0.78125 1.9375l4.8125 0q-0.0625 -1.265625 -0.65625 -1.953125q-0.578125 -0.6875 -1.640625 -0.6875zm9.166031 8.078125q-1.90625 0 -3.125 -0.78125q-0.328125 -0.203125 -0.46875 -0.421875q-0.140625 -0.234375 -0.140625 -0.5q0 -0.3125 0.15625 -0.515625q0.171875 -0.203125 0.4375 -0.203125q0.234375 0 0.765625 0.296875q0.5625 0.296875 1.09375 0.484375q0.53125 0.1875 1.328125 0.1875q0.890625 0 1.390625 -0.3125q0.515625 -0.3125 0.515625 -0.890625q0 -0.375 -0.203125 -0.59375q-0.1875 -0.234375 -0.671875 -0.40625q-0.484375 -0.1875 -1.4375 -0.390625q-1.640625 -0.34375 -2.359375 -0.953125q-0.71875 -0.609375 -0.71875 -1.65625q0 -0.796875 0.46875 -1.4375q0.46875 -0.65625 1.28125 -1.0q0.828125 -0.359375 1.875 -0.359375q0.734375 0 1.4375 0.203125q0.71875 0.1875 1.265625 0.5625q0.609375 0.40625 0.609375 0.953125q0 0.296875 -0.1875 0.5q-0.171875 0.203125 -0.40625 0.203125q-0.171875 0 -0.34375 -0.0625q-0.15625 -0.078125 -0.4375 -0.25q-0.515625 -0.296875 -0.953125 -0.46875q-0.4375 -0.171875 -1.078125 -0.171875q-0.796875 0 -1.28125 0.34375q-0.46875 0.328125 -0.46875 0.90625q0 0.53125 0.4375 0.828125q0.453125 0.28125 1.65625 0.53125q1.25 0.265625 1.953125 0.609375q0.71875 0.328125 1.015625 0.828125q0.3125 0.484375 0.3125 1.25q0 1.21875 -1.015625 1.953125q-1.015625 0.734375 -2.703125 0.734375zm14.698807 0q-1.34375 0 -2.359375 -0.578125q-1.015625 -0.578125 -1.578125 -1.640625q-0.546875 -1.078125 -0.546875 -2.5q0 -1.4375 0.546875 -2.5q0.5625 -1.078125 1.578125 -1.65625q1.015625 -0.578125 2.359375 -0.578125q1.34375 0 2.359375 0.578125q1.015625 0.578125 1.5625 1.65625q0.546875 1.0625 0.546875 2.5q0 1.421875 -0.546875 2.5q-0.546875 1.0625 -1.5625 1.640625q-1.015625 0.578125 -2.359375 0.578125zm0 -1.484375q1.25 0 1.90625 -0.8125q0.65625 -0.828125 0.65625 -2.421875q0 -1.5625 -0.671875 -2.390625q-0.65625 -0.828125 -1.890625 -0.828125q-1.234375 0 -1.90625 0.828125q-0.671875 0.828125 -0.671875 2.390625q0 1.59375 0.65625 2.421875q0.671875 0.8125 1.921875 0.8125zm12.907089 -7.375q0.109375 -0.28125 0.328125 -0.40625q0.21875 -0.125 0.453125 -0.125q0.359375 0 0.625 0.25q0.265625 0.234375 0.265625 0.5625q0 0.1875 -0.0625 0.359375l-3.5625 7.546875q-0.140625 0.296875 -0.40625 0.46875q-0.265625 0.15625 -0.578125 0.15625q-0.296875 0 -0.5625 -0.15625q-0.265625 -0.171875 -0.40625 -0.46875l-3.5625 -7.546875q-0.0625 -0.15625 -0.0625 -0.359375q0 -0.328125 0.296875 -0.5625q0.296875 -0.25 0.671875 -0.25q0.53125 0 0.796875 0.515625l2.890625 6.421875l2.875 -6.40625zm10.226837 6.4375q0.25 0 0.421875 0.203125q0.171875 0.203125 0.171875 0.53125q0 0.53125 -0.671875 0.90625q-0.65625 0.375 -1.4375 0.578125q-0.765625 0.203125 -1.46875 0.203125q-2.171875 0 -3.421875 -1.25q-1.25 -1.265625 -1.25 -3.453125q0 -1.390625 0.546875 -2.46875q0.5625 -1.09375 1.546875 -1.6875q1.0 -0.59375 2.28125 -0.59375q1.828125 0 2.890625 1.171875q1.0625 1.171875 1.0625 3.171875q0 0.75 -0.671875 0.75l-5.765625 0q0.1875 2.890625 2.78125 2.890625q0.6875 0 1.1875 -0.1875q0.5 -0.1875 1.0625 -0.484375q0.0625 -0.03125 0.3125 -0.15625q0.25 -0.125 0.421875 -0.125zm-3.25 -5.65625q-1.078125 0 -1.734375 0.703125q-0.65625 0.6875 -0.78125 1.9375l4.8125 0q-0.0625 -1.265625 -0.65625 -1.953125q-0.578125 -0.6875 -1.640625 -0.6875zm10.759781 -1.34375q0.90625 -0.046875 0.90625 0.765625q0 0.421875 -0.21875 0.625q-0.203125 0.203125 -0.703125 0.234375l-0.5625 0.0625q-1.171875 0.109375 -1.75 0.828125q-0.5625 0.703125 -0.5625 1.703125l0 4.28125q0 0.4375 -0.265625 0.671875q-0.25 0.21875 -0.671875 0.21875q-0.40625 0 -0.671875 -0.21875q-0.265625 -0.234375 -0.265625 -0.671875l0 -7.59375q0 -0.4375 0.265625 -0.671875q0.265625 -0.234375 0.671875 -0.234375q0.375 0 0.625 0.234375q0.265625 0.234375 0.265625 0.65625l0 0.890625q0.359375 -0.828125 1.0625 -1.25q0.71875 -0.4375 1.625 -0.5l0.25 -0.03125zm3.000061 9.390625q-0.40625 0 -0.671875 -0.21875q-0.265625 -0.234375 -0.265625 -0.671875l0 -11.53125q0 -0.453125 0.265625 -0.6875q0.265625 -0.234375 0.671875 -0.234375q0.421875 0 0.671875 0.234375q0.265625 0.234375 0.265625 0.6875l0 11.53125q0 0.4375 -0.265625 0.671875q-0.25 0.21875 -0.671875 0.21875zm7.3898163 -9.421875q1.8125 0 2.703125 0.921875q0.890625 0.90625 0.890625 2.765625l0 4.84375q0 0.421875 -0.25 0.65625q-0.234375 0.234375 -0.671875 0.234375q-0.40625 0 -0.65625 -0.234375q-0.234375 -0.25 -0.234375 -0.65625l0 -0.703125q-0.359375 0.796875 -1.0625 1.21875q-0.6875 0.40625 -1.625 0.40625q-0.890625 0 -1.640625 -0.359375q-0.734375 -0.359375 -1.171875 -0.984375q-0.421875 -0.640625 -0.421875 -1.453125q-0.015625 -1.0 0.5 -1.5625q0.53125 -0.578125 1.703125 -0.828125q1.171875 -0.25 3.265625 -0.25l0.4375 0l0 -0.546875q0 -1.046875 -0.4375 -1.5q-0.421875 -0.46875 -1.375 -0.46875q-0.65625 0 -1.234375 0.171875q-0.578125 0.15625 -1.265625 0.46875q-0.5 0.28125 -0.71875 0.28125q-0.28125 0 -0.453125 -0.203125q-0.171875 -0.203125 -0.171875 -0.515625q0 -0.28125 0.15625 -0.5q0.15625 -0.21875 0.515625 -0.421875q0.65625 -0.359375 1.53125 -0.5625q0.875 -0.21875 1.6875 -0.21875zm-0.578125 8.0625q1.03125 0 1.6875 -0.703125q0.65625 -0.703125 0.65625 -1.796875l0 -0.484375l-0.34375 0q-1.453125 0 -2.234375 0.125q-0.78125 0.125 -1.125 0.4375q-0.328125 0.3125 -0.328125 0.890625q0 0.671875 0.484375 1.109375q0.484375 0.421875 1.203125 0.421875zm11.621719 -8.0625q1.1875 0 2.109375 0.59375q0.921875 0.59375 1.4375 1.6875q0.515625 1.078125 0.515625 2.5q0 1.390625 -0.515625 2.453125q-0.5 1.0625 -1.421875 1.640625q-0.921875 0.578125 -2.125 0.578125q-1.015625 0 -1.8125 -0.4375q-0.78125 -0.4375 -1.1875 -1.25l0 4.15625q0 0.390625 -0.25 0.625q-0.25 0.234375 -0.65625 0.234375q-0.4375 0 -0.703125 -0.25q-0.265625 -0.234375 -0.265625 -0.640625l0 -10.9375q0 -0.40625 0.25 -0.65625q0.265625 -0.265625 0.6875 -0.265625q0.421875 0 0.671875 0.265625q0.265625 0.25 0.265625 0.65625l0 0.765625q0.40625 -0.828125 1.1875 -1.265625q0.796875 -0.453125 1.8125 -0.453125zm-0.4375 7.96875q1.234375 0 1.90625 -0.828125q0.671875 -0.828125 0.671875 -2.359375q0 -1.546875 -0.6875 -2.40625q-0.6875 -0.859375 -1.890625 -0.859375q-1.234375 0 -1.90625 0.84375q-0.65625 0.828125 -0.65625 2.375q0 1.546875 0.65625 2.390625q0.671875 0.84375 1.90625 0.84375zm15.326111 -7.96875q1.8125 0 2.703125 0.921875q0.890625 0.90625 0.890625 2.765625l0 4.84375q0 0.421875 -0.25 0.65625q-0.234375 0.234375 -0.671875 0.234375q-0.40625 0 -0.65625 -0.234375q-0.234375 -0.25 -0.234375 -0.65625l0 -0.703125q-0.359375 0.796875 -1.0625 1.21875q-0.6875 0.40625 -1.625 0.40625q-0.890625 0 -1.640625 -0.359375q-0.734375 -0.359375 -1.171875 -0.984375q-0.421875 -0.640625 -0.421875 -1.453125q-0.015625 -1.0 0.5 -1.5625q0.53125 -0.578125 1.703125 -0.828125q1.171875 -0.25 3.265625 -0.25l0.4375 0l0 -0.546875q0 -1.046875 -0.4375 -1.5q-0.421875 -0.46875 -1.375 -0.46875q-0.65625 0 -1.234375 0.171875q-0.578125 0.15625 -1.265625 0.46875q-0.5 0.28125 -0.71875 0.28125q-0.28125 0 -0.453125 -0.203125q-0.171875 -0.203125 -0.171875 -0.515625q0 -0.28125 0.15625 -0.5q0.15625 -0.21875 0.515625 -0.421875q0.65625 -0.359375 1.53125 -0.5625q0.875 -0.21875 1.6875 -0.21875zm-0.578125 8.0625q1.03125 0 1.6875 -0.703125q0.65625 -0.703125 0.65625 -1.796875l0 -0.484375l-0.34375 0q-1.453125 0 -2.234375 0.125q-0.78125 0.125 -1.125 0.4375q-0.328125 0.3125 -0.328125 0.890625q0 0.671875 0.484375 1.109375q0.484375 0.421875 1.203125 0.421875zm11.652954 -8.0625q3.2656097 0 3.2656097 3.671875l0 4.859375q0 0.421875 -0.265625 0.65625q-0.25 0.234375 -0.6875 0.234375q-0.4375 0 -0.6875 -0.234375q-0.25 -0.25 -0.25 -0.65625l0 -4.765625q0 -1.15625 -0.46875 -1.6875q-0.45310974 -0.546875 -1.4218597 -0.546875q-1.125 0 -1.828125 0.71875q-0.6875 0.703125 -0.6875 1.890625l0 4.390625q0 0.40625 -0.25 0.65625q-0.25 0.234375 -0.6875 0.234375q-0.421875 0 -0.6875 -0.234375q-0.25 -0.25 -0.25 -0.65625l0 -7.59375q0 -0.390625 0.265625 -0.640625q0.265625 -0.265625 0.671875 -0.265625q0.421875 0 0.65625 0.25q0.25 0.234375 0.25 0.640625l0 0.75q0.4375 -0.8125 1.234375 -1.234375q0.8125 -0.4375 1.828125 -0.4375zm13.277237 -3.921875q0.421875 0 0.6875 0.25q0.265625 0.234375 0.265625 0.65625l0 11.515625q0 0.4375 -0.25 0.6875q-0.25 0.234375 -0.6875 0.234375q-0.421875 0 -0.6875 -0.234375q-0.25 -0.25 -0.25 -0.6875l0 -0.734375q-0.40625 0.8125 -1.1875 1.25q-0.78125 0.4375 -1.8125 0.4375q-1.171875 0 -2.09375 -0.59375q-0.921875 -0.59375 -1.4375 -1.671875q-0.515625 -1.09375 -0.515625 -2.484375q0 -1.421875 0.515625 -2.484375q0.515625 -1.0625 1.421875 -1.640625q0.921875 -0.578125 2.109375 -0.578125q1.03125 0 1.796875 0.4375q0.78125 0.4375 1.1875 1.234375l0 -4.734375q0 -0.390625 0.25 -0.625q0.265625 -0.234375 0.6875 -0.234375zm-3.46875 11.890625q1.21875 0 1.875 -0.84375q0.671875 -0.84375 0.671875 -2.390625q0 -1.546875 -0.65625 -2.375q-0.65625 -0.84375 -1.890625 -0.84375q-1.234375 0 -1.921875 0.828125q-0.671875 0.828125 -0.671875 2.359375q0 1.53125 0.6875 2.40625q0.6875 0.859375 1.90625 0.859375zm15.872986 1.484375q-1.328125 0 -2.328125 -0.578125q-0.984375 -0.578125 -1.546875 -1.640625q-0.546875 -1.0625 -0.546875 -2.453125q0 -1.421875 0.5625 -2.5q0.578125 -1.09375 1.59375 -1.6875q1.03125 -0.59375 2.359375 -0.59375q0.703125 0 1.421875 0.203125q0.71875 0.203125 1.28125 0.5625q0.59375 0.40625 0.59375 0.953125q0 0.3125 -0.171875 0.53125q-0.15625 0.21875 -0.421875 0.21875q-0.171875 0 -0.34375 -0.078125q-0.15625 -0.09375 -0.421875 -0.265625q-0.46875 -0.296875 -0.875 -0.453125q-0.390625 -0.15625 -0.953125 -0.15625q-1.265625 0 -1.96875 0.859375q-0.6875 0.859375 -0.6875 2.375q0 1.53125 0.6875 2.375q0.6875 0.828125 1.953125 0.828125q0.5625 0 0.984375 -0.171875q0.4375 -0.171875 0.875 -0.453125q0.21875 -0.125 0.421875 -0.21875q0.203125 -0.09375 0.375 -0.09375q0.25 0 0.421875 0.21875q0.171875 0.203125 0.171875 0.53125q0 0.25 -0.140625 0.46875q-0.140625 0.21875 -0.484375 0.4375q-0.546875 0.375 -1.296875 0.578125q-0.75 0.203125 -1.515625 0.203125zm8.932831 -9.453125q1.8125 0 2.703125 0.921875q0.890625 0.90625 0.890625 2.765625l0 4.84375q0 0.421875 -0.25 0.65625q-0.234375 0.234375 -0.671875 0.234375q-0.40625 0 -0.65625 -0.234375q-0.234375 -0.25 -0.234375 -0.65625l0 -0.703125q-0.359375 0.796875 -1.0625 1.21875q-0.6875 0.40625 -1.625 0.40625q-0.890625 0 -1.640625 -0.359375q-0.734375 -0.359375 -1.171875 -0.984375q-0.421875 -0.640625 -0.421875 -1.453125q-0.015625 -1.0 0.5 -1.5625q0.53125 -0.578125 1.703125 -0.828125q1.171875 -0.25 3.265625 -0.25l0.4375 0l0 -0.546875q0 -1.046875 -0.4375 -1.5q-0.421875 -0.46875 -1.375 -0.46875q-0.65625 0 -1.234375 0.171875q-0.578125 0.15625 -1.265625 0.46875q-0.5 0.28125 -0.71875 0.28125q-0.28125 0 -0.453125 -0.203125q-0.171875 -0.203125 -0.171875 -0.515625q0 -0.28125 0.15625 -0.5q0.15625 -0.21875 0.515625 -0.421875q0.65625 -0.359375 1.53125 -0.5625q0.875 -0.21875 1.6875 -0.21875zm-0.578125 8.0625q1.03125 0 1.6875 -0.703125q0.65625 -0.703125 0.65625 -1.796875l0 -0.484375l-0.34375 0q-1.453125 0 -2.234375 0.125q-0.78125 0.125 -1.125 0.4375q-0.328125 0.3125 -0.328125 0.890625q0 0.671875 0.484375 1.109375q0.484375 0.421875 1.203125 0.421875zm9.91861 1.390625q-1.90625 0 -3.125 -0.78125q-0.328125 -0.203125 -0.46875 -0.421875q-0.140625 -0.234375 -0.140625 -0.5q0 -0.3125 0.15625 -0.515625q0.171875 -0.203125 0.4375 -0.203125q0.234375 0 0.765625 0.296875q0.5625 0.296875 1.09375 0.484375q0.53125 0.1875 1.328125 0.1875q0.890625 0 1.390625 -0.3125q0.515625 -0.3125 0.515625 -0.890625q0 -0.375 -0.203125 -0.59375q-0.1875 -0.234375 -0.671875 -0.40625q-0.484375 -0.1875 -1.4375 -0.390625q-1.640625 -0.34375 -2.359375 -0.953125q-0.71875 -0.609375 -0.71875 -1.65625q0 -0.796875 0.46875 -1.4375q0.46875 -0.65625 1.28125 -1.0q0.828125 -0.359375 1.875 -0.359375q0.734375 0 1.4375 0.203125q0.71875 0.1875 1.265625 0.5625q0.609375 0.40625 0.609375 0.953125q0 0.296875 -0.1875 0.5q-0.171875 0.203125 -0.40625 0.203125q-0.171875 0 -0.34375 -0.0625q-0.15625 -0.078125 -0.4375 -0.25q-0.515625 -0.296875 -0.953125 -0.46875q-0.4375 -0.171875 -1.078125 -0.171875q-0.796875 0 -1.28125 0.34375q-0.46875 0.328125 -0.46875 0.90625q0 0.53125 0.4375 0.828125q0.453125 0.28125 1.65625 0.53125q1.25 0.265625 1.953125 0.609375q0.71875 0.328125 1.015625 0.828125q0.3125 0.484375 0.3125 1.25q0 1.21875 -1.015625 1.953125q-1.015625 0.734375 -2.703125 0.734375zm9.71106 0q-1.328125 0 -2.328125 -0.578125q-0.984375 -0.578125 -1.546875 -1.640625q-0.546875 -1.0625 -0.546875 -2.453125q0 -1.421875 0.5625 -2.5q0.578125 -1.09375 1.59375 -1.6875q1.03125 -0.59375 2.359375 -0.59375q0.703125 0 1.421875 0.203125q0.71875 0.203125 1.28125 0.5625q0.59375 0.40625 0.59375 0.953125q0 0.3125 -0.171875 0.53125q-0.15625 0.21875 -0.421875 0.21875q-0.171875 0 -0.34375 -0.078125q-0.15625 -0.09375 -0.421875 -0.265625q-0.46875 -0.296875 -0.875 -0.453125q-0.390625 -0.15625 -0.953125 -0.15625q-1.265625 0 -1.96875 0.859375q-0.6875 0.859375 -0.6875 2.375q0 1.53125 0.6875 2.375q0.6875 0.828125 1.953125 0.828125q0.5625 0 0.984375 -0.171875q0.4375 -0.171875 0.875 -0.453125q0.21875 -0.125 0.421875 -0.21875q0.203125 -0.09375 0.375 -0.09375q0.25 0 0.421875 0.21875q0.171875 0.203125 0.171875 0.53125q0 0.25 -0.140625 0.46875q-0.140625 0.21875 -0.484375 0.4375q-0.546875 0.375 -1.296875 0.578125q-0.75 0.203125 -1.515625 0.203125zm8.932831 -9.453125q1.8125 0 2.703125 0.921875q0.890625 0.90625 0.890625 2.765625l0 4.84375q0 0.421875 -0.25 0.65625q-0.234375 0.234375 -0.671875 0.234375q-0.40625 0 -0.65625 -0.234375q-0.234375 -0.25 -0.234375 -0.65625l0 -0.703125q-0.359375 0.796875 -1.0625 1.21875q-0.6875 0.40625 -1.625 0.40625q-0.890625 0 -1.640625 -0.359375q-0.734375 -0.359375 -1.171875 -0.984375q-0.421875 -0.640625 -0.421875 -1.453125q-0.015625 -1.0 0.5 -1.5625q0.53125 -0.578125 1.703125 -0.828125q1.171875 -0.25 3.265625 -0.25l0.4375 0l0 -0.546875q0 -1.046875 -0.4375 -1.5q-0.421875 -0.46875 -1.375 -0.46875q-0.65625 0 -1.234375 0.171875q-0.578125 0.15625 -1.265625 0.46875q-0.5 0.28125 -0.71875 0.28125q-0.28125 0 -0.453125 -0.203125q-0.171875 -0.203125 -0.171875 -0.515625q0 -0.28125 0.15625 -0.5q0.15625 -0.21875 0.515625 -0.421875q0.65625 -0.359375 1.53125 -0.5625q0.875 -0.21875 1.6875 -0.21875zm-0.578125 8.0625q1.03125 0 1.6875 -0.703125q0.65625 -0.703125 0.65625 -1.796875l0 -0.484375l-0.34375 0q-1.453125 0 -2.234375 0.125q-0.78125 0.125 -1.125 0.4375q-0.328125 0.3125 -0.328125 0.890625q0 0.671875 0.484375 1.109375q0.484375 0.421875 1.203125 0.421875zm14.184235 -11.984375q0.421875 0 0.6875 0.25q0.265625 0.234375 0.265625 0.65625l0 11.515625q0 0.4375 -0.25 0.6875q-0.25 0.234375 -0.6875 0.234375q-0.421875 0 -0.6875 -0.234375q-0.25 -0.25 -0.25 -0.6875l0 -0.734375q-0.40625 0.8125 -1.1875 1.25q-0.78125 0.4375 -1.8125 0.4375q-1.171875 0 -2.09375 -0.59375q-0.921875 -0.59375 -1.4375 -1.671875q-0.515625 -1.09375 -0.515625 -2.484375q0 -1.421875 0.515625 -2.484375q0.515625 -1.0625 1.421875 -1.640625q0.921875 -0.578125 2.109375 -0.578125q1.03125 0 1.796875 0.4375q0.78125 0.4375 1.1875 1.234375l0 -4.734375q0 -0.390625 0.25 -0.625q0.265625 -0.234375 0.6875 -0.234375zm-3.46875 11.890625q1.21875 0 1.875 -0.84375q0.671875 -0.84375 0.671875 -2.390625q0 -1.546875 -0.65625 -2.375q-0.65625 -0.84375 -1.890625 -0.84375q-1.234375 0 -1.921875 0.828125q-0.671875 0.828125 -0.671875 2.359375q0 1.53125 0.6875 2.40625q0.6875 0.859375 1.90625 0.859375zm14.182098 -0.9375q0.25 0 0.421875 0.203125q0.171875 0.203125 0.171875 0.53125q0 0.53125 -0.671875 0.90625q-0.65625 0.375 -1.4375 0.578125q-0.765625 0.203125 -1.46875 0.203125q-2.171875 0 -3.421875 -1.25q-1.25 -1.265625 -1.25 -3.453125q0 -1.390625 0.546875 -2.46875q0.5625 -1.09375 1.546875 -1.6875q1.0 -0.59375 2.28125 -0.59375q1.828125 0 2.890625 1.171875q1.0625 1.171875 1.0625 3.171875q0 0.75 -0.671875 0.75l-5.765625 0q0.1875 2.890625 2.78125 2.890625q0.6875 0 1.1875 -0.1875q0.5 -0.1875 1.0625 -0.484375q0.0625 -0.03125 0.3125 -0.15625q0.25 -0.125 0.421875 -0.125zm-3.25 -5.65625q-1.078125 0 -1.734375 0.703125q-0.65625 0.6875 -0.78125 1.9375l4.8125 0q-0.0625 -1.265625 -0.65625 -1.953125q-0.578125 -0.6875 -1.640625 -0.6875z" fill-rule="nonzero"/><path fill="#39b7c2" d="m169.32216 397.13196q0.421875 0 0.671875 0.25q0.265625 0.234375 0.265625 0.671875l0 7.59375q0 0.390625 -0.265625 0.640625q-0.265625 0.234375 -0.6875 0.234375q-0.390625 0 -0.640625 -0.234375q-0.234375 -0.234375 -0.234375 -0.625l0 -0.703125q-0.4375 0.78125 -1.203125 1.1875q-0.75 0.40625 -1.671875 0.40625q-3.328125 0 -3.328125 -3.65625l0 -4.84375q0 -0.4375 0.25 -0.671875q0.25 -0.25 0.703125 -0.25q0.4375 0 0.6875 0.25q0.25 0.234375 0.25 0.671875l0 4.828125q0 1.109375 0.4375 1.625q0.453125 0.515625 1.390625 0.515625q1.09375 0 1.75 -0.703125q0.671875 -0.703125 0.671875 -1.890625l0 -4.375q0 -0.40625 0.25 -0.65625q0.265625 -0.265625 0.703125 -0.265625zm8.443527 -0.03125q1.1875 0 2.109375 0.59375q0.921875 0.59375 1.4375 1.6875q0.515625 1.078125 0.515625 2.5q0 1.390625 -0.515625 2.453125q-0.5 1.0625 -1.421875 1.640625q-0.921875 0.578125 -2.125 0.578125q-1.015625 0 -1.8125 -0.4375q-0.78125 -0.4375 -1.1875 -1.25l0 4.15625q0 0.390625 -0.25 0.625q-0.25 0.234375 -0.65625 0.234375q-0.4375 0 -0.703125 -0.25q-0.265625 -0.234375 -0.265625 -0.640625l0 -10.9375q0 -0.40625 0.25 -0.65625q0.265625 -0.265625 0.6875 -0.265625q0.421875 0 0.671875 0.265625q0.265625 0.25 0.265625 0.65625l0 0.765625q0.40625 -0.828125 1.1875 -1.265625q0.796875 -0.453125 1.8125 -0.453125zm-0.4375 7.96875q1.234375 0 1.90625 -0.828125q0.671875 -0.828125 0.671875 -2.359375q0 -1.546875 -0.6875 -2.40625q-0.6875 -0.859375 -1.890625 -0.859375q-1.234375 0 -1.90625 0.84375q-0.65625 0.828125 -0.65625 2.375q0 1.546875 0.65625 2.390625q0.671875 0.84375 1.90625 0.84375zm10.541473 1.484375q-1.34375 0 -2.359375 -0.578125q-1.015625 -0.578125 -1.578125 -1.640625q-0.546875 -1.078125 -0.546875 -2.5q0 -1.4375 0.546875 -2.5q0.5625 -1.078125 1.578125 -1.65625q1.015625 -0.578125 2.359375 -0.578125q1.34375 0 2.359375 0.578125q1.015625 0.578125 1.5625 1.65625q0.546875 1.0625 0.546875 2.5q0 1.421875 -0.546875 2.5q-0.546875 1.0625 -1.5625 1.640625q-1.015625 0.578125 -2.359375 0.578125zm0 -1.484375q1.25 0 1.90625 -0.8125q0.65625 -0.828125 0.65625 -2.421875q0 -1.5625 -0.671875 -2.390625q-0.65625 -0.828125 -1.890625 -0.828125q-1.234375 0 -1.90625 0.828125q-0.671875 0.828125 -0.671875 2.390625q0 1.59375 0.65625 2.421875q0.671875 0.8125 1.921875 0.8125zm11.47525 -7.96875q3.265625 0 3.265625 3.671875l0 4.859375q0 0.421875 -0.265625 0.65625q-0.25 0.234375 -0.6875 0.234375q-0.4375 0 -0.6875 -0.234375q-0.25 -0.25 -0.25 -0.65625l0 -4.765625q0 -1.15625 -0.46875 -1.6875q-0.453125 -0.546875 -1.421875 -0.546875q-1.125 0 -1.828125 0.71875q-0.6875 0.703125 -0.6875 1.890625l0 4.390625q0 0.40625 -0.25 0.65625q-0.25 0.234375 -0.6875 0.234375q-0.421875 0 -0.6875 -0.234375q-0.25 -0.25 -0.25 -0.65625l0 -7.59375q0 -0.390625 0.265625 -0.640625q0.265625 -0.265625 0.671875 -0.265625q0.421875 0 0.65625 0.25q0.25 0.234375 0.25 0.640625l0 0.75q0.4375 -0.8125 1.234375 -1.234375q0.8125 -0.4375 1.828125 -0.4375zm17.89 7.03125q0.25 0 0.421875 0.203125q0.171875 0.203125 0.171875 0.53125q0 0.53125 -0.671875 0.90625q-0.65625 0.375 -1.4375 0.578125q-0.765625 0.203125 -1.46875 0.203125q-2.171875 0 -3.421875 -1.25q-1.25 -1.265625 -1.25 -3.453125q0 -1.390625 0.546875 -2.46875q0.5625 -1.09375 1.546875 -1.6875q1.0 -0.59375 2.28125 -0.59375q1.828125 0 2.890625 1.171875q1.0625 1.171875 1.0625 3.171875q0 0.75 -0.671875 0.75l-5.765625 0q0.1875 2.890625 2.78125 2.890625q0.6875 0 1.1875 -0.1875q0.5 -0.1875 1.0625 -0.484375q0.0625 -0.03125 0.3125 -0.15625q0.25 -0.125 0.421875 -0.125zm-3.25 -5.65625q-1.078125 0 -1.734375 0.703125q-0.65625 0.6875 -0.78125 1.9375l4.8125 0q-0.0625 -1.265625 -0.65625 -1.953125q-0.578125 -0.6875 -1.640625 -0.6875zm9.806656 -1.375q1.8125 0 2.703125 0.921875q0.890625 0.90625 0.890625 2.765625l0 4.84375q0 0.421875 -0.25 0.65625q-0.234375 0.234375 -0.671875 0.234375q-0.40625 0 -0.65625 -0.234375q-0.234375 -0.25 -0.234375 -0.65625l0 -0.703125q-0.359375 0.796875 -1.0625 1.21875q-0.6875 0.40625 -1.625 0.40625q-0.890625 0 -1.640625 -0.359375q-0.734375 -0.359375 -1.171875 -0.984375q-0.421875 -0.640625 -0.421875 -1.453125q-0.015625 -1.0 0.5 -1.5625q0.53125 -0.578125 1.703125 -0.828125q1.171875 -0.25 3.265625 -0.25l0.4375 0l0 -0.546875q0 -1.046875 -0.4375 -1.5q-0.421875 -0.46875 -1.375 -0.46875q-0.65625 0 -1.234375 0.171875q-0.578125 0.15625 -1.265625 0.46875q-0.5 0.28125 -0.71875 0.28125q-0.28125 0 -0.453125 -0.203125q-0.171875 -0.203125 -0.171875 -0.515625q0 -0.28125 0.15625 -0.5q0.15625 -0.21875 0.515625 -0.421875q0.65625 -0.359375 1.53125 -0.5625q0.875 -0.21875 1.6875 -0.21875zm-0.578125 8.0625q1.03125 0 1.6875 -0.703125q0.65625 -0.703125 0.65625 -1.796875l0 -0.484375l-0.34375 0q-1.453125 0 -2.234375 0.125q-0.78125 0.125 -1.125 0.4375q-0.328125 0.3125 -0.328125 0.890625q0 0.671875 0.484375 1.109375q0.484375 0.421875 1.203125 0.421875zm10.637344 1.390625q-1.328125 0 -2.328125 -0.578125q-0.984375 -0.578125 -1.546875 -1.640625q-0.546875 -1.0625 -0.546875 -2.453125q0 -1.421875 0.5625 -2.5q0.578125 -1.09375 1.59375 -1.6875q1.03125 -0.59375 2.359375 -0.59375q0.703125 0 1.421875 0.203125q0.71875 0.203125 1.28125 0.5625q0.59375 0.40625 0.59375 0.953125q0 0.3125 -0.171875 0.53125q-0.15625 0.21875 -0.421875 0.21875q-0.171875 0 -0.34375 -0.078125q-0.15625 -0.09375 -0.421875 -0.265625q-0.46875 -0.296875 -0.875 -0.453125q-0.390625 -0.15625 -0.953125 -0.15625q-1.265625 0 -1.96875 0.859375q-0.6875 0.859375 -0.6875 2.375q0 1.53125 0.6875 2.375q0.6875 0.828125 1.953125 0.828125q0.5625 0 0.984375 -0.171875q0.4375 -0.171875 0.875 -0.453125q0.21875 -0.125 0.421875 -0.21875q0.203125 -0.09375 0.375 -0.09375q0.25 0 0.421875 0.21875q0.171875 0.203125 0.171875 0.53125q0 0.25 -0.140625 0.46875q-0.140625 0.21875 -0.484375 0.4375q-0.546875 0.375 -1.296875 0.578125q-0.75 0.203125 -1.515625 0.203125zm10.042221 -9.453125q3.25 0 3.25 3.671875l0 4.859375q0 0.40625 -0.265625 0.65625q-0.265625 0.234375 -0.6875 0.234375q-0.4375 0 -0.6875 -0.234375q-0.25 -0.25 -0.25 -0.65625l0 -4.84375q0 -1.109375 -0.46875 -1.625q-0.453125 -0.53125 -1.421875 -0.53125q-1.125 0 -1.828125 0.71875q-0.6875 0.703125 -0.6875 1.890625l0 4.390625q0 0.40625 -0.25 0.65625q-0.25 0.234375 -0.6875 0.234375q-0.421875 0 -0.6875 -0.234375q-0.25 -0.25 -0.25 -0.65625l0 -11.546875q0 -0.421875 0.265625 -0.65625q0.265625 -0.25 0.703125 -0.25q0.40625 0 0.65625 0.234375q0.25 0.234375 0.25 0.625l0 4.671875q0.46875 -0.78125 1.25 -1.1875q0.78125 -0.421875 1.796875 -0.421875zm14.702484 9.453125q-1.34375 0 -2.359375 -0.578125q-1.0156097 -0.578125 -1.5781097 -1.640625q-0.546875 -1.078125 -0.546875 -2.5q0 -1.4375 0.546875 -2.5q0.5625 -1.078125 1.5781097 -1.65625q1.015625 -0.578125 2.359375 -0.578125q1.34375 0 2.359375 0.578125q1.015625 0.578125 1.5625 1.65625q0.546875 1.0625 0.546875 2.5q0 1.421875 -0.546875 2.5q-0.546875 1.0625 -1.5625 1.640625q-1.015625 0.578125 -2.359375 0.578125zm0 -1.484375q1.25 0 1.90625 -0.8125q0.65625 -0.828125 0.65625 -2.421875q0 -1.5625 -0.671875 -2.390625q-0.65625 -0.828125 -1.890625 -0.828125q-1.234375 0 -1.90625 0.828125q-0.671875 0.828125 -0.671875 2.390625q0 1.59375 0.65625 2.421875q0.671875 0.8125 1.921875 0.8125zm10.984802 0.015625q0.40625 0.03125 0.578125 0.21875q0.1875 0.171875 0.1875 0.484375q0 0.375 -0.296875 0.578125q-0.28125 0.1875 -0.84375 0.15625l-0.5 -0.03125q-1.515625 -0.125 -2.265625 -0.921875q-0.734375 -0.8125 -0.734375 -2.40625l0 -4.390625l-1.125 0q-0.828125 0 -0.828125 -0.71875q0 -0.34375 0.21875 -0.53125q0.21875 -0.203125 0.609375 -0.203125l1.125 0l0 -1.921875q0 -0.421875 0.25 -0.65625q0.25 -0.25 0.671875 -0.25q0.4375 0 0.6875 0.25q0.265625 0.234375 0.265625 0.65625l0 1.921875l1.84375 0q0.390625 0 0.609375 0.203125q0.21875 0.1875 0.21875 0.53125q0 0.359375 -0.21875 0.546875q-0.21875 0.171875 -0.609375 0.171875l-1.84375 0l0 4.515625q0 0.890625 0.359375 1.296875q0.375 0.40625 1.125 0.46875l0.515625 0.03125zm7.054413 -7.984375q3.25 0 3.25 3.671875l0 4.859375q0 0.40625 -0.265625 0.65625q-0.265625 0.234375 -0.6875 0.234375q-0.4375 0 -0.6875 -0.234375q-0.25 -0.25 -0.25 -0.65625l0 -4.84375q0 -1.109375 -0.46875 -1.625q-0.453125 -0.53125 -1.421875 -0.53125q-1.125 0 -1.828125 0.71875q-0.6875 0.703125 -0.6875 1.890625l0 4.390625q0 0.40625 -0.25 0.65625q-0.25 0.234375 -0.6875 0.234375q-0.421875 0 -0.6875 -0.234375q-0.25 -0.25 -0.25 -0.65625l0 -11.546875q0 -0.421875 0.265625 -0.65625q0.265625 -0.25 0.703125 -0.25q0.40625 0 0.65625 0.234375q0.25 0.234375 0.25 0.625l0 4.671875q0.46875 -0.78125 1.25 -1.1875q0.78125 -0.421875 1.796875 -0.421875zm12.949127 7.03125q0.25 0 0.421875 0.203125q0.171875 0.203125 0.171875 0.53125q0 0.53125 -0.671875 0.90625q-0.65625 0.375 -1.4375 0.578125q-0.765625 0.203125 -1.46875 0.203125q-2.171875 0 -3.421875 -1.25q-1.25 -1.265625 -1.25 -3.453125q0 -1.390625 0.546875 -2.46875q0.5625 -1.09375 1.546875 -1.6875q1.0 -0.59375 2.28125 -0.59375q1.828125 0 2.890625 1.171875q1.0625 1.171875 1.0625 3.171875q0 0.75 -0.671875 0.75l-5.765625 0q0.1875 2.890625 2.78125 2.890625q0.6875 0 1.1875 -0.1875q0.5 -0.1875 1.0625 -0.484375q0.0625 -0.03125 0.3125 -0.15625q0.25 -0.125 0.421875 -0.125zm-3.25 -5.65625q-1.078125 0 -1.734375 0.703125q-0.65625 0.6875 -0.78125 1.9375l4.8125 0q-0.0625 -1.265625 -0.65625 -1.953125q-0.578125 -0.6875 -1.640625 -0.6875zm10.759766 -1.34375q0.90625 -0.046875 0.90625 0.765625q0 0.421875 -0.21875 0.625q-0.203125 0.203125 -0.703125 0.234375l-0.5625 0.0625q-1.171875 0.109375 -1.75 0.828125q-0.5625 0.703125 -0.5625 1.703125l0 4.28125q0 0.4375 -0.265625 0.671875q-0.25 0.21875 -0.671875 0.21875q-0.40625 0 -0.671875 -0.21875q-0.265625 -0.234375 -0.265625 -0.671875l0 -7.59375q0 -0.4375 0.265625 -0.671875q0.265625 -0.234375 0.671875 -0.234375q0.375 0 0.625 0.234375q0.265625 0.234375 0.265625 0.65625l0 0.890625q0.359375 -0.828125 1.0625 -1.25q0.71875 -0.4375 1.625 -0.5l0.25 -0.03125z" fill-rule="nonzero"/><path fill="#000000" fill-opacity="0.0" d="m275.92325 311.414c0 11.070892 -10.346466 16.606323 -20.692917 22.141754c-10.346451 5.535431 -20.692917 11.070862 -20.692917 22.141724" fill-rule="evenodd"/><path stroke="#39b7c2" stroke-width="3.0" stroke-linejoin="round" stroke-linecap="butt" d="m275.92325 311.41403c0 11.070862 -10.346466 16.606293 -20.692917 22.141724c-2.586609 1.3838501 -5.173218 2.7677002 -7.598175 4.2380676c-1.2124786 0.73516846 -2.3845367 1.4919434 -3.4959564 2.281189l-0.2960205 0.21276855" fill-rule="evenodd"/><path fill="#39b7c2" stroke="#39b7c2" stroke-width="3.0" stroke-linecap="butt" d="m239.59807 337.72684l-2.7940216 14.216064l11.278259 -9.094177z" fill-rule="evenodd"/><path fill="#000000" fill-opacity="0.0" d="m419.53952 121.963295l249.63779 0l0 52.944878l-249.63779 0z" fill-rule="evenodd"/><path fill="#153570" d="m456.09305 143.23073q0.09375 0.234375 0.09375 0.375q0 0.359375 -0.296875 0.609375q-0.28125 0.234375 -0.640625 0.234375q-0.25 0 -0.46875 -0.140625q-0.203125 -0.140625 -0.3125 -0.40625l-1.234375 -2.796875l-6.828125 0l-1.234375 2.796875q-0.109375 0.265625 -0.34375 0.40625q-0.21875 0.140625 -0.453125 0.140625q-0.375 0 -0.671875 -0.234375q-0.28125 -0.25 -0.28125 -0.609375q0 -0.140625 0.09375 -0.375l5.265625 -11.5q0.125 -0.296875 0.40625 -0.46875q0.296875 -0.171875 0.609375 -0.171875q0.3125 0 0.609375 0.171875q0.296875 0.171875 0.421875 0.46875l5.265625 11.5zm-9.0 -3.65625l5.46875 0l-2.75 -6.171875l-2.71875 6.171875zm11.80307 4.875q-0.40625 0 -0.671875 -0.21875q-0.265625 -0.234375 -0.265625 -0.671875l0 -11.53125q0 -0.453125 0.265625 -0.6875q0.265625 -0.234375 0.671875 -0.234375q0.421875 0 0.671875 0.234375q0.265625 0.234375 0.265625 0.6875l0 11.53125q0 0.4375 -0.265625 0.671875q-0.25 0.21875 -0.671875 0.21875zm4.5148315 0q-0.40625 0 -0.671875 -0.21875q-0.265625 -0.234375 -0.265625 -0.671875l0 -11.53125q0 -0.453125 0.265625 -0.6875q0.265625 -0.234375 0.671875 -0.234375q0.421875 0 0.671875 0.234375q0.265625 0.234375 0.265625 0.6875l0 11.53125q0 0.4375 -0.265625 0.671875q-0.25 0.21875 -0.671875 0.21875zm7.530426 0.03125q-1.34375 0 -2.359375 -0.578125q-1.015625 -0.578125 -1.578125 -1.640625q-0.546875 -1.078125 -0.546875 -2.5q0 -1.4375 0.546875 -2.5q0.5625 -1.078125 1.578125 -1.65625q1.015625 -0.578125 2.359375 -0.578125q1.34375 0 2.359375 0.578125q1.015625 0.578125 1.5625 1.65625q0.546875 1.0625 0.546875 2.5q0 1.421875 -0.546875 2.5q-0.546875 1.0625 -1.5625 1.640625q-1.015625 0.578125 -2.359375 0.578125zm0 -1.484375q1.25 0 1.90625 -0.8125q0.65625 -0.828125 0.65625 -2.421875q0 -1.5625 -0.671875 -2.390625q-0.65625 -0.828125 -1.890625 -0.828125q-1.234375 0 -1.90625 0.828125q-0.671875 0.828125 -0.671875 2.390625q0 1.59375 0.65625 2.421875q0.671875 0.8125 1.921875 0.8125zm18.813354 -7.359375q0.21875 -0.546875 0.765625 -0.546875q0.359375 0 0.640625 0.25q0.28125 0.234375 0.28125 0.578125q0 0.1875 -0.078125 0.34375l-3.09375 7.546875q-0.109375 0.296875 -0.375 0.46875q-0.265625 0.15625 -0.578125 0.15625q-0.296875 0 -0.5625 -0.15625q-0.265625 -0.171875 -0.375 -0.46875l-2.421875 -5.984375l-2.375 5.984375q-0.109375 0.296875 -0.359375 0.46875q-0.25 0.15625 -0.5625 0.15625q-0.296875 0 -0.578125 -0.15625q-0.265625 -0.171875 -0.390625 -0.46875l-3.078125 -7.546875q-0.078125 -0.15625 -0.078125 -0.3125q0 -0.375 0.296875 -0.609375q0.3125 -0.25 0.6875 -0.25q0.5625 0 0.765625 0.53125l2.40625 6.359375l2.46875 -6.296875q0.109375 -0.296875 0.34375 -0.4375q0.25 -0.15625 0.53125 -0.15625q0.265625 0 0.5 0.15625q0.25 0.140625 0.359375 0.4375l2.453125 6.265625l2.40625 -6.3125zm6.468048 8.84375q-1.90625 0 -3.125 -0.78125q-0.328125 -0.203125 -0.46875 -0.421875q-0.140625 -0.234375 -0.140625 -0.5q0 -0.3125 0.15625 -0.515625q0.171875 -0.203125 0.4375 -0.203125q0.234375 0 0.765625 0.296875q0.5625 0.296875 1.09375 0.484375q0.53125 0.1875 1.328125 0.1875q0.890625 0 1.390625 -0.3125q0.515625 -0.3125 0.515625 -0.890625q0 -0.375 -0.203125 -0.59375q-0.1875 -0.234375 -0.671875 -0.40625q-0.484375 -0.1875 -1.4375 -0.390625q-1.640625 -0.34375 -2.359375 -0.953125q-0.71875 -0.609375 -0.71875 -1.65625q0 -0.796875 0.46875 -1.4375q0.46875 -0.65625 1.28125 -1.0q0.828125 -0.359375 1.875 -0.359375q0.734375 0 1.4375 0.203125q0.71875 0.1875 1.265625 0.5625q0.609375 0.40625 0.609375 0.953125q0 0.296875 -0.1875 0.5q-0.171875 0.203125 -0.40625 0.203125q-0.171875 0 -0.34375 -0.0625q-0.15625 -0.078125 -0.4375 -0.25q-0.515625 -0.296875 -0.953125 -0.46875q-0.4375 -0.171875 -1.078125 -0.171875q-0.796875 0 -1.28125 0.34375q-0.46875 0.328125 -0.46875 0.90625q0 0.53125 0.4375 0.828125q0.453125 0.28125 1.65625 0.53125q1.25 0.265625 1.953125 0.609375q0.71875 0.328125 1.015625 0.828125q0.3125 0.484375 0.3125 1.25q0 1.21875 -1.015625 1.953125q-1.015625 0.734375 -2.703125 0.734375zm17.214417 -8.859375q0.109375 -0.28125 0.328125 -0.40625q0.21875 -0.125 0.453125 -0.125q0.359375 0 0.625 0.25q0.265625 0.234375 0.265625 0.5625q0 0.1875 -0.0625 0.359375l-5.1875 11.0q-0.125 0.265625 -0.34375 0.40625q-0.203125 0.140625 -0.4375 0.140625q-0.34375 0 -0.625 -0.234375q-0.265625 -0.21875 -0.265625 -0.546875q0 -0.15625 0.09375 -0.375l1.296875 -2.75l-3.609375 -7.640625q-0.0625 -0.15625 -0.0625 -0.34375q0 -0.34375 0.296875 -0.578125q0.296875 -0.25 0.671875 -0.25q0.546875 0 0.796875 0.515625l2.890625 6.421875l2.875 -6.40625zm7.0549927 8.859375q-1.34375 0 -2.359375 -0.578125q-1.015625 -0.578125 -1.578125 -1.640625q-0.546875 -1.078125 -0.546875 -2.5q0 -1.4375 0.546875 -2.5q0.5625 -1.078125 1.578125 -1.65625q1.015625 -0.578125 2.359375 -0.578125q1.34375 0 2.359375 0.578125q1.015625 0.578125 1.5625 1.65625q0.546875 1.0625 0.546875 2.5q0 1.421875 -0.546875 2.5q-0.546875 1.0625 -1.5625 1.640625q-1.015625 0.578125 -2.359375 0.578125zm0 -1.484375q1.25 0 1.90625 -0.8125q0.65625 -0.828125 0.65625 -2.421875q0 -1.5625 -0.671875 -2.390625q-0.65625 -0.828125 -1.890625 -0.828125q-1.234375 0 -1.90625 0.828125q-0.671875 0.828125 -0.671875 2.390625q0 1.59375 0.65625 2.421875q0.671875 0.8125 1.921875 0.8125zm13.615845 -7.9375q0.421875 0 0.671875 0.25q0.265625 0.234375 0.265625 0.671875l0 7.59375q0 0.390625 -0.265625 0.640625q-0.265625 0.234375 -0.6875 0.234375q-0.390625 0 -0.640625 -0.234375q-0.234375 -0.234375 -0.234375 -0.625l0 -0.703125q-0.4375 0.78125 -1.203125 1.1875q-0.75 0.40625 -1.671875 0.40625q-3.328125 0 -3.328125 -3.65625l0 -4.84375q0 -0.4375 0.25 -0.671875q0.25 -0.25 0.703125 -0.25q0.4375 0 0.6875 0.25q0.25 0.234375 0.25 0.671875l0 4.828125q0 1.109375 0.4375 1.625q0.453125 0.515625 1.390625 0.515625q1.09375 0 1.75 -0.703125q0.671875 -0.703125 0.671875 -1.890625l0 -4.375q0 -0.40625 0.25 -0.65625q0.265625 -0.265625 0.703125 -0.265625zm12.946899 7.953125q0.40625 0.03125 0.578125 0.21875q0.1875 0.171875 0.1875 0.484375q0 0.375 -0.296875 0.578125q-0.28125 0.1875 -0.84375 0.15625l-0.5 -0.03125q-1.515625 -0.125 -2.265625 -0.921875q-0.734375 -0.8125 -0.734375 -2.40625l0 -4.390625l-1.125 0q-0.828125 0 -0.828125 -0.71875q0 -0.34375 0.21875 -0.53125q0.21875 -0.203125 0.609375 -0.203125l1.125 0l0 -1.921875q0 -0.421875 0.25 -0.65625q0.25 -0.25 0.671875 -0.25q0.4375 0 0.6875 0.25q0.265625 0.234375 0.265625 0.65625l0 1.921875l1.84375 0q0.390625 0 0.609375 0.203125q0.21875 0.1875 0.21875 0.53125q0 0.359375 -0.21875 0.546875q-0.21875 0.171875 -0.609375 0.171875l-1.84375 0l0 4.515625q0 0.890625 0.359375 1.296875q0.375 0.40625 1.125 0.46875l0.515625 0.03125zm6.0856323 1.46875q-1.34375 0 -2.359375 -0.578125q-1.015625 -0.578125 -1.578125 -1.640625q-0.546875 -1.078125 -0.546875 -2.5q0 -1.4375 0.546875 -2.5q0.5625 -1.078125 1.578125 -1.65625q1.015625 -0.578125 2.359375 -0.578125q1.34375 0 2.359375 0.578125q1.015625 0.578125 1.5625 1.65625q0.546875 1.0625 0.546875 2.5q0 1.421875 -0.546875 2.5q-0.546875 1.0625 -1.5625 1.640625q-1.015625 0.578125 -2.359375 0.578125zm0 -1.484375q1.25 0 1.90625 -0.8125q0.65625 -0.828125 0.65625 -2.421875q0 -1.5625 -0.671875 -2.390625q-0.65625 -0.828125 -1.890625 -0.828125q-1.234375 0 -1.90625 0.828125q-0.671875 0.828125 -0.671875 2.390625q0 1.59375 0.65625 2.421875q0.671875 0.8125 1.921875 0.8125zm14.666138 1.484375q-1.90625 0 -3.125 -0.78125q-0.328125 -0.203125 -0.46875 -0.421875q-0.140625 -0.234375 -0.140625 -0.5q0 -0.3125 0.15625 -0.515625q0.171875 -0.203125 0.4375 -0.203125q0.234375 0 0.765625 0.296875q0.5625 0.296875 1.09375 0.484375q0.53125 0.1875 1.328125 0.1875q0.890625 0 1.390625 -0.3125q0.515625 -0.3125 0.515625 -0.890625q0 -0.375 -0.203125 -0.59375q-0.1875 -0.234375 -0.671875 -0.40625q-0.484375 -0.1875 -1.4375 -0.390625q-1.640625 -0.34375 -2.359375 -0.953125q-0.71875 -0.609375 -0.71875 -1.65625q0 -0.796875 0.46875 -1.4375q0.46875 -0.65625 1.28125 -1.0q0.828125 -0.359375 1.875 -0.359375q0.734375 0 1.4375 0.203125q0.71875 0.1875 1.265625 0.5625q0.609375 0.40625 0.609375 0.953125q0 0.296875 -0.1875 0.5q-0.171875 0.203125 -0.40625 0.203125q-0.171875 0 -0.34375 -0.0625q-0.15625 -0.078125 -0.4375 -0.25q-0.515625 -0.296875 -0.953125 -0.46875q-0.4375 -0.171875 -1.078125 -0.171875q-0.796875 0 -1.28125 0.34375q-0.46875 0.328125 -0.46875 0.90625q0 0.53125 0.4375 0.828125q0.453125 0.28125 1.65625 0.53125q1.25 0.265625 1.953125 0.609375q0.71875 0.328125 1.015625 0.828125q0.3125 0.484375 0.3125 1.25q0 1.21875 -1.015625 1.953125q-1.015625 0.734375 -2.703125 0.734375zm10.180237 -1.46875q0.40625 0.03125 0.578125 0.21875q0.1875 0.171875 0.1875 0.484375q0 0.375 -0.296875 0.578125q-0.28125 0.1875 -0.84375 0.15625l-0.5 -0.03125q-1.515625 -0.125 -2.265625 -0.921875q-0.734375 -0.8125 -0.734375 -2.40625l0 -4.390625l-1.125 0q-0.828125 0 -0.828125 -0.71875q0 -0.34375 0.21875 -0.53125q0.21875 -0.203125 0.609375 -0.203125l1.125 0l0 -1.921875q0 -0.421875 0.25 -0.65625q0.25 -0.25 0.671875 -0.25q0.4375 0 0.6875 0.25q0.265625 0.234375 0.265625 0.65625l0 1.921875l1.84375 0q0.390625 0 0.609375 0.203125q0.21875 0.1875 0.21875 0.53125q0 0.359375 -0.21875 0.546875q-0.21875 0.171875 -0.609375 0.171875l-1.84375 0l0 4.515625q0 0.890625 0.359375 1.296875q0.375 0.40625 1.125 0.46875l0.515625 0.03125zm8.731934 -7.390625q0.109375 -0.28125 0.328125 -0.40625q0.21875 -0.125 0.453125 -0.125q0.359375 0 0.625 0.25q0.265625 0.234375 0.265625 0.5625q0 0.1875 -0.0625 0.359375l-5.1875 11.0q-0.125 0.265625 -0.34375 0.40625q-0.203125 0.140625 -0.4375 0.140625q-0.34375 0 -0.625 -0.234375q-0.265625 -0.21875 -0.265625 -0.546875q0 -0.15625 0.09375 -0.375l1.296875 -2.75l-3.609375 -7.640625q-0.0625 -0.15625 -0.0625 -0.34375q0 -0.34375 0.296875 -0.578125q0.296875 -0.25 0.671875 -0.25q0.546875 0 0.796875 0.515625l2.890625 6.421875l2.875 -6.40625zm4.450012 8.828125q-0.40625 0 -0.671875 -0.21875q-0.265625 -0.234375 -0.265625 -0.671875l0 -11.53125q0 -0.453125 0.265625 -0.6875q0.265625 -0.234375 0.671875 -0.234375q0.421875 0 0.671875 0.234375q0.265625 0.234375 0.265625 0.6875l0 11.53125q0 0.4375 -0.265625 0.671875q-0.25 0.21875 -0.671875 0.21875zm10.702332 -2.390625q0.25 0 0.421875 0.203125q0.171875 0.203125 0.171875 0.53125q0 0.53125 -0.671875 0.90625q-0.65625 0.375 -1.4375 0.578125q-0.765625 0.203125 -1.46875 0.203125q-2.171875 0 -3.421875 -1.25q-1.25 -1.265625 -1.25 -3.453125q0 -1.390625 0.546875 -2.46875q0.5625 -1.09375 1.546875 -1.6875q1.0 -0.59375 2.28125 -0.59375q1.828125 0 2.890625 1.171875q1.0625 1.171875 1.0625 3.171875q0 0.75 -0.671875 0.75l-5.765625 0q0.1875 2.890625 2.78125 2.890625q0.6875 0 1.1875 -0.1875q0.5 -0.1875 1.0625 -0.484375q0.0625 -0.03125 0.3125 -0.15625q0.25 -0.125 0.421875 -0.125zm-3.25 -5.65625q-1.078125 0 -1.734375 0.703125q-0.65625 0.6875 -0.78125 1.9375l4.8125 0q-0.0625 -1.265625 -0.65625 -1.953125q-0.578125 -0.6875 -1.640625 -0.6875zm17.388123 -0.78125q0.109375 -0.28125 0.328125 -0.40625q0.21875 -0.125 0.453125 -0.125q0.359375 0 0.625 0.25q0.265625 0.234375 0.265625 0.5625q0 0.1875 -0.0625 0.359375l-5.1875 11.0q-0.125 0.265625 -0.34375 0.40625q-0.203125 0.140625 -0.4375 0.140625q-0.34375 0 -0.625 -0.234375q-0.265625 -0.21875 -0.265625 -0.546875q0 -0.15625 0.09375 -0.375l1.296875 -2.75l-3.609375 -7.640625q-0.0625 -0.15625 -0.0625 -0.34375q0 -0.34375 0.296875 -0.578125q0.296875 -0.25 0.671875 -0.25q0.546875 0 0.796875 0.515625l2.890625 6.421875l2.875 -6.40625zm7.0549927 8.859375q-1.34375 0 -2.359375 -0.578125q-1.015625 -0.578125 -1.578125 -1.640625q-0.546875 -1.078125 -0.546875 -2.5q0 -1.4375 0.546875 -2.5q0.5625 -1.078125 1.578125 -1.65625q1.015625 -0.578125 2.359375 -0.578125q1.34375 0 2.359375 0.578125q1.015625 0.578125 1.5625 1.65625q0.546875 1.0625 0.546875 2.5q0 1.421875 -0.546875 2.5q-0.546875 1.0625 -1.5625 1.640625q-1.015625 0.578125 -2.359375 0.578125zm0 -1.484375q1.25 0 1.90625 -0.8125q0.65625 -0.828125 0.65625 -2.421875q0 -1.5625 -0.671875 -2.390625q-0.65625 -0.828125 -1.890625 -0.828125q-1.234375 0 -1.90625 0.828125q-0.671875 0.828125 -0.671875 2.390625q0 1.59375 0.65625 2.421875q0.671875 0.8125 1.921875 0.8125zm13.615845 -7.9375q0.421875 0 0.671875 0.25q0.265625 0.234375 0.265625 0.671875l0 7.59375q0 0.390625 -0.265625 0.640625q-0.265625 0.234375 -0.6875 0.234375q-0.390625 0 -0.640625 -0.234375q-0.234375 -0.234375 -0.234375 -0.625l0 -0.703125q-0.4375 0.78125 -1.203125 1.1875q-0.75 0.40625 -1.671875 0.40625q-3.328125 0 -3.328125 -3.65625l0 -4.84375q0 -0.4375 0.25 -0.671875q0.25 -0.25 0.703125 -0.25q0.4375 0 0.6875 0.25q0.25 0.234375 0.25 0.671875l0 4.828125q0 1.109375 0.4375 1.625q0.453125 0.515625 1.390625 0.515625q1.09375 0 1.75 -0.703125q0.671875 -0.703125 0.671875 -1.890625l0 -4.375q0 -0.40625 0.25 -0.65625q0.265625 -0.265625 0.703125 -0.265625zm8.3341675 0q0.90625 -0.046875 0.90625 0.765625q0 0.421875 -0.21875 0.625q-0.203125 0.203125 -0.703125 0.234375l-0.5625 0.0625q-1.171875 0.109375 -1.75 0.828125q-0.5625 0.703125 -0.5625 1.703125l0 4.28125q0 0.4375 -0.265625 0.671875q-0.25 0.21875 -0.671875 0.21875q-0.40625 0 -0.671875 -0.21875q-0.265625 -0.234375 -0.265625 -0.671875l0 -7.59375q0 -0.4375 0.265625 -0.671875q0.265625 -0.234375 0.671875 -0.234375q0.375 0 0.625 0.234375q0.265625 0.234375 0.265625 0.65625l0 0.890625q0.359375 -0.828125 1.0625 -1.25q0.71875 -0.4375 1.625 -0.5l0.25 -0.03125z" fill-rule="nonzero"/><path fill="#153570" d="m529.5576 157.0276q1.1875 0 2.109375 0.59375q0.921875 0.59375 1.4375 1.6875q0.515625 1.078125 0.515625 2.5q0 1.390625 -0.515625 2.453125q-0.5 1.0625 -1.421875 1.640625q-0.921875 0.578125 -2.125 0.578125q-1.015625 0 -1.8125 -0.4375q-0.78125 -0.4375 -1.1875 -1.25l0 4.15625q0 0.390625 -0.25 0.625q-0.25 0.234375 -0.65625 0.234375q-0.4375 0 -0.703125 -0.25q-0.265625 -0.234375 -0.265625 -0.640625l0 -10.9375q0 -0.40625 0.25 -0.65625q0.265625 -0.265625 0.6875 -0.265625q0.421875 0 0.671875 0.265625q0.265625 0.25 0.265625 0.65625l0 0.765625q0.40625 -0.828125 1.1875 -1.265625q0.796875 -0.453125 1.8125 -0.453125zm-0.4375 7.96875q1.234375 0 1.90625 -0.828125q0.671875 -0.828125 0.671875 -2.359375q0 -1.546875 -0.6875 -2.40625q-0.6875 -0.859375 -1.890625 -0.859375q-1.234375 0 -1.90625 0.84375q-0.65625 0.828125 -0.65625 2.375q0 1.546875 0.65625 2.390625q0.671875 0.84375 1.90625 0.84375zm10.400879 -7.96875q1.8125 0 2.703125 0.921875q0.890625 0.90625 0.890625 2.765625l0 4.84375q0 0.421875 -0.25 0.65625q-0.234375 0.234375 -0.671875 0.234375q-0.40625 0 -0.65625 -0.234375q-0.234375 -0.25 -0.234375 -0.65625l0 -0.703125q-0.359375 0.796875 -1.0625 1.21875q-0.6875 0.40625 -1.625 0.40625q-0.890625 0 -1.640625 -0.359375q-0.734375 -0.359375 -1.171875 -0.984375q-0.421875 -0.640625 -0.421875 -1.453125q-0.015625 -1.0 0.5 -1.5625q0.53125 -0.578125 1.703125 -0.828125q1.171875 -0.25 3.265625 -0.25l0.4375 0l0 -0.546875q0 -1.046875 -0.4375 -1.5q-0.421875 -0.46875 -1.375 -0.46875q-0.65625 0 -1.234375 0.171875q-0.578125 0.15625 -1.265625 0.46875q-0.5 0.28125 -0.71875 0.28125q-0.28125 0 -0.453125 -0.203125q-0.171875 -0.203125 -0.171875 -0.515625q0 -0.28125 0.15625 -0.5q0.15625 -0.21875 0.515625 -0.421875q0.65625 -0.359375 1.53125 -0.5625q0.875 -0.21875 1.6875 -0.21875zm-0.578125 8.0625q1.03125 0 1.6875 -0.703125q0.65625 -0.703125 0.65625 -1.796875l0 -0.484375l-0.34375 0q-1.453125 0 -2.234375 0.125q-0.78125 0.125 -1.125 0.4375q-0.328125 0.3125 -0.328125 0.890625q0 0.671875 0.484375 1.109375q0.484375 0.421875 1.203125 0.421875zm14.277954 -8.03125q0.421875 0 0.671875 0.265625q0.265625 0.25 0.265625 0.65625l0 7.640625q0 2.09375 -1.109375 3.15625q-1.109375 1.0625 -3.28125 1.0625q-2.015625 0 -3.359375 -0.765625q-0.6875 -0.390625 -0.6875 -0.921875q0 -0.328125 0.171875 -0.53125q0.1875 -0.203125 0.4375 -0.203125q0.25 0 0.765625 0.28125q0.671875 0.3125 1.25 0.484375q0.578125 0.1875 1.390625 0.1875q2.5625 0 2.5625 -2.59375l0 -1.4375q-0.390625 0.828125 -1.1875 1.28125q-0.796875 0.453125 -1.859375 0.453125q-1.203125 0 -2.140625 -0.5625q-0.921875 -0.5625 -1.4375 -1.578125q-0.515625 -1.03125 -0.515625 -2.375q0 -1.34375 0.515625 -2.359375q0.53125 -1.03125 1.453125 -1.59375q0.921875 -0.578125 2.125 -0.578125q1.03125 0 1.828125 0.453125q0.796875 0.4375 1.203125 1.265625l0 -0.78125q0 -0.421875 0.25 -0.65625q0.25 -0.25 0.6875 -0.25zm-3.53125 7.53125q1.21875 0 1.90625 -0.796875q0.6875 -0.8125 0.6875 -2.234375q0 -1.390625 -0.6875 -2.203125q-0.671875 -0.8125 -1.90625 -0.8125q-1.234375 0 -1.9375 0.796875q-0.6875 0.796875 -0.6875 2.21875q0 1.421875 0.703125 2.234375q0.71875 0.796875 1.921875 0.796875zm14.225464 -0.53125q0.25 0 0.421875 0.203125q0.171875 0.203125 0.171875 0.53125q0 0.53125 -0.671875 0.90625q-0.65625 0.375 -1.4375 0.578125q-0.765625 0.203125 -1.46875 0.203125q-2.171875 0 -3.421875 -1.25q-1.25 -1.265625 -1.25 -3.453125q0 -1.390625 0.546875 -2.46875q0.5625 -1.09375 1.546875 -1.6875q1.0 -0.59375 2.28125 -0.59375q1.828125 0 2.890625 1.171875q1.0625 1.171875 1.0625 3.171875q0 0.75 -0.671875 0.75l-5.765625 0q0.1875 2.890625 2.78125 2.890625q0.6875 0 1.1875 -0.1875q0.5 -0.1875 1.0625 -0.484375q0.0625 -0.03125 0.3125 -0.15625q0.25 -0.125 0.421875 -0.125zm-3.25 -5.65625q-1.078125 0 -1.734375 0.703125q-0.65625 0.6875 -0.78125 1.9375l4.8125 0q-0.0625 -1.265625 -0.65625 -1.953125q-0.578125 -0.6875 -1.640625 -0.6875z" fill-rule="nonzero"/><path fill="#000000" fill-opacity="0.0" d="m540.60254 233.95229c0 -12.141739 -5.322876 -18.2126 -10.645691 -24.283478c-5.322815 -6.070862 -10.64563 -12.141724 -10.64563 -24.283463" fill-rule="evenodd"/><path stroke="#153570" stroke-width="3.0" stroke-linejoin="round" stroke-linecap="butt" d="m540.60254 233.95229c0 -12.141739 -5.322876 -18.2126 -10.645691 -24.283463c-1.3306885 -1.5177155 -2.661438 -3.035431 -3.9089355 -4.6480103c-0.31188965 -0.40315247 -0.6185913 -0.8122101 -0.9187622 -1.2286987c-0.15008545 -0.20825195 -0.29858398 -0.41835022 -0.44525146 -0.6304779c-0.07336426 -0.106048584 -0.14624023 -0.21263123 -0.21868896 -0.31973267l-0.117370605 -0.17558289" fill-rule="evenodd"/><path fill="#153570" stroke="#153570" stroke-width="3.0" stroke-linecap="butt" d="m529.1051 201.27979l-8.566711 -11.683914l-0.9477539 14.456985z" fill-rule="evenodd"/><path fill="#000000" fill-opacity="0.0" d="m618.292 358.9813l249.63782 0l0 41.82675l-249.63782 0z" fill-rule="evenodd"/><path fill="#ff8900" d="m657.4957 386.97092q-1.421875 0 -2.703125 -0.390625q-1.265625 -0.40625 -2.03125 -1.09375q-0.359375 -0.296875 -0.359375 -0.765625q0 -0.328125 0.1875 -0.5625q0.1875 -0.234375 0.453125 -0.234375q0.25 0 0.625 0.234375q1.671875 1.234375 3.796875 1.234375q1.484375 0 2.28125 -0.546875q0.8125 -0.5625 0.8125 -1.609375q0 -0.828125 -0.75 -1.234375q-0.75 -0.40625 -2.390625 -0.78125q-1.5625 -0.34375 -2.578125 -0.765625q-1.0 -0.4375 -1.578125 -1.171875q-0.5625 -0.734375 -0.5625 -1.875q0 -1.140625 0.625 -2.015625q0.625 -0.890625 1.75 -1.375q1.125 -0.5 2.546875 -0.5q1.328125 0 2.453125 0.375q1.125 0.359375 1.90625 1.09375q0.375 0.3125 0.375 0.765625q0 0.3125 -0.203125 0.5625q-0.203125 0.234375 -0.453125 0.234375q-0.25 0 -0.625 -0.234375q-0.859375 -0.65625 -1.609375 -0.9375q-0.75 -0.296875 -1.8125 -0.296875q-1.4375 0 -2.25 0.59375q-0.796875 0.578125 -0.796875 1.625q0 0.890625 0.703125 1.359375q0.71875 0.453125 2.28125 0.828125q1.640625 0.375 2.65625 0.78125q1.015625 0.390625 1.625 1.09375q0.609375 0.703125 0.609375 1.796875q0 1.125 -0.625 2.0q-0.625 0.859375 -1.765625 1.34375q-1.125 0.46875 -2.59375 0.46875zm12.056824 -9.484375q3.25 0 3.25 3.671875l0 4.859375q0 0.40625 -0.265625 0.65625q-0.265625 0.234375 -0.6875 0.234375q-0.4375 0 -0.6875 -0.234375q-0.25 -0.25 -0.25 -0.65625l0 -4.84375q0 -1.109375 -0.46875 -1.625q-0.453125 -0.53125 -1.421875 -0.53125q-1.125 0 -1.828125 0.71875q-0.6875 0.703125 -0.6875 1.890625l0 4.390625q0 0.40625 -0.25 0.65625q-0.25 0.234375 -0.6875 0.234375q-0.421875 0 -0.6875 -0.234375q-0.25 -0.25 -0.25 -0.65625l0 -11.546875q0 -0.421875 0.265625 -0.65625q0.265625 -0.25 0.703125 -0.25q0.40625 0 0.65625 0.234375q0.25 0.234375 0.25 0.625l0 4.671875q0.46875 -0.78125 1.25 -1.1875q0.78125 -0.421875 1.796875 -0.421875zm12.949158 7.03125q0.25 0 0.421875 0.203125q0.171875 0.203125 0.171875 0.53125q0 0.53125 -0.671875 0.90625q-0.65625 0.375 -1.4375 0.578125q-0.765625 0.203125 -1.46875 0.203125q-2.171875 0 -3.421875 -1.25q-1.25 -1.265625 -1.25 -3.453125q0 -1.390625 0.546875 -2.46875q0.5625 -1.09375 1.546875 -1.6875q1.0 -0.59375 2.28125 -0.59375q1.828125 0 2.890625 1.171875q1.0625 1.171875 1.0625 3.171875q0 0.75 -0.671875 0.75l-5.765625 0q0.1875 2.890625 2.78125 2.890625q0.6875 0 1.1875 -0.1875q0.5 -0.1875 1.0625 -0.484375q0.0625 -0.03125 0.3125 -0.15625q0.25 -0.125 0.421875 -0.125zm-3.25 -5.65625q-1.078125 0 -1.734375 0.703125q-0.65625 0.6875 -0.78125 1.9375l4.8125 0q-0.0625 -1.265625 -0.65625 -1.953125q-0.578125 -0.6875 -1.640625 -0.6875zm13.119141 5.65625q0.25 0 0.421875 0.203125q0.171875 0.203125 0.171875 0.53125q0 0.53125 -0.671875 0.90625q-0.65625 0.375 -1.4375 0.578125q-0.765625 0.203125 -1.46875 0.203125q-2.171875 0 -3.421875 -1.25q-1.25 -1.265625 -1.25 -3.453125q0 -1.390625 0.546875 -2.46875q0.5625 -1.09375 1.546875 -1.6875q1.0 -0.59375 2.28125 -0.59375q1.828125 0 2.890625 1.171875q1.0625 1.171875 1.0625 3.171875q0 0.75 -0.671875 0.75l-5.765625 0q0.1875 2.890625 2.78125 2.890625q0.6875 0 1.1875 -0.1875q0.5 -0.1875 1.0625 -0.484375q0.0625 -0.03125 0.3125 -0.15625q0.25 -0.125 0.421875 -0.125zm-3.25 -5.65625q-1.078125 0 -1.734375 0.703125q-0.65625 0.6875 -0.78125 1.9375l4.8125 0q-0.0625 -1.265625 -0.65625 -1.953125q-0.578125 -0.6875 -1.640625 -0.6875zm10.353943 6.609375q0.40625 0.03125 0.578125 0.21875q0.1875 0.171875 0.1875 0.484375q0 0.375 -0.296875 0.578125q-0.28125 0.1875 -0.84375 0.15625l-0.5 -0.03125q-1.515625 -0.125 -2.265625 -0.921875q-0.734375 -0.8125 -0.734375 -2.40625l0 -4.390625l-1.125 0q-0.828125 0 -0.828125 -0.71875q0 -0.34375 0.21875 -0.53125q0.21875 -0.203125 0.609375 -0.203125l1.125 0l0 -1.921875q0 -0.421875 0.25 -0.65625q0.25 -0.25 0.671875 -0.25q0.4375 0 0.6875 0.25q0.265625 0.234375 0.265625 0.65625l0 1.921875l1.84375 0q0.390625 0 0.609375 0.203125q0.21875 0.1875 0.21875 0.53125q0 0.359375 -0.21875 0.546875q-0.21875 0.171875 -0.609375 0.171875l-1.84375 0l0 4.515625q0 0.890625 0.359375 1.296875q0.375 0.40625 1.125 0.46875l0.515625 0.03125zm5.3043823 1.46875q-1.90625 0 -3.125 -0.78125q-0.328125 -0.203125 -0.46875 -0.421875q-0.140625 -0.234375 -0.140625 -0.5q0 -0.3125 0.15625 -0.515625q0.171875 -0.203125 0.4375 -0.203125q0.234375 0 0.765625 0.296875q0.5625 0.296875 1.09375 0.484375q0.53125 0.1875 1.328125 0.1875q0.890625 0 1.390625 -0.3125q0.515625 -0.3125 0.515625 -0.890625q0 -0.375 -0.203125 -0.59375q-0.1875 -0.234375 -0.671875 -0.40625q-0.484375 -0.1875 -1.4375 -0.390625q-1.640625 -0.34375 -2.359375 -0.953125q-0.71875 -0.609375 -0.71875 -1.65625q0 -0.796875 0.46875 -1.4375q0.46875 -0.65625 1.28125 -1.0q0.828125 -0.359375 1.875 -0.359375q0.734375 0 1.4375 0.203125q0.71875 0.1875 1.265625 0.5625q0.609375 0.40625 0.609375 0.953125q0 0.296875 -0.1875 0.5q-0.171875 0.203125 -0.40625 0.203125q-0.171875 0 -0.34375 -0.0625q-0.15625 -0.078125 -0.4375 -0.25q-0.515625 -0.296875 -0.953125 -0.46875q-0.4375 -0.171875 -1.078125 -0.171875q-0.796875 0 -1.28125 0.34375q-0.46875 0.328125 -0.46875 0.90625q0 0.53125 0.4375 0.828125q0.453125 0.28125 1.65625 0.53125q1.25 0.265625 1.953125 0.609375q0.71875 0.328125 1.015625 0.828125q0.3125 0.484375 0.3125 1.25q0 1.21875 -1.015625 1.953125q-1.015625 0.734375 -2.703125 0.734375zm14.698853 0q-1.34375 0 -2.359375 -0.578125q-1.015625 -0.578125 -1.578125 -1.640625q-0.546875 -1.078125 -0.546875 -2.5q0 -1.4375 0.546875 -2.5q0.5625 -1.078125 1.578125 -1.65625q1.015625 -0.578125 2.359375 -0.578125q1.34375 0 2.359375 0.578125q1.015625 0.578125 1.5625 1.65625q0.546875 1.0625 0.546875 2.5q0 1.421875 -0.546875 2.5q-0.546875 1.0625 -1.5625 1.640625q-1.015625 0.578125 -2.359375 0.578125zm0 -1.484375q1.25 0 1.90625 -0.8125q0.65625 -0.828125 0.65625 -2.421875q0 -1.5625 -0.671875 -2.390625q-0.65625 -0.828125 -1.890625 -0.828125q-1.234375 0 -1.90625 0.828125q-0.671875 0.828125 -0.671875 2.390625q0 1.59375 0.65625 2.421875q0.671875 0.8125 1.921875 0.8125zm10.812866 -10.359375q-0.921875 0.078125 -1.375 0.59375q-0.453125 0.515625 -0.453125 1.5l0 0.515625l1.84375 0q0.390625 0 0.609375 0.203125q0.21875 0.1875 0.21875 0.53125q0 0.328125 -0.21875 0.53125q-0.21875 0.1875 -0.609375 0.1875l-1.84375 0l0 6.828125q0 0.453125 -0.265625 0.6875q-0.265625 0.234375 -0.6875 0.234375q-0.40625 0 -0.671875 -0.234375q-0.25 -0.234375 -0.25 -0.6875l0 -6.828125l-1.125 0q-0.390625 0 -0.609375 -0.1875q-0.21875 -0.203125 -0.21875 -0.53125q0 -0.34375 0.21875 -0.53125q0.21875 -0.203125 0.609375 -0.203125l1.125 0l0 -0.234375q0 -1.71875 0.875 -2.6875q0.875 -0.984375 2.484375 -1.109375l0.484375 -0.03125q0.59375 -0.03125 0.859375 0.140625q0.265625 0.15625 0.265625 0.53125q0 0.65625 -0.78125 0.75l-0.484375 0.03125zm7.961975 11.8125q-0.40625 0 -0.671875 -0.21875q-0.265625 -0.234375 -0.265625 -0.671875l0 -7.578125q0 -0.453125 0.265625 -0.6875q0.265625 -0.234375 0.671875 -0.234375q0.421875 0 0.671875 0.234375q0.265625 0.234375 0.265625 0.6875l0 7.578125q0 0.4375 -0.265625 0.671875q-0.25 0.21875 -0.671875 0.21875zm0.015625 -11.21875q-0.546875 0 -0.859375 -0.296875q-0.3125 -0.296875 -0.3125 -0.78125q0 -0.484375 0.3125 -0.765625q0.3125 -0.296875 0.859375 -0.296875q0.515625 0 0.84375 0.296875q0.328125 0.28125 0.328125 0.765625q0 0.484375 -0.3125 0.78125q-0.3125 0.296875 -0.859375 0.296875zm8.4678955 1.796875q3.265625 0 3.265625 3.671875l0 4.859375q0 0.421875 -0.265625 0.65625q-0.25 0.234375 -0.6875 0.234375q-0.4375 0 -0.6875 -0.234375q-0.25 -0.25 -0.25 -0.65625l0 -4.765625q0 -1.15625 -0.46875 -1.6875q-0.453125 -0.546875 -1.421875 -0.546875q-1.125 0 -1.828125 0.71875q-0.6875 0.703125 -0.6875 1.890625l0 4.390625q0 0.40625 -0.25 0.65625q-0.25 0.234375 -0.6875 0.234375q-0.421875 0 -0.6875 -0.234375q-0.25 -0.25 -0.25 -0.65625l0 -7.59375q0 -0.390625 0.265625 -0.640625q0.265625 -0.265625 0.671875 -0.265625q0.421875 0 0.65625 0.25q0.25 0.234375 0.25 0.640625l0 0.75q0.4375 -0.8125 1.234375 -1.234375q0.8125 -0.4375 1.828125 -0.4375zm9.011658 9.453125q-1.90625 0 -3.125 -0.78125q-0.328125 -0.203125 -0.46875 -0.421875q-0.140625 -0.234375 -0.140625 -0.5q0 -0.3125 0.15625 -0.515625q0.171875 -0.203125 0.4375 -0.203125q0.234375 0 0.765625 0.296875q0.5625 0.296875 1.09375 0.484375q0.53125 0.1875 1.328125 0.1875q0.890625 0 1.390625 -0.3125q0.515625 -0.3125 0.515625 -0.890625q0 -0.375 -0.203125 -0.59375q-0.1875 -0.234375 -0.671875 -0.40625q-0.484375 -0.1875 -1.4375 -0.390625q-1.640625 -0.34375 -2.359375 -0.953125q-0.71875 -0.609375 -0.71875 -1.65625q0 -0.796875 0.46875 -1.4375q0.46875 -0.65625 1.28125 -1.0q0.828125 -0.359375 1.875 -0.359375q0.734375 0 1.4375 0.203125q0.71875 0.1875 1.265625 0.5625q0.609375 0.40625 0.609375 0.953125q0 0.296875 -0.1875 0.5q-0.171875 0.203125 -0.40625 0.203125q-0.171875 0 -0.34375 -0.0625q-0.15625 -0.078125 -0.4375 -0.25q-0.515625 -0.296875 -0.953125 -0.46875q-0.4375 -0.171875 -1.078125 -0.171875q-0.796875 0 -1.28125 0.34375q-0.46875 0.328125 -0.46875 0.90625q0 0.53125 0.4375 0.828125q0.453125 0.28125 1.65625 0.53125q1.25 0.265625 1.953125 0.609375q0.71875 0.328125 1.015625 0.828125q0.3125 0.484375 0.3125 1.25q0 1.21875 -1.015625 1.953125q-1.015625 0.734375 -2.703125 0.734375zm10.180237 -1.46875q0.40625 0.03125 0.578125 0.21875q0.1875 0.171875 0.1875 0.484375q0 0.375 -0.296875 0.578125q-0.28125 0.1875 -0.84375 0.15625l-0.5 -0.03125q-1.515625 -0.125 -2.265625 -0.921875q-0.734375 -0.8125 -0.734375 -2.40625l0 -4.390625l-1.125 0q-0.828125 0 -0.828125 -0.71875q0 -0.34375 0.21875 -0.53125q0.21875 -0.203125 0.609375 -0.203125l1.125 0l0 -1.921875q0 -0.421875 0.25 -0.65625q0.25 -0.25 0.671875 -0.25q0.4375 0 0.6875 0.25q0.265625 0.234375 0.265625 0.65625l0 1.921875l1.84375 0q0.390625 0 0.609375 0.203125q0.21875 0.1875 0.21875 0.53125q0 0.359375 -0.21875 0.546875q-0.21875 0.171875 -0.609375 0.171875l-1.84375 0l0 4.515625q0 0.890625 0.359375 1.296875q0.375 0.40625 1.125 0.46875l0.515625 0.03125zm6.8981323 -7.953125q0.90625 -0.046875 0.90625 0.765625q0 0.421875 -0.21875 0.625q-0.203125 0.203125 -0.703125 0.234375l-0.5625 0.0625q-1.171875 0.109375 -1.75 0.828125q-0.5625 0.703125 -0.5625 1.703125l0 4.28125q0 0.4375 -0.265625 0.671875q-0.25 0.21875 -0.671875 0.21875q-0.40625 0 -0.671875 -0.21875q-0.265625 -0.234375 -0.265625 -0.671875l0 -7.59375q0 -0.4375 0.265625 -0.671875q0.265625 -0.234375 0.671875 -0.234375q0.375 0 0.625 0.234375q0.265625 0.234375 0.265625 0.65625l0 0.890625q0.359375 -0.828125 1.0625 -1.25q0.71875 -0.4375 1.625 -0.5l0.25 -0.03125zm9.109436 0q0.421875 0 0.671875 0.25q0.265625 0.234375 0.265625 0.671875l0 7.59375q0 0.390625 -0.265625 0.640625q-0.265625 0.234375 -0.6875 0.234375q-0.390625 0 -0.640625 -0.234375q-0.234375 -0.234375 -0.234375 -0.625l0 -0.703125q-0.4375 0.78125 -1.203125 1.1875q-0.75 0.40625 -1.671875 0.40625q-3.328125 0 -3.328125 -3.65625l0 -4.84375q0 -0.4375 0.25 -0.671875q0.25 -0.25 0.703125 -0.25q0.4375 0 0.6875 0.25q0.25 0.234375 0.25 0.671875l0 4.828125q0 1.109375 0.4375 1.625q0.453125 0.515625 1.390625 0.515625q1.09375 0 1.75 -0.703125q0.671875 -0.703125 0.671875 -1.890625l0 -4.375q0 -0.40625 0.25 -0.65625q0.265625 -0.265625 0.703125 -0.265625zm7.4591675 9.421875q-1.328125 0 -2.328125 -0.578125q-0.984375 -0.578125 -1.546875 -1.640625q-0.546875 -1.0625 -0.546875 -2.453125q0 -1.421875 0.5625 -2.5q0.578125 -1.09375 1.59375 -1.6875q1.03125 -0.59375 2.359375 -0.59375q0.703125 0 1.421875 0.203125q0.71875 0.203125 1.28125 0.5625q0.59375 0.40625 0.59375 0.953125q0 0.3125 -0.171875 0.53125q-0.15625 0.21875 -0.421875 0.21875q-0.171875 0 -0.34375 -0.078125q-0.15625 -0.09375 -0.421875 -0.265625q-0.46875 -0.296875 -0.875 -0.453125q-0.390625 -0.15625 -0.953125 -0.15625q-1.265625 0 -1.96875 0.859375q-0.6875 0.859375 -0.6875 2.375q0 1.53125 0.6875 2.375q0.6875 0.828125 1.953125 0.828125q0.5625 0 0.984375 -0.171875q0.4375 -0.171875 0.875 -0.453125q0.21875 -0.125 0.421875 -0.21875q0.203125 -0.09375 0.375 -0.09375q0.25 0 0.421875 0.21875q0.171875 0.203125 0.171875 0.53125q0 0.25 -0.140625 0.46875q-0.140625 0.21875 -0.484375 0.4375q-0.546875 0.375 -1.296875 0.578125q-0.75 0.203125 -1.515625 0.203125zm9.610779 -1.46875q0.40625 0.03125 0.578125 0.21875q0.1875 0.171875 0.1875 0.484375q0 0.375 -0.296875 0.578125q-0.28125 0.1875 -0.84375 0.15625l-0.5 -0.03125q-1.515625 -0.125 -2.265625 -0.921875q-0.734375 -0.8125 -0.734375 -2.40625l0 -4.390625l-1.125 0q-0.828125 0 -0.828125 -0.71875q0 -0.34375 0.21875 -0.53125q0.21875 -0.203125 0.609375 -0.203125l1.125 0l0 -1.921875q0 -0.421875 0.25 -0.65625q0.25 -0.25 0.671875 -0.25q0.4375 0 0.6875 0.25q0.265625 0.234375 0.265625 0.65625l0 1.921875l1.84375 0q0.390625 0 0.609375 0.203125q0.21875 0.1875 0.21875 0.53125q0 0.359375 -0.21875 0.546875q-0.21875 0.171875 -0.609375 0.171875l-1.84375 0l0 4.515625q0 0.890625 0.359375 1.296875q0.375 0.40625 1.125 0.46875l0.515625 0.03125zm3.0700684 1.4375q-0.40625 0 -0.671875 -0.21875q-0.265625 -0.234375 -0.265625 -0.671875l0 -7.578125q0 -0.453125 0.265625 -0.6875q0.265625 -0.234375 0.671875 -0.234375q0.421875 0 0.671875 0.234375q0.265625 0.234375 0.265625 0.6875l0 7.578125q0 0.4375 -0.265625 0.671875q-0.25 0.21875 -0.671875 0.21875zm0.015625 -11.21875q-0.546875 0 -0.859375 -0.296875q-0.3125 -0.296875 -0.3125 -0.78125q0 -0.484375 0.3125 -0.765625q0.3125 -0.296875 0.859375 -0.296875q0.515625 0 0.84375 0.296875q0.328125 0.28125 0.328125 0.765625q0 0.484375 -0.3125 0.78125q-0.3125 0.296875 -0.859375 0.296875zm7.5148315 11.25q-1.34375 0 -2.359375 -0.578125q-1.015625 -0.578125 -1.578125 -1.640625q-0.546875 -1.078125 -0.546875 -2.5q0 -1.4375 0.546875 -2.5q0.5625 -1.078125 1.578125 -1.65625q1.015625 -0.578125 2.359375 -0.578125q1.34375 0 2.359375 0.578125q1.015625 0.578125 1.5625 1.65625q0.546875 1.0625 0.546875 2.5q0 1.421875 -0.546875 2.5q-0.546875 1.0625 -1.5625 1.640625q-1.015625 0.578125 -2.359375 0.578125zm0 -1.484375q1.25 0 1.90625 -0.8125q0.65625 -0.828125 0.65625 -2.421875q0 -1.5625 -0.671875 -2.390625q-0.65625 -0.828125 -1.890625 -0.828125q-1.234375 0 -1.90625 0.828125q-0.671875 0.828125 -0.671875 2.390625q0 1.59375 0.65625 2.421875q0.671875 0.8125 1.921875 0.8125zm11.47522 -7.96875q3.265625 0 3.265625 3.671875l0 4.859375q0 0.421875 -0.265625 0.65625q-0.25 0.234375 -0.6875 0.234375q-0.4375 0 -0.6875 -0.234375q-0.25 -0.25 -0.25 -0.65625l0 -4.765625q0 -1.15625 -0.46875 -1.6875q-0.453125 -0.546875 -1.421875 -0.546875q-1.125 0 -1.828125 0.71875q-0.6875 0.703125 -0.6875 1.890625l0 4.390625q0 0.40625 -0.25 0.65625q-0.25 0.234375 -0.6875 0.234375q-0.421875 0 -0.6875 -0.234375q-0.25 -0.25 -0.25 -0.65625l0 -7.59375q0 -0.390625 0.265625 -0.640625q0.265625 -0.265625 0.671875 -0.265625q0.421875 0 0.65625 0.25q0.25 0.234375 0.25 0.640625l0 0.75q0.4375 -0.8125 1.234375 -1.234375q0.8125 -0.4375 1.828125 -0.4375zm9.011658 9.453125q-1.90625 0 -3.125 -0.78125q-0.328125 -0.203125 -0.46875 -0.421875q-0.140625 -0.234375 -0.140625 -0.5q0 -0.3125 0.15625 -0.515625q0.171875 -0.203125 0.4375 -0.203125q0.234375 0 0.765625 0.296875q0.5625 0.296875 1.09375 0.484375q0.53125 0.1875 1.328125 0.1875q0.890625 0 1.390625 -0.3125q0.515625 -0.3125 0.515625 -0.890625q0 -0.375 -0.203125 -0.59375q-0.1875 -0.234375 -0.671875 -0.40625q-0.484375 -0.1875 -1.4375 -0.390625q-1.640625 -0.34375 -2.359375 -0.953125q-0.71875 -0.609375 -0.71875 -1.65625q0 -0.796875 0.46875 -1.4375q0.46875 -0.65625 1.28125 -1.0q0.828125 -0.359375 1.875 -0.359375q0.734375 0 1.4375 0.203125q0.71875 0.1875 1.265625 0.5625q0.609375 0.40625 0.609375 0.953125q0 0.296875 -0.1875 0.5q-0.171875 0.203125 -0.40625 0.203125q-0.171875 0 -0.34375 -0.0625q-0.15625 -0.078125 -0.4375 -0.25q-0.515625 -0.296875 -0.953125 -0.46875q-0.4375 -0.171875 -1.078125 -0.171875q-0.796875 0 -1.28125 0.34375q-0.46875 0.328125 -0.46875 0.90625q0 0.53125 0.4375 0.828125q0.453125 0.28125 1.65625 0.53125q1.25 0.265625 1.953125 0.609375q0.71875 0.328125 1.015625 0.828125q0.3125 0.484375 0.3125 1.25q0 1.21875 -1.015625 1.953125q-1.015625 0.734375 -2.703125 0.734375z" fill-rule="nonzero"/><path fill="#000000" fill-opacity="0.0" d="m726.63824 295.8471c0 11.771637 8.2283325 17.65747 16.456726 23.543304c8.2283325 5.885803 16.456665 11.771637 16.456665 23.543304" fill-rule="evenodd"/><path stroke="#ff8900" stroke-width="3.0" stroke-linejoin="round" stroke-linecap="butt" d="m726.6383 295.8471c0 11.771637 8.2283325 17.65747 16.456665 23.543304c2.0570679 1.4714355 4.114197 2.9429016 6.0426636 4.506317c0.96429443 0.78170776 1.8964233 1.5864258 2.7803345 2.4256287l0.21826172 0.20977783" fill-rule="evenodd"/><path fill="#ff8900" stroke="#ff8900" stroke-width="3.0" stroke-linecap="butt" d="m747.6211 328.57352l10.12384 10.363953l-1.0935059 -14.446716z" fill-rule="evenodd"/></g></svg>