<svg version="1.1" viewBox="0.0 0.0 960.0 540.0" fill="none" stroke="none" stroke-linecap="square" stroke-miterlimit="10" xmlns:xlink="http://www.w3.org/1999/xlink" xmlns="http://www.w3.org/2000/svg"><clipPath id="g8ed9875dd8_0_50.0"><path d="m0 0l960.0 0l0 540.0l-960.0 0l0 -540.0z" clip-rule="nonzero"/></clipPath><g clip-path="url(#g8ed9875dd8_0_50.0)"><path fill="#ffffff" d="m0 0l960.0 0l0 540.0l-960.0 0z" fill-rule="evenodd"/><path fill="#000000" fill-opacity="0.0" d="m90.11155 210.94357l755.1811 0l0 99.811035l-755.1811 0z" fill-rule="evenodd"/><path fill="#39b7c2" d="m149.23163 242.1897q1.859375 0 2.984375 1.125q1.125 1.109375 1.125 2.984375l0 29.90625q0 1.875 -1.125 3.015625q-1.125 1.140625 -2.984375 1.140625q-1.875 0 -2.96875 -1.109375q-1.09375 -1.125 -1.09375 -3.046875l0 -11.9375l-17.328117 0l0 11.9375q0 1.875 -1.125 3.015625q-1.109375 1.140625 -2.921875 1.140625q-1.875 0 -3.0 -1.109375q-1.109375 -1.125 -1.109375 -3.046875l0 -29.90625q0 -1.875 1.109375 -2.984375q1.125 -1.125 3.0 -1.125q1.859375 0 2.953125 1.125q1.09375 1.109375 1.09375 2.984375l0 11.359375l17.328117 0l0 -11.359375q0 -1.875 1.09375 -2.984375q1.09375 -1.125 2.96875 -1.125z" fill-rule="nonzero"/><path fill="#39b7c2" d="m178.72255 255.36157q0.421875 -0.96875 1.140625 -1.421875q0.71875 -0.453125 1.578125 -0.453125q1.21875 0 2.203125 0.828125q1.0 0.828125 1.0 2.0625q0 0.578125 -0.328125 1.21875l-14.5625 30.5q-0.90625 1.8125 -2.828125 1.8125q-1.21875 0 -2.15625 -0.78125q-0.9375 -0.765625 -0.9375 -1.9375q0 -0.578125 0.328125 -1.328125l3.625 -7.625l-9.921875 -20.640625q-0.265625 -0.53125 -0.265625 -1.21875q0 -1.234375 1.03125 -2.078125q1.046875 -0.859375 2.390625 -0.859375q0.90625 0 1.640625 0.453125q0.75 0.453125 1.171875 1.40625l7.46875 16.484375l7.421875 -16.421875zm24.847427 -2.03125q3.359375 0 6.0 1.71875q2.640625 1.703125 4.109375 4.828125q1.46875 3.109375 1.46875 7.15625q0 4.0625 -1.46875 7.109375q-1.46875 3.03125 -4.09375 4.6875q-2.609375 1.640625 -6.015625 1.640625q-2.78125 0 -4.96875 -1.171875q-2.171875 -1.171875 -3.359375 -3.25l0 10.875q0 1.390625 -0.90625 2.1875q-0.90625 0.796875 -2.390625 0.796875q-1.5 0 -2.4375 -0.859375q-0.921875 -0.84375 -0.921875 -2.234375l0 -30.234375q0 -1.4375 0.875 -2.28125q0.875 -0.859375 2.375 -0.859375q1.5 0 2.40625 0.859375q0.90625 0.84375 0.90625 2.28125l0 1.34375q1.171875 -2.1875 3.375 -3.390625q2.21875 -1.203125 5.046875 -1.203125zm-1.765625 21.96875q3.15625 0 4.90625 -2.15625q1.765625 -2.15625 1.765625 -6.109375q0 -4.046875 -1.765625 -6.28125q-1.75 -2.25 -4.90625 -2.25q-3.203125 0 -4.9375 2.1875q-1.71875 2.1875 -1.71875 6.234375q0 4.0 1.71875 6.1875q1.734375 2.1875 4.9375 2.1875zm39.47203 -2.390625q0.90625 0 1.453125 0.6875q0.5625 0.6875 0.5625 1.859375q0 1.65625 -1.96875 2.78125q-1.8125 1.015625 -4.109375 1.625q-2.28125 0.609375 -4.375 0.609375q-6.28125 0 -9.96875 -3.625q-3.671875 -3.625 -3.671875 -9.921875q0 -4.0 1.59375 -7.078125q1.59375 -3.09375 4.5 -4.796875q2.90625 -1.71875 6.59375 -1.71875q3.515625 0 6.125 1.546875q2.625 1.546875 4.0625 4.375q1.4375 2.828125 1.4375 6.671875q0 2.28125 -2.03125 2.28125l-15.734375 0q0.328125 3.6875 2.078125 5.421875q1.765625 1.734375 5.125 1.734375q1.703125 0 3.015625 -0.421875q1.3125 -0.4375 2.96875 -1.1875q1.59375 -0.84375 2.34375 -0.84375zm-9.234375 -14.890625q-2.71875 0 -4.34375 1.71875q-1.625 1.703125 -1.953125 4.90625l12.0625 0q-0.109375 -3.265625 -1.609375 -4.9375q-1.484375 -1.6875 -4.15625 -1.6875zm31.473434 -4.578125q1.375 -0.109375 2.171875 0.59375q0.8125 0.6875 0.8125 2.078125q0 1.4375 -0.703125 2.125q-0.6875 0.6875 -2.5 0.90625l-1.59375 0.15625q-3.15625 0.328125 -4.625 2.140625q-1.46875 1.8125 -1.46875 4.53125l0 11.203125q0 1.546875 -0.953125 2.375q-0.953125 0.8125 -2.40625 0.8125q-1.4375 0 -2.375 -0.8125q-0.921875 -0.828125 -0.921875 -2.375l0 -20.640625q0 -1.5 0.921875 -2.296875q0.9375 -0.796875 2.328125 -0.796875q1.390625 0 2.234375 0.78125q0.859375 0.765625 0.859375 2.203125l0 2.140625q1.015625 -2.359375 3.015625 -3.625q2.0 -1.28125 4.453125 -1.453125l0.75 -0.046875z" fill-rule="nonzero"/><path fill="#ffb435" d="m283.5651 274.5022q1.59375 0.109375 2.34375 0.8125q0.75 0.6875 0.75 2.015625q0 1.546875 -1.234375 2.34375q-1.21875 0.796875 -3.515625 0.640625l-1.5 -0.109375q-9.328125 -0.75 -9.328125 -9.75l0 -10.5625l-2.125 0q-1.765625 0 -2.671875 -0.765625q-0.90625 -0.78125 -0.90625 -2.21875q0 -1.5 0.90625 -2.265625q0.90625 -0.78125 2.671875 -0.78125l2.125 0l0 -4.15625q0 -1.765625 1.09375 -2.765625q1.09375 -1.015625 2.953125 -1.015625q1.875 0 2.9375 1.015625q1.0625 1.0 1.0625 2.765625l0 4.15625l3.734375 0q3.625 0 3.625 3.046875q0 1.4375 -0.90625 2.21875q-0.90625 0.765625 -2.71875 0.765625l-3.734375 0l0 11.140625q0 1.609375 0.75 2.4375q0.75 0.8125 2.1875 0.921875l1.5 0.109375z" fill-rule="nonzero"/><path fill="#ffb435" d="m310.65616 272.90845q0.90625 0 1.453125 0.6875q0.5625 0.6875 0.5625 1.859375q0 1.65625 -1.96875 2.78125q-1.8125 1.015625 -4.109375 1.625q-2.28125 0.609375 -4.375 0.609375q-6.28125 0 -9.96875 -3.625q-3.671875 -3.625 -3.671875 -9.921875q0 -4.0 1.59375 -7.078125q1.59375 -3.09375 4.5 -4.796875q2.90625 -1.71875 6.59375 -1.71875q3.515625 0 6.125 1.546875q2.625 1.546875 4.0625 4.375q1.4375 2.828125 1.4375 6.671875q0 2.28125 -2.03125 2.28125l-15.734375 0q0.328125 3.6875 2.078125 5.421875q1.765625 1.734375 5.125 1.734375q1.703125 0 3.015625 -0.421875q1.3125 -0.4375 2.96875 -1.1875q1.59375 -0.84375 2.34375 -0.84375zm-9.234375 -14.890625q-2.71875 0 -4.34375 1.71875q-1.625 1.703125 -1.953125 4.90625l12.0625 0q-0.109375 -3.265625 -1.609375 -4.9375q-1.484375 -1.6875 -4.15625 -1.6875zm38.98697 17.125q0.953125 0.953125 0.953125 2.1875q0 1.171875 -0.90625 2.109375q-0.90625 0.921875 -2.125 0.921875q-1.328125 0 -2.296875 -1.109375l-7.515625 -8.328125l-7.515625 8.328125q-1.015625 1.0625 -2.296875 1.0625q-1.171875 0 -2.078125 -0.90625q-0.90625 -0.90625 -0.90625 -2.078125q0 -1.234375 0.953125 -2.1875l7.78125 -8.484375l-7.359375 -8.0q-0.953125 -0.953125 -0.953125 -2.1875q0 -1.21875 0.90625 -2.09375q0.90625 -0.890625 2.078125 -0.890625q1.28125 0 2.296875 1.078125l7.09375 7.78125l7.09375 -7.78125q1.015625 -1.078125 2.296875 -1.078125q1.21875 0 2.09375 0.890625q0.890625 0.875 0.890625 2.09375q0 1.234375 -0.96875 2.1875l-7.359375 8.0l7.84375 8.484375zm19.308014 0.265625q2.65625 0.15625 2.65625 2.40625q0 1.28125 -1.046875 1.953125q-1.03125 0.65625 -2.953125 0.546875l-1.4375 -0.109375q-8.953125 -0.640625 -8.953125 -9.59375l0 -11.625l-2.671875 0q-1.4375 0 -2.21875 -0.640625q-0.765625 -0.640625 -0.765625 -1.875q0 -1.21875 0.765625 -1.859375q0.78125 -0.640625 2.21875 -0.640625l2.671875 0l0 -4.90625q0 -1.4375 0.90625 -2.28125q0.90625 -0.859375 2.453125 -0.859375q1.484375 0 2.390625 0.859375q0.921875 0.84375 0.921875 2.28125l0 4.90625l4.53125 0q1.4375 0 2.203125 0.640625q0.78125 0.640625 0.78125 1.859375q0 1.234375 -0.78125 1.875q-0.765625 0.640625 -2.203125 0.640625l-4.53125 0l0 12.109375q0 3.9375 3.625 4.203125l1.4375 0.109375z" fill-rule="nonzero"/><path fill="#153570" d="m413.94046 242.1897q1.765625 0 2.859375 1.15625q1.09375 1.140625 1.09375 2.953125l0 30.28125q0 1.765625 -1.015625 2.78125q-1.015625 1.0 -2.65625 1.0q-1.609375 0 -2.625 -1.0q-1.015625 -1.015625 -1.015625 -2.78125l0 -18.828125l-7.5625 14.25q-0.75 1.375 -1.640625 2.015625q-0.875 0.640625 -2.09375 0.640625q-1.171875 0 -2.078125 -0.640625q-0.90625 -0.640625 -1.65625 -2.015625l-7.578125 -13.984375l0 18.5625q0 1.703125 -1.015625 2.75q-1.0 1.03125 -2.65625 1.03125q-1.609375 0 -2.625 -1.0q-1.0 -1.015625 -1.0 -2.78125l0 -30.28125q0 -1.8125 1.09375 -2.953125q1.09375 -1.15625 2.84375 -1.15625q2.5625 0 3.890625 2.71875l10.828125 20.53125l10.78125 -20.53125q1.4375 -2.71875 3.828125 -2.71875z" fill-rule="nonzero"/><path fill="#153570" d="m436.4989 253.33032q5.453125 0 8.078125 2.703125q2.640625 2.6875 2.640625 8.171875l0 13.015625q0 1.4375 -0.859375 2.265625q-0.84375 0.828125 -2.328125 0.828125q-1.390625 0 -2.28125 -0.84375q-0.875 -0.859375 -0.875 -2.25l0 -1.171875q-0.90625 2.078125 -2.859375 3.25q-1.9375 1.171875 -4.5 1.171875q-2.609375 0 -4.75 -1.0625q-2.125 -1.0625 -3.359375 -2.921875q-1.21875 -1.875 -1.21875 -4.171875q0 -2.875 1.46875 -4.53125q1.46875 -1.65625 4.765625 -2.390625q3.3125 -0.75 9.125 -0.75l1.328125 0l0 -1.234375q0 -2.609375 -1.125 -3.8125q-1.109375 -1.203125 -3.609375 -1.203125q-1.546875 0 -3.15625 0.453125q-1.59375 0.453125 -3.78125 1.3125q-1.390625 0.6875 -2.03125 0.6875q-0.953125 0 -1.578125 -0.6875q-0.609375 -0.6875 -0.609375 -1.8125q0 -0.90625 0.453125 -1.5625q0.453125 -0.671875 1.515625 -1.265625q1.875 -1.015625 4.453125 -1.59375q2.59375 -0.59375 5.09375 -0.59375zm-1.640625 22.34375q2.65625 0 4.328125 -1.78125q1.6875 -1.796875 1.6875 -4.609375l0 -1.125l-0.953125 0q-3.578125 0 -5.546875 0.328125q-1.96875 0.3125 -2.828125 1.109375q-0.859375 0.796875 -0.859375 2.1875q0 1.703125 1.203125 2.796875q1.203125 1.09375 2.96875 1.09375zm33.7034 -22.234375q1.375 -0.109375 2.171875 0.59375q0.8125 0.6875 0.8125 2.078125q0 1.4375 -0.703125 2.125q-0.6875 0.6875 -2.5 0.90625l-1.59375 0.15625q-3.15625 0.328125 -4.625 2.140625q-1.46875 1.8125 -1.46875 4.53125l0 11.203125q0 1.546875 -0.953125 2.375q-0.953125 0.8125 -2.40625 0.8125q-1.4375 0 -2.375 -0.8125q-0.921875 -0.828125 -0.921875 -2.375l0 -20.640625q0 -1.5 0.921875 -2.296875q0.9375 -0.796875 2.328125 -0.796875q1.390625 0 2.234375 0.78125q0.859375 0.765625 0.859375 2.203125l0 2.140625q1.015625 -2.359375 3.015625 -3.625q2.0 -1.28125 4.453125 -1.453125l0.75 -0.046875zm29.049622 21.4375q1.078125 1.015625 1.078125 2.296875q0 1.21875 -0.890625 2.1875q-0.875 0.953125 -2.046875 0.953125q-1.171875 0 -2.1875 -0.953125l-12.484375 -11.3125l0 9.125q0 1.546875 -0.953125 2.34375q-0.953125 0.796875 -2.40625 0.796875q-1.4375 0 -2.375 -0.796875q-0.921875 -0.796875 -0.921875 -2.34375l0 -31.84375q0 -1.546875 0.921875 -2.34375q0.9375 -0.796875 2.375 -0.796875q1.453125 0 2.40625 0.796875q0.953125 0.796875 0.953125 2.34375l0 20.046875l11.421875 -10.921875q0.953125 -0.96875 2.1875 -0.96875q1.21875 0 2.125 0.90625q0.90625 0.90625 0.90625 2.140625q0 1.21875 -1.015625 2.234375l-8.359375 7.796875l9.265625 8.3125zm25.974457 -21.4375q1.546875 0 2.453125 0.859375q0.90625 0.84375 0.90625 2.28125l0 20.703125q0 1.375 -0.9375 2.234375q-0.921875 0.84375 -2.421875 0.84375q-1.4375 0 -2.296875 -0.796875q-0.84375 -0.796875 -0.84375 -2.1875l0 -1.328125q-1.234375 2.140625 -3.3125 3.28125q-2.078125 1.140625 -4.6875 1.140625q-9.59375 0 -9.59375 -10.765625l0 -13.125q0 -1.4375 0.90625 -2.28125q0.90625 -0.859375 2.390625 -0.859375q1.546875 0 2.453125 0.859375q0.90625 0.84375 0.90625 2.28125l0 13.171875q0 2.78125 1.125 4.109375q1.125 1.328125 3.515625 1.328125q2.78125 0 4.453125 -1.828125q1.6875 -1.84375 1.6875 -4.890625l0 -11.890625q0 -1.4375 0.90625 -2.28125q0.90625 -0.859375 2.390625 -0.859375zm25.283203 -0.109375q3.359375 0 6.0 1.71875q2.640625 1.703125 4.109375 4.828125q1.46875 3.109375 1.46875 7.15625q0 4.0625 -1.46875 7.109375q-1.46875 3.03125 -4.09375 4.6875q-2.609375 1.640625 -6.015625 1.640625q-2.78125 0 -4.96875 -1.171875q-2.171875 -1.171875 -3.359375 -3.25l0 10.875q0 1.390625 -0.90625 2.1875q-0.90625 0.796875 -2.390625 0.796875q-1.5 0 -2.4375 -0.859375q-0.921875 -0.84375 -0.921875 -2.234375l0 -30.234375q0 -1.4375 0.875 -2.28125q0.875 -0.859375 2.375 -0.859375q1.5 0 2.40625 0.859375q0.90625 0.84375 0.90625 2.28125l0 1.34375q1.171875 -2.1875 3.375 -3.390625q2.21875 -1.203125 5.046875 -1.203125zm-1.765625 21.96875q3.15625 0 4.90625 -2.15625q1.765625 -2.15625 1.765625 -6.109375q0 -4.046875 -1.765625 -6.28125q-1.75 -2.25 -4.90625 -2.25q-3.203125 0 -4.9375 2.1875q-1.71875 2.1875 -1.71875 6.234375q0 4.0 1.71875 6.1875q1.734375 2.1875 4.9375 2.1875z" fill-rule="nonzero"/><path fill="#ff8900" d="m584.5429 280.04907q-1.859375 0 -2.875 -1.015625q-1.015625 -1.015625 -1.015625 -2.875l0 -29.859375q0 -1.875 1.109375 -2.984375q1.125 -1.125 3.046875 -1.125q1.921875 0 3.03125 1.125q1.125 1.109375 1.125 2.984375l0 26.984375l13.65625 0q3.890625 0 3.890625 3.40625q0 3.359375 -3.890625 3.359375l-18.078125 0z" fill-rule="nonzero"/><path fill="#ff8900" d="m621.7072 253.33032q5.453125 0 8.078125 2.703125q2.640625 2.6875 2.640625 8.171875l0 13.015625q0 1.4375 -0.859375 2.265625q-0.84375 0.828125 -2.328125 0.828125q-1.390625 0 -2.28125 -0.84375q-0.875 -0.859375 -0.875 -2.25l0 -1.171875q-0.90625 2.078125 -2.859375 3.25q-1.9375 1.171875 -4.5 1.171875q-2.609375 0 -4.75 -1.0625q-2.125 -1.0625 -3.359375 -2.921875q-1.21875 -1.875 -1.21875 -4.171875q0 -2.875 1.46875 -4.53125q1.46875 -1.65625 4.765625 -2.390625q3.3125 -0.75 9.125 -0.75l1.328125 0l0 -1.234375q0 -2.609375 -1.125 -3.8125q-1.109375 -1.203125 -3.609375 -1.203125q-1.546875 0 -3.15625 0.453125q-1.59375 0.453125 -3.78125 1.3125q-1.390625 0.6875 -2.03125 0.6875q-0.953125 0 -1.578125 -0.6875q-0.609375 -0.6875 -0.609375 -1.8125q0 -0.90625 0.453125 -1.5625q0.453125 -0.671875 1.515625 -1.265625q1.875 -1.015625 4.453125 -1.59375q2.59375 -0.59375 5.09375 -0.59375zm-1.640625 22.34375q2.65625 0 4.328125 -1.78125q1.6875 -1.796875 1.6875 -4.609375l0 -1.125l-0.953125 0q-3.578125 0 -5.546875 0.328125q-1.96875 0.3125 -2.828125 1.109375q-0.859375 0.796875 -0.859375 2.1875q0 1.703125 1.203125 2.796875q1.203125 1.09375 2.96875 1.09375zm34.281494 -22.34375q4.6875 0 6.984375 2.671875q2.296875 2.65625 2.296875 8.046875l0 13.125q0 1.484375 -0.890625 2.34375q-0.875 0.84375 -2.421875 0.84375q-1.546875 0 -2.453125 -0.84375q-0.90625 -0.859375 -0.90625 -2.34375l0 -12.75q0 -3.046875 -1.140625 -4.421875q-1.140625 -1.390625 -3.59375 -1.390625q-2.890625 0 -4.625 1.8125q-1.734375 1.8125 -1.734375 4.859375l0 11.890625q0 1.484375 -0.90625 2.34375q-0.90625 0.84375 -2.453125 0.84375q-1.546875 0 -2.421875 -0.84375q-0.875 -0.859375 -0.875 -2.34375l0 -20.640625q0 -1.390625 0.90625 -2.234375q0.90625 -0.859375 2.453125 -0.859375q1.390625 0 2.265625 0.828125q0.875 0.828125 0.875 2.15625l0 1.4375q1.34375 -2.1875 3.578125 -3.359375q2.234375 -1.171875 5.0625 -1.171875zm38.1344 0.109375q1.484375 0 2.390625 0.859375q0.90625 0.84375 0.90625 2.28125l0 21.0625q0 6.140625 -3.40625 9.28125q-3.40625 3.15625 -10.078125 3.15625q-5.8125 0 -9.703125 -2.1875q-1.984375 -1.171875 -1.984375 -2.828125q0 -1.171875 0.5625 -1.875q0.5625 -0.6875 1.46875 -0.6875q0.484375 0 1.171875 0.234375q0.703125 0.25 1.4375 0.5625q1.921875 0.796875 3.4375 1.21875q1.53125 0.4375 3.5 0.4375q6.984375 0 6.984375 -6.828125l0 -3.40625q-1.171875 2.1875 -3.421875 3.390625q-2.234375 1.1875 -5.109375 1.1875q-3.40625 0 -6.046875 -1.625q-2.640625 -1.625 -4.140625 -4.546875q-1.484375 -2.9375 -1.484375 -6.78125q0 -3.84375 1.453125 -6.796875q1.46875 -2.96875 4.140625 -4.59375q2.671875 -1.625 6.078125 -1.625q2.875 0 5.109375 1.203125q2.25 1.203125 3.421875 3.390625l0 -1.390625q0 -1.390625 0.90625 -2.234375q0.90625 -0.859375 2.40625 -0.859375zm-10.078125 20.6875q3.203125 0 4.984375 -2.078125q1.78125 -2.078125 1.78125 -5.703125q0 -3.6875 -1.78125 -5.765625q-1.78125 -2.078125 -4.984375 -2.078125q-3.15625 0 -4.96875 2.078125q-1.8125 2.078125 -1.8125 5.765625q0 3.625 1.8125 5.703125q1.8125 2.078125 4.96875 2.078125zm40.841614 -20.6875q1.546875 0 2.453125 0.859375q0.90625 0.84375 0.90625 2.28125l0 20.703125q0 1.375 -0.9375 2.234375q-0.921875 0.84375 -2.421875 0.84375q-1.4375 0 -2.296875 -0.796875q-0.84375 -0.796875 -0.84375 -2.1875l0 -1.328125q-1.234375 2.140625 -3.3125 3.28125q-2.078125 1.140625 -4.6875 1.140625q-9.59375 0 -9.59375 -10.765625l0 -13.125q0 -1.4375 0.90625 -2.28125q0.90625 -0.859375 2.390625 -0.859375q1.546875 0 2.453125 0.859375q0.90625 0.84375 0.90625 2.28125l0 13.171875q0 2.78125 1.125 4.109375q1.125 1.328125 3.515625 1.328125q2.78125 0 4.453125 -1.828125q1.6875 -1.84375 1.6875 -4.890625l0 -11.890625q0 -1.4375 0.90625 -2.28125q0.90625 -0.859375 2.390625 -0.859375zm21.595703 -0.109375q5.453125 0 8.078125 2.703125q2.640625 2.6875 2.640625 8.171875l0 13.015625q0 1.4375 -0.859375 2.265625q-0.84375 0.828125 -2.328125 0.828125q-1.390625 0 -2.28125 -0.84375q-0.875 -0.859375 -0.875 -2.25l0 -1.171875q-0.90625 2.078125 -2.859375 3.25q-1.9375 1.171875 -4.5 1.171875q-2.609375 0 -4.75 -1.0625q-2.125 -1.0625 -3.359375 -2.921875q-1.21875 -1.875 -1.21875 -4.171875q0 -2.875 1.46875 -4.53125q1.46875 -1.65625 4.765625 -2.390625q3.3125 -0.75 9.125 -0.75l1.328125 0l0 -1.234375q0 -2.609375 -1.125 -3.8125q-1.109375 -1.203125 -3.609375 -1.203125q-1.546875 0 -3.15625 0.453125q-1.59375 0.453125 -3.78125 1.3125q-1.390625 0.6875 -2.03125 0.6875q-0.953125 0 -1.578125 -0.6875q-0.609375 -0.6875 -0.609375 -1.8125q0 -0.90625 0.453125 -1.5625q0.453125 -0.671875 1.515625 -1.265625q1.875 -1.015625 4.453125 -1.59375q2.59375 -0.59375 5.09375 -0.59375zm-1.640625 22.34375q2.65625 0 4.328125 -1.78125q1.6875 -1.796875 1.6875 -4.609375l0 -1.125l-0.953125 0q-3.578125 0 -5.546875 0.328125q-1.96875 0.3125 -2.828125 1.109375q-0.859375 0.796875 -0.859375 2.1875q0 1.703125 1.203125 2.796875q1.203125 1.09375 2.96875 1.09375zm41.218994 -22.234375q1.484375 0 2.390625 0.859375q0.90625 0.84375 0.90625 2.28125l0 21.0625q0 6.140625 -3.40625 9.28125q-3.40625 3.15625 -10.078125 3.15625q-5.8125 0 -9.703125 -2.1875q-1.984375 -1.171875 -1.984375 -2.828125q0 -1.171875 0.5625 -1.875q0.5625 -0.6875 1.46875 -0.6875q0.484375 0 1.171875 0.234375q0.703125 0.25 1.4375 0.5625q1.921875 0.796875 3.4375 1.21875q1.53125 0.4375 3.5 0.4375q6.984375 0 6.984375 -6.828125l0 -3.40625q-1.171875 2.1875 -3.421875 3.390625q-2.234375 1.1875 -5.109375 1.1875q-3.40625 0 -6.046875 -1.625q-2.640625 -1.625 -4.140625 -4.546875q-1.484375 -2.9375 -1.484375 -6.78125q0 -3.84375 1.453125 -6.796875q1.46875 -2.96875 4.140625 -4.59375q2.671875 -1.625 6.078125 -1.625q2.875 0 5.109375 1.203125q2.25 1.203125 3.421875 3.390625l0 -1.390625q0 -1.390625 0.90625 -2.234375q0.90625 -0.859375 2.40625 -0.859375zm-10.078125 20.6875q3.203125 0 4.984375 -2.078125q1.78125 -2.078125 1.78125 -5.703125q0 -3.6875 -1.78125 -5.765625q-1.78125 -2.078125 -4.984375 -2.078125q-3.15625 0 -4.96875 2.078125q-1.8125 2.078125 -1.8125 5.765625q0 3.625 1.8125 5.703125q1.8125 2.078125 4.96875 2.078125zm40.904053 -1.21875q0.90625 0 1.453125 0.6875q0.5625 0.6875 0.5625 1.859375q0 1.65625 -1.96875 2.78125q-1.8125 1.015625 -4.109375 1.625q-2.28125 0.609375 -4.375 0.609375q-6.28125 0 -9.96875 -3.625q-3.671875 -3.625 -3.671875 -9.921875q0 -4.0 1.59375 -7.078125q1.59375 -3.09375 4.5 -4.796875q2.90625 -1.71875 6.59375 -1.71875q3.515625 0 6.125 1.546875q2.625 1.546875 4.0625 4.375q1.4375 2.828125 1.4375 6.671875q0 2.28125 -2.03125 2.28125l-15.734375 0q0.328125 3.6875 2.078125 5.421875q1.765625 1.734375 5.125 1.734375q1.703125 0 3.015625 -0.421875q1.3125 -0.4375 2.96875 -1.1875q1.59375 -0.84375 2.34375 -0.84375zm-9.234375 -14.890625q-2.71875 0 -4.34375 1.71875q-1.625 1.703125 -1.953125 4.90625l12.0625 0q-0.109375 -3.265625 -1.609375 -4.9375q-1.484375 -1.6875 -4.15625 -1.6875z" fill-rule="nonzero"/><path fill="#000000" fill-opacity="0.0" d="m314.14566 239.77034c0 -11.70079 -7.496063 -17.551178 -14.992126 -23.40158c-7.496063 -5.8503876 -14.992126 -11.700775 -14.992126 -23.401566" fill-rule="evenodd"/><path stroke="#ffb435" stroke-width="3.0" stroke-linejoin="round" stroke-linecap="butt" d="m314.14566 239.77034c0 -11.70079 -7.496063 -17.551178 -14.992126 -23.40158c-1.8739929 -1.4625854 -3.7480164 -2.9251862 -5.5049133 -4.4792023c-0.43920898 -0.38848877 -0.87112427 -0.7827301 -1.2938843 -1.1840668c-0.21136475 -0.20069885 -0.42044067 -0.40316772 -0.62701416 -0.60757446c-0.103302 -0.10221863 -0.20593262 -0.20492554 -0.30795288 -0.308136l-0.24105835 -0.2467804" fill-rule="evenodd"/><path fill="#ffb435" stroke="#ffb435" stroke-width="3.0" stroke-linecap="butt" d="m295.74185 207.61122l-9.8706665 -10.605331l0.7444153 14.468887z" fill-rule="evenodd"/><path fill="#000000" fill-opacity="0.0" d="m188.85432 163.11942l192.00002 0l0 23.496063l-192.00002 0z" fill-rule="evenodd"/><path fill="#ffb435" d="m207.1357 181.8812q-0.4375 0 -0.703125 -0.25q-0.25 -0.265625 -0.25 -0.71875l0 -11.40625q0 -0.421875 0.25 -0.6875q0.265625 -0.28125 0.703125 -0.28125q0.4375 0 0.703125 0.265625q0.265625 0.265625 0.265625 0.703125l0 11.40625q0 0.453125 -0.25 0.71875q-0.25 0.25 -0.71875 0.25zm8.262466 -1.4375q0.40625 0.03125 0.578125 0.21875q0.1875 0.171875 0.1875 0.484375q0 0.375 -0.296875 0.578125q-0.28125 0.1875 -0.84375 0.15625l-0.5 -0.03125q-1.515625 -0.125 -2.265625 -0.921875q-0.734375 -0.8125 -0.734375 -2.40625l0 -4.390625l-1.125 0q-0.828125 0 -0.828125 -0.71875q0 -0.34375 0.21875 -0.53125q0.21875 -0.203125 0.609375 -0.203125l1.125 0l0 -1.921875q0 -0.421875 0.25 -0.65625q0.25 -0.25 0.671875 -0.25q0.4375 0 0.6875 0.25q0.265625 0.234375 0.265625 0.65625l0 1.921875l1.84375 0q0.390625 0 0.609375 0.203125q0.21875 0.1875 0.21875 0.53125q0 0.359375 -0.21875 0.546875q-0.21875 0.171875 -0.609375 0.171875l-1.84375 0l0 4.515625q0 0.890625 0.359375 1.296875q0.375 0.40625 1.125 0.46875l0.515625 0.03125zm2.9888763 -11.90625q0.5625 0 0.875 0.421875q0.328125 0.40625 0.328125 1.203125q0 1.59375 -1.0625 2.75q-0.21875 0.21875 -0.484375 0.21875q-0.234375 0 -0.40625 -0.15625q-0.171875 -0.15625 -0.171875 -0.390625q0 -0.203125 0.171875 -0.390625q0.515625 -0.53125 0.671875 -1.28125q-0.46875 -0.03125 -0.78125 -0.34375q-0.296875 -0.328125 -0.296875 -0.8125q0 -0.53125 0.328125 -0.875q0.34375 -0.34375 0.828125 -0.34375zm6.2144012 13.375q-1.90625 0 -3.125 -0.78125q-0.328125 -0.203125 -0.46875 -0.421875q-0.140625 -0.234375 -0.140625 -0.5q0 -0.3125 0.15625 -0.515625q0.171875 -0.203125 0.4375 -0.203125q0.234375 0 0.765625 0.296875q0.5625 0.296875 1.09375 0.484375q0.53125 0.1875 1.328125 0.1875q0.890625 0 1.390625 -0.3125q0.515625 -0.3125 0.515625 -0.890625q0 -0.375 -0.203125 -0.59375q-0.1875 -0.234375 -0.671875 -0.40625q-0.484375 -0.1875 -1.4375 -0.390625q-1.640625 -0.34375 -2.359375 -0.953125q-0.71875 -0.609375 -0.71875 -1.65625q0 -0.796875 0.46875 -1.4375q0.46875 -0.65625 1.28125 -1.0q0.828125 -0.359375 1.875 -0.359375q0.734375 0 1.4375 0.203125q0.71875 0.1875 1.265625 0.5625q0.609375 0.40625 0.609375 0.953125q0 0.296875 -0.1875 0.5q-0.171875 0.203125 -0.40625 0.203125q-0.171875 0 -0.34375 -0.0625q-0.15625 -0.078125 -0.4375 -0.25q-0.515625 -0.296875 -0.953125 -0.46875q-0.4375 -0.171875 -1.078125 -0.171875q-0.796875 0 -1.28125 0.34375q-0.46875 0.328125 -0.46875 0.90625q0 0.53125 0.4375 0.828125q0.453125 0.28125 1.65625 0.53125q1.25 0.265625 1.953125 0.609375q0.71875 0.328125 1.015625 0.828125q0.3125 0.484375 0.3125 1.25q0 1.21875 -1.015625 1.953125q-1.015625 0.734375 -2.703125 0.734375zm9.136307 3.265625q-0.5625 0.046875 -0.859375 -0.140625q-0.296875 -0.1875 -0.296875 -0.578125q0 -0.296875 0.1875 -0.484375q0.1875 -0.171875 0.59375 -0.203125l0.515625 -0.046875q0.734375 -0.03125 1.09375 -0.453125q0.375 -0.40625 0.375 -1.296875l0 -8.5625q0 -0.453125 0.265625 -0.6875q0.265625 -0.234375 0.671875 -0.234375q0.421875 0 0.671875 0.234375q0.265625 0.234375 0.265625 0.6875l0 8.453125q0 1.5625 -0.734375 2.359375q-0.71875 0.8125 -2.25 0.921875l-0.5 0.03125zm2.5625 -14.515625q-0.546875 0 -0.859375 -0.296875q-0.3125 -0.296875 -0.3125 -0.78125q0 -0.484375 0.3125 -0.765625q0.3125 -0.296875 0.859375 -0.296875q0.515625 0 0.84375 0.296875q0.328125 0.28125 0.328125 0.765625q0 0.484375 -0.3125 0.78125q-0.3125 0.296875 -0.859375 0.296875zm10.608566 1.828125q0.421875 0 0.671875 0.25q0.265625 0.234375 0.265625 0.671875l0 7.59375q0 0.390625 -0.265625 0.640625q-0.265625 0.234375 -0.6875 0.234375q-0.390625 0 -0.640625 -0.234375q-0.234375 -0.234375 -0.234375 -0.625l0 -0.703125q-0.4375 0.78125 -1.203125 1.1875q-0.75 0.40625 -1.671875 0.40625q-3.328125 0 -3.328125 -3.65625l0 -4.84375q0 -0.4375 0.25 -0.671875q0.25 -0.25 0.703125 -0.25q0.4375 0 0.6875 0.25q0.25 0.234375 0.25 0.671875l0 4.828125q0 1.109375 0.4375 1.625q0.453125 0.515625 1.390625 0.515625q1.09375 0 1.75 -0.703125q0.671875 -0.703125 0.671875 -1.890625l0 -4.375q0 -0.40625 0.25 -0.65625q0.265625 -0.265625 0.703125 -0.265625zm6.740402 9.421875q-1.90625 0 -3.125 -0.78125q-0.328125 -0.203125 -0.46875 -0.421875q-0.140625 -0.234375 -0.140625 -0.5q0 -0.3125 0.15625 -0.515625q0.171875 -0.203125 0.4375 -0.203125q0.234375 0 0.765625 0.296875q0.5625 0.296875 1.09375 0.484375q0.53125 0.1875 1.328125 0.1875q0.890625 0 1.390625 -0.3125q0.515625 -0.3125 0.515625 -0.890625q0 -0.375 -0.203125 -0.59375q-0.1875 -0.234375 -0.671875 -0.40625q-0.484375 -0.1875 -1.4375 -0.390625q-1.640625 -0.34375 -2.359375 -0.953125q-0.71875 -0.609375 -0.71875 -1.65625q0 -0.796875 0.46875 -1.4375q0.46875 -0.65625 1.28125 -1.0q0.828125 -0.359375 1.875 -0.359375q0.734375 0 1.4375 0.203125q0.71875 0.1875 1.2656097 0.5625q0.609375 0.40625 0.609375 0.953125q0 0.296875 -0.1875 0.5q-0.171875 0.203125 -0.40625 0.203125q-0.171875 0 -0.34375 -0.0625q-0.15625 -0.078125 -0.43748474 -0.25q-0.515625 -0.296875 -0.953125 -0.46875q-0.4375 -0.171875 -1.078125 -0.171875q-0.796875 0 -1.28125 0.34375q-0.46875 0.328125 -0.46875 0.90625q0 0.53125 0.4375 0.828125q0.453125 0.28125 1.65625 0.53125q1.25 0.265625 1.9531097 0.609375q0.71875 0.328125 1.015625 0.828125q0.3125 0.484375 0.3125 1.25q0 1.21875 -1.015625 1.953125q-1.0156097 0.734375 -2.7031097 0.734375zm10.180222 -1.46875q0.40625 0.03125 0.578125 0.21875q0.1875 0.171875 0.1875 0.484375q0 0.375 -0.296875 0.578125q-0.28125 0.1875 -0.84375 0.15625l-0.5 -0.03125q-1.515625 -0.125 -2.265625 -0.921875q-0.734375 -0.8125 -0.734375 -2.40625l0 -4.390625l-1.125 0q-0.828125 0 -0.828125 -0.71875q0 -0.34375 0.21875 -0.53125q0.21875 -0.203125 0.609375 -0.203125l1.125 0l0 -1.921875q0 -0.421875 0.25 -0.65625q0.25 -0.25 0.671875 -0.25q0.4375 0 0.6875 0.25q0.265625 0.234375 0.265625 0.65625l0 1.921875l1.84375 0q0.390625 0 0.609375 0.203125q0.21875 0.1875 0.21875 0.53125q0 0.359375 -0.21875 0.546875q-0.21875 0.171875 -0.609375 0.171875l-1.84375 0l0 4.515625q0 0.890625 0.359375 1.296875q0.375 0.40625 1.125 0.46875l0.515625 0.03125zm10.229645 1.46875q-1.90625 0 -3.125 -0.78125q-0.328125 -0.203125 -0.46875 -0.421875q-0.140625 -0.234375 -0.140625 -0.5q0 -0.3125 0.15625 -0.515625q0.171875 -0.203125 0.4375 -0.203125q0.234375 0 0.765625 0.296875q0.5625 0.296875 1.09375 0.484375q0.53125 0.1875 1.328125 0.1875q0.890625 0 1.390625 -0.3125q0.515625 -0.3125 0.515625 -0.890625q0 -0.375 -0.203125 -0.59375q-0.1875 -0.234375 -0.671875 -0.40625q-0.484375 -0.1875 -1.4375 -0.390625q-1.640625 -0.34375 -2.359375 -0.953125q-0.71875 -0.609375 -0.71875 -1.65625q0 -0.796875 0.46875 -1.4375q0.46875 -0.65625 1.28125 -1.0q0.828125 -0.359375 1.875 -0.359375q0.734375 0 1.4375 0.203125q0.71875 0.1875 1.265625 0.5625q0.609375 0.40625 0.609375 0.953125q0 0.296875 -0.1875 0.5q-0.171875 0.203125 -0.40625 0.203125q-0.171875 0 -0.34375 -0.0625q-0.15625 -0.078125 -0.4375 -0.25q-0.515625 -0.296875 -0.953125 -0.46875q-0.4375 -0.171875 -1.078125 -0.171875q-0.796875 0 -1.28125 0.34375q-0.46875 0.328125 -0.46875 0.90625q0 0.53125 0.4375 0.828125q0.453125 0.28125 1.65625 0.53125q1.25 0.265625 1.953125 0.609375q0.71875 0.328125 1.015625 0.828125q0.3125 0.484375 0.3125 1.25q0 1.21875 -1.015625 1.953125q-1.015625 0.734375 -2.703125 0.734375zm10.695435 -9.453125q1.1875 0 2.109375 0.59375q0.921875 0.59375 1.4375 1.6875q0.515625 1.078125 0.515625 2.5q0 1.390625 -0.515625 2.453125q-0.5 1.0625 -1.421875 1.640625q-0.921875 0.578125 -2.125 0.578125q-1.015625 0 -1.8125 -0.4375q-0.78125 -0.4375 -1.1875 -1.25l0 4.15625q0 0.390625 -0.25 0.625q-0.25 0.234375 -0.65625 0.234375q-0.4375 0 -0.703125 -0.25q-0.265625 -0.234375 -0.265625 -0.640625l0 -10.9375q0 -0.40625 0.25 -0.65625q0.265625 -0.265625 0.6875 -0.265625q0.421875 0 0.671875 0.265625q0.265625 0.25 0.265625 0.65625l0 0.765625q0.40625 -0.828125 1.1875 -1.265625q0.796875 -0.453125 1.8125 -0.453125zm-0.4375 7.96875q1.234375 0 1.90625 -0.828125q0.671875 -0.828125 0.671875 -2.359375q0 -1.546875 -0.6875 -2.40625q-0.6875 -0.859375 -1.890625 -0.859375q-1.234375 0 -1.90625 0.84375q-0.65625 0.828125 -0.65625 2.375q0 1.546875 0.65625 2.390625q0.671875 0.84375 1.90625 0.84375zm13.713348 -0.9375q0.25 0 0.421875 0.203125q0.171875 0.203125 0.171875 0.53125q0 0.53125 -0.671875 0.90625q-0.65625 0.375 -1.4375 0.578125q-0.765625 0.203125 -1.46875 0.203125q-2.171875 0 -3.421875 -1.25q-1.25 -1.265625 -1.25 -3.453125q0 -1.390625 0.546875 -2.46875q0.5625 -1.09375 1.546875 -1.6875q1.0 -0.59375 2.28125 -0.59375q1.828125 0 2.890625 1.171875q1.0625 1.171875 1.0625 3.171875q0 0.75 -0.671875 0.75l-5.765625 0q0.1875 2.890625 2.78125 2.890625q0.6875 0 1.1875 -0.1875q0.5 -0.1875 1.0625 -0.484375q0.0625 -0.03125 0.3125 -0.15625q0.25 -0.125 0.421875 -0.125zm-3.25 -5.65625q-1.078125 0 -1.734375 0.703125q-0.65625 0.6875 -0.78125 1.9375l4.8125 0q-0.0625 -1.265625 -0.65625 -1.953125q-0.578125 -0.6875 -1.640625 -0.6875zm9.884796 8.078125q-1.328125 0 -2.328125 -0.578125q-0.984375 -0.578125 -1.546875 -1.640625q-0.546875 -1.0625 -0.546875 -2.453125q0 -1.421875 0.5625 -2.5q0.578125 -1.09375 1.59375 -1.6875q1.03125 -0.59375 2.359375 -0.59375q0.703125 0 1.421875 0.203125q0.71875 0.203125 1.28125 0.5625q0.59375 0.40625 0.59375 0.953125q0 0.3125 -0.171875 0.53125q-0.15625 0.21875 -0.421875 0.21875q-0.171875 0 -0.34375 -0.078125q-0.15625 -0.09375 -0.421875 -0.265625q-0.46875 -0.296875 -0.875 -0.453125q-0.390625 -0.15625 -0.953125 -0.15625q-1.265625 0 -1.96875 0.859375q-0.6875 0.859375 -0.6875 2.375q0 1.53125 0.6875 2.375q0.6875 0.828125 1.953125 0.828125q0.5625 0 0.984375 -0.171875q0.4375 -0.171875 0.875 -0.453125q0.21875 -0.125 0.421875 -0.21875q0.203125 -0.09375 0.375 -0.09375q0.25 0 0.421875 0.21875q0.171875 0.203125 0.171875 0.53125q0 0.25 -0.140625 0.46875q-0.140625 0.21875 -0.484375 0.4375q-0.546875 0.375 -1.296875 0.578125q-0.75 0.203125 -1.515625 0.203125zm6.057831 -0.03125q-0.40625 0 -0.671875 -0.21875q-0.265625 -0.234375 -0.265625 -0.671875l0 -7.578125q0 -0.453125 0.265625 -0.6875q0.265625 -0.234375 0.671875 -0.234375q0.421875 0 0.671875 0.234375q0.265625 0.234375 0.265625 0.6875l0 7.578125q0 0.4375 -0.265625 0.671875q-0.25 0.21875 -0.671875 0.21875zm0.015625 -11.21875q-0.546875 0 -0.859375 -0.296875q-0.3125 -0.296875 -0.3125 -0.78125q0 -0.484375 0.3125 -0.765625q0.3125 -0.296875 0.859375 -0.296875q0.515625 0 0.84375 0.296875q0.328125 0.28125 0.328125 0.765625q0 0.484375 -0.3125 0.78125q-0.3125 0.296875 -0.859375 0.296875zm7.3742065 1.796875q1.8125 0 2.703125 0.921875q0.890625 0.90625 0.890625 2.765625l0 4.84375q0 0.421875 -0.25 0.65625q-0.234375 0.234375 -0.671875 0.234375q-0.40625 0 -0.65625 -0.234375q-0.234375 -0.25 -0.234375 -0.65625l0 -0.703125q-0.359375 0.796875 -1.0625 1.21875q-0.6875 0.40625 -1.625 0.40625q-0.890625 0 -1.640625 -0.359375q-0.734375 -0.359375 -1.171875 -0.984375q-0.421875 -0.640625 -0.421875 -1.453125q-0.015625 -1.0 0.5 -1.5625q0.53125 -0.578125 1.703125 -0.828125q1.171875 -0.25 3.265625 -0.25l0.4375 0l0 -0.546875q0 -1.046875 -0.4375 -1.5q-0.421875 -0.46875 -1.375 -0.46875q-0.65625 0 -1.234375 0.171875q-0.578125 0.15625 -1.265625 0.46875q-0.5 0.28125 -0.71875 0.28125q-0.28125 0 -0.453125 -0.203125q-0.171875 -0.203125 -0.171875 -0.515625q0 -0.28125 0.15625 -0.5q0.15625 -0.21875 0.515625 -0.421875q0.65625 -0.359375 1.53125 -0.5625q0.875 -0.21875 1.6875 -0.21875zm-0.578125 8.0625q1.03125 0 1.6875 -0.703125q0.65625 -0.703125 0.65625 -1.796875l0 -0.484375l-0.34375 0q-1.453125 0 -2.234375 0.125q-0.78125 0.125 -1.125 0.4375q-0.328125 0.3125 -0.328125 0.890625q0 0.671875 0.484375 1.109375q0.484375 0.421875 1.203125 0.421875zm7.6842346 1.359375q-0.40625 0 -0.671875 -0.21875q-0.265625 -0.234375 -0.265625 -0.671875l0 -11.53125q0 -0.453125 0.265625 -0.6875q0.265625 -0.234375 0.671875 -0.234375q0.421875 0 0.671875 0.234375q0.265625 0.234375 0.265625 0.6875l0 11.53125q0 0.4375 -0.265625 0.671875q-0.25 0.21875 -0.671875 0.21875zm12.955688 -1.4375q0.40625 0.03125 0.578125 0.21875q0.1875 0.171875 0.1875 0.484375q0 0.375 -0.296875 0.578125q-0.28125 0.1875 -0.84375 0.15625l-0.5 -0.03125q-1.515625 -0.125 -2.265625 -0.921875q-0.734375 -0.8125 -0.734375 -2.40625l0 -4.390625l-1.125 0q-0.828125 0 -0.828125 -0.71875q0 -0.34375 0.21875 -0.53125q0.21875 -0.203125 0.609375 -0.203125l1.125 0l0 -1.921875q0 -0.421875 0.25 -0.65625q0.25 -0.25 0.671875 -0.25q0.4375 0 0.6875 0.25q0.265625 0.234375 0.265625 0.65625l0 1.921875l1.84375 0q0.390625 0 0.609375 0.203125q0.21875 0.1875 0.21875 0.53125q0 0.359375 -0.21875 0.546875q-0.21875 0.171875 -0.609375 0.171875l-1.84375 0l0 4.515625q0 0.890625 0.359375 1.296875q0.375 0.40625 1.125 0.46875l0.515625 0.03125zm9.257538 -0.953125q0.25 0 0.421875 0.203125q0.171875 0.203125 0.171875 0.53125q0 0.53125 -0.671875 0.90625q-0.65625 0.375 -1.4375 0.578125q-0.765625 0.203125 -1.46875 0.203125q-2.171875 0 -3.421875 -1.25q-1.25 -1.265625 -1.25 -3.453125q0 -1.390625 0.546875 -2.46875q0.5625 -1.09375 1.546875 -1.6875q1.0 -0.59375 2.28125 -0.59375q1.828125 0 2.890625 1.171875q1.0625 1.171875 1.0625 3.171875q0 0.75 -0.671875 0.75l-5.765625 0q0.1875 2.890625 2.78125 2.890625q0.6875 0 1.1875 -0.1875q0.5 -0.1875 1.0625 -0.484375q0.0625 -0.03125 0.3125 -0.15625q0.25 -0.125 0.421875 -0.125zm-3.25 -5.65625q-1.078125 0 -1.734375 0.703125q-0.65625 0.6875 -0.78125 1.9375l4.8125 0q-0.0625 -1.265625 -0.65625 -1.953125q-0.578125 -0.6875 -1.640625 -0.6875zm13.463745 6.53125q0.28125 0.28125 0.28125 0.65625q0 0.359375 -0.25 0.609375q-0.25 0.25 -0.609375 0.25q-0.34375 0 -0.640625 -0.3125l-2.859375 -3.21875l-2.84375 3.21875q-0.296875 0.3125 -0.640625 0.3125q-0.359375 0 -0.609375 -0.25q-0.25 -0.265625 -0.25 -0.625q0 -0.359375 0.25 -0.640625l2.953125 -3.25l-2.796875 -3.109375q-0.28125 -0.3125 -0.28125 -0.625q0 -0.359375 0.25 -0.609375q0.265625 -0.25 0.609375 -0.25q0.359375 0 0.65625 0.3125l2.703125 3.0625l2.703125 -3.0625q0.296875 -0.3125 0.671875 -0.3125q0.328125 0 0.59375 0.25q0.265625 0.25 0.265625 0.609375q0 0.34375 -0.28125 0.625l-2.796875 3.109375l2.921875 3.25zm6.5914 0.078125q0.40625 0.03125 0.578125 0.21875q0.1875 0.171875 0.1875 0.484375q0 0.375 -0.296875 0.578125q-0.28125 0.1875 -0.84375 0.15625l-0.5 -0.03125q-1.515625 -0.125 -2.265625 -0.921875q-0.734375 -0.8125 -0.734375 -2.40625l0 -4.390625l-1.125 0q-0.828125 0 -0.828125 -0.71875q0 -0.34375 0.21875 -0.53125q0.21875 -0.203125 0.609375 -0.203125l1.125 0l0 -1.921875q0 -0.421875 0.25 -0.65625q0.25 -0.25 0.671875 -0.25q0.4375 0 0.6875 0.25q0.265625 0.234375 0.265625 0.65625l0 1.921875l1.84375 0q0.390625 0 0.609375 0.203125q0.21875 0.1875 0.21875 0.53125q0 0.359375 -0.21875 0.546875q-0.21875 0.171875 -0.609375 0.171875l-1.84375 0l0 4.515625q0 0.890625 0.359375 1.296875q0.375 0.40625 1.125 0.46875l0.515625 0.03125z" fill-rule="nonzero"/><path fill="#000000" fill-opacity="0.0" d="m81.321526 351.21127l192.0 0l0 23.496063l-192.0 0z" fill-rule="evenodd"/><path fill="#39b7c2" d="m98.79426 369.8793q-0.4375 0 -0.6875 -0.234375q-0.25 -0.25 -0.25 -0.65625l0 -11.390625q0 -0.421875 0.25 -0.6875q0.265625 -0.28125 0.703125 -0.28125q0.4375 0 0.703125 0.265625q0.265625 0.265625 0.265625 0.703125l0 10.671875l5.671875 0q0.421875 0 0.65625 0.21875q0.234375 0.203125 0.234375 0.59375q0 0.390625 -0.234375 0.59375q-0.234375 0.203125 -0.65625 0.203125l-6.65625 0zm9.986221 0.09375q-0.40625 0 -0.671875 -0.21875q-0.265625 -0.234375 -0.265625 -0.671875l0 -7.578125q0 -0.453125 0.265625 -0.6875q0.265625 -0.234375 0.671875 -0.234375q0.421875 0 0.671875 0.234375q0.265625 0.234375 0.265625 0.6875l0 7.578125q0 0.4375 -0.265625 0.671875q-0.25 0.21875 -0.671875 0.21875zm0.015625 -11.21875q-0.546875 0 -0.859375 -0.296875q-0.3125 -0.296875 -0.3125 -0.78125q0 -0.484375 0.3125 -0.765625q0.3125 -0.296875 0.859375 -0.296875q0.515625 0 0.84375 0.296875q0.328125 0.28125 0.328125 0.765625q0 0.484375 -0.3125 0.78125q-0.3125 0.296875 -0.859375 0.296875zm8.467941 1.796875q3.265625 0 3.265625 3.671875l0 4.859375q0 0.421875 -0.265625 0.65625q-0.25 0.234375 -0.6875 0.234375q-0.4375 0 -0.6875 -0.234375q-0.25 -0.25 -0.25 -0.65625l0 -4.765625q0 -1.15625 -0.46875 -1.6875q-0.453125 -0.546875 -1.421875 -0.546875q-1.125 0 -1.828125 0.71875q-0.6875 0.703125 -0.6875 1.890625l0 4.390625q0 0.40625 -0.25 0.65625q-0.25 0.234375 -0.6875 0.234375q-0.421875 0 -0.6875 -0.234375q-0.25 -0.25 -0.25 -0.65625l0 -7.59375q0 -0.390625 0.265625 -0.640625q0.265625 -0.265625 0.671875 -0.265625q0.421875 0 0.65625 0.25q0.25 0.234375 0.25 0.640625l0 0.75q0.4375 -0.8125 1.234375 -1.234375q0.8125 -0.4375 1.828125 -0.4375zm13.48037 7.859375q0.34375 0.28125 0.34375 0.6875q0 0.359375 -0.25 0.625q-0.234375 0.25 -0.578125 0.25q-0.359375 0 -0.640625 -0.265625l-4.6406174 -4.09375l0 3.4375q0 0.453125 -0.265625 0.6875q-0.25 0.234375 -0.671875 0.234375q-0.40625 0 -0.671875 -0.234375q-0.265625 -0.234375 -0.265625 -0.6875l0 -11.5q0 -0.453125 0.265625 -0.6875q0.265625 -0.234375 0.671875 -0.234375q0.421875 0 0.671875 0.234375q0.265625 0.234375 0.265625 0.6875l0 7.3125l4.2499924 -3.984375q0.328125 -0.265625 0.625 -0.265625q0.34375 0 0.609375 0.265625q0.265625 0.25 0.265625 0.609375q0 0.34375 -0.3125 0.640625l-3.3281174 3.046875l3.6562424 3.234375zm5.027191 1.59375q-1.90625 0 -3.125 -0.78125q-0.328125 -0.203125 -0.46875 -0.421875q-0.140625 -0.234375 -0.140625 -0.5q0 -0.3125 0.15625 -0.515625q0.171875 -0.203125 0.4375 -0.203125q0.234375 0 0.765625 0.296875q0.5625 0.296875 1.09375 0.484375q0.53125 0.1875 1.328125 0.1875q0.890625 0 1.390625 -0.3125q0.515625 -0.3125 0.515625 -0.890625q0 -0.375 -0.203125 -0.59375q-0.1875 -0.234375 -0.671875 -0.40625q-0.484375 -0.1875 -1.4375 -0.390625q-1.640625 -0.34375 -2.359375 -0.953125q-0.71875 -0.609375 -0.71875 -1.65625q0 -0.796875 0.46875 -1.4375q0.46875 -0.65625 1.28125 -1.0q0.828125 -0.359375 1.875 -0.359375q0.734375 0 1.4375 0.203125q0.71875 0.1875 1.265625 0.5625q0.609375 0.40625 0.609375 0.953125q0 0.296875 -0.1875 0.5q-0.171875 0.203125 -0.40625 0.203125q-0.171875 0 -0.34375 -0.0625q-0.15625 -0.078125 -0.4375 -0.25q-0.515625 -0.296875 -0.953125 -0.46875q-0.4375 -0.171875 -1.078125 -0.171875q-0.796875 0 -1.28125 0.34375q-0.46875 0.328125 -0.46875 0.90625q0 0.53125 0.4375 0.828125q0.453125 0.28125 1.65625 0.53125q1.25 0.265625 1.953125 0.609375q0.71875 0.328125 1.015625 0.828125q0.3125 0.484375 0.3125 1.25q0 1.21875 -1.015625 1.953125q-1.015625 0.734375 -2.703125 0.734375zm15.198807 -1.46875q0.40625 0.03125 0.578125 0.21875q0.1875 0.171875 0.1875 0.484375q0 0.375 -0.296875 0.578125q-0.28125 0.1875 -0.84375 0.15625l-0.5 -0.03125q-1.515625 -0.125 -2.265625 -0.921875q-0.734375 -0.8125 -0.734375 -2.40625l0 -4.390625l-1.125 0q-0.828125 0 -0.828125 -0.71875q0 -0.34375 0.21875 -0.53125q0.21875 -0.203125 0.609375 -0.203125l1.125 0l0 -1.921875q0 -0.421875 0.25 -0.65625q0.25 -0.25 0.671875 -0.25q0.4375 0 0.6875 0.25q0.265625 0.234375 0.265625 0.65625l0 1.921875l1.84375 0q0.390625 0 0.609375 0.203125q0.21875 0.1875 0.21875 0.53125q0 0.359375 -0.21875 0.546875q-0.21875 0.171875 -0.609375 0.171875l-1.84375 0l0 4.515625q0 0.890625 0.359375 1.296875q0.375 0.40625 1.125 0.46875l0.515625 0.03125zm6.085663 1.46875q-1.34375 0 -2.359375 -0.578125q-1.015625 -0.578125 -1.578125 -1.640625q-0.546875 -1.078125 -0.546875 -2.5q0 -1.4375 0.546875 -2.5q0.5625 -1.078125 1.578125 -1.65625q1.015625 -0.578125 2.359375 -0.578125q1.34375 0 2.359375 0.578125q1.015625 0.578125 1.5625 1.65625q0.546875 1.0625 0.546875 2.5q0 1.421875 -0.546875 2.5q-0.546875 1.0625 -1.5625 1.640625q-1.015625 0.578125 -2.359375 0.578125zm0 -1.484375q1.25 0 1.90625 -0.8125q0.65625 -0.828125 0.65625 -2.421875q0 -1.5625 -0.671875 -2.390625q-0.65625 -0.828125 -1.890625 -0.828125q-1.234375 0 -1.90625 0.828125q-0.671875 0.828125 -0.671875 2.390625q0 1.59375 0.65625 2.421875q0.671875 0.8125 1.921875 0.8125zm15.447372 1.484375q-1.34375 0 -2.359375 -0.578125q-1.015625 -0.578125 -1.578125 -1.640625q-0.546875 -1.078125 -0.546875 -2.5q0 -1.4375 0.546875 -2.5q0.5625 -1.078125 1.578125 -1.65625q1.015625 -0.578125 2.359375 -0.578125q1.34375 0 2.359375 0.578125q1.015625 0.578125 1.5625 1.65625q0.546875 1.0625 0.546875 2.5q0 1.421875 -0.546875 2.5q-0.546875 1.0625 -1.5625 1.640625q-1.015625 0.578125 -2.359375 0.578125zm0 -1.484375q1.25 0 1.90625 -0.8125q0.65625 -0.828125 0.65625 -2.421875q0 -1.5625 -0.671875 -2.390625q-0.65625 -0.828125 -1.890625 -0.828125q-1.234375 0 -1.90625 0.828125q-0.671875 0.828125 -0.671875 2.390625q0 1.59375 0.65625 2.421875q0.671875 0.8125 1.921875 0.8125zm10.984787 0.015625q0.40625 0.03125 0.578125 0.21875q0.1875 0.171875 0.1875 0.484375q0 0.375 -0.296875 0.578125q-0.28125 0.1875 -0.84375 0.15625l-0.5 -0.03125q-1.515625 -0.125 -2.265625 -0.921875q-0.734375 -0.8125 -0.734375 -2.40625l0 -4.390625l-1.125 0q-0.828125 0 -0.828125 -0.71875q0 -0.34375 0.21875 -0.53125q0.21875 -0.203125 0.609375 -0.203125l1.125 0l0 -1.921875q0 -0.421875 0.25 -0.65625q0.25 -0.25 0.671875 -0.25q0.4375 0 0.6875 0.25q0.265625 0.234375 0.265625 0.65625l0 1.921875l1.84375 0q0.390625 0 0.609375 0.203125q0.21875 0.1875 0.21875 0.53125q0 0.359375 -0.21875 0.546875q-0.21875 0.171875 -0.609375 0.171875l-1.84375 0l0 4.515625q0 0.890625 0.359375 1.296875q0.375 0.40625 1.125 0.46875l0.515625 0.03125zm7.054413 -7.984375q3.25 0 3.25 3.671875l0 4.859375q0 0.40625 -0.265625 0.65625q-0.265625 0.234375 -0.6875 0.234375q-0.4375 0 -0.6875 -0.234375q-0.25 -0.25 -0.25 -0.65625l0 -4.84375q0 -1.109375 -0.46875 -1.625q-0.453125 -0.53125 -1.421875 -0.53125q-1.125 0 -1.828125 0.71875q-0.6875 0.703125 -0.6875 1.890625l0 4.390625q0 0.40625 -0.25 0.65625q-0.25 0.234375 -0.6875 0.234375q-0.421875 0 -0.6875 -0.234375q-0.25 -0.25 -0.25 -0.65625l0 -11.546875q0 -0.421875 0.265625 -0.65625q0.265625 -0.25 0.703125 -0.25q0.40625 0 0.65625 0.234375q0.25 0.234375 0.25 0.625l0 4.671875q0.46875 -0.78125 1.25 -1.1875q0.78125 -0.421875 1.796875 -0.421875zm12.949127 7.03125q0.25 0 0.421875 0.203125q0.171875 0.203125 0.171875 0.53125q0 0.53125 -0.671875 0.90625q-0.65625 0.375 -1.4375 0.578125q-0.765625 0.203125 -1.46875 0.203125q-2.171875 0 -3.421875 -1.25q-1.25 -1.265625 -1.25 -3.453125q0 -1.390625 0.546875 -2.46875q0.5625 -1.09375 1.546875 -1.6875q1.0 -0.59375 2.28125 -0.59375q1.828125 0 2.890625 1.171875q1.0625 1.171875 1.0625 3.171875q0 0.75 -0.671875 0.75l-5.765625 0q0.1875 2.890625 2.78125 2.890625q0.6875 0 1.1875 -0.1875q0.5 -0.1875 1.0625 -0.484375q0.0625 -0.03125 0.3125 -0.15625q0.25 -0.125 0.421875 -0.125zm-3.25 -5.65625q-1.078125 0 -1.734375 0.703125q-0.65625 0.6875 -0.78125 1.9375l4.8125 0q-0.0625 -1.265625 -0.65625 -1.953125q-0.578125 -0.6875 -1.640625 -0.6875zm10.759781 -1.34375q0.90625 -0.046875 0.90625 0.765625q0 0.421875 -0.21875 0.625q-0.203125 0.203125 -0.703125 0.234375l-0.5625 0.0625q-1.171875 0.109375 -1.75 0.828125q-0.5625 0.703125 -0.5625 1.703125l0 4.28125q0 0.4375 -0.265625 0.671875q-0.25 0.21875 -0.671875 0.21875q-0.40625 0 -0.671875 -0.21875q-0.265625 -0.234375 -0.265625 -0.671875l0 -7.59375q0 -0.4375 0.265625 -0.671875q0.265625 -0.234375 0.671875 -0.234375q0.375 0 0.625 0.234375q0.265625 0.234375 0.265625 0.65625l0 0.890625q0.359375 -0.828125 1.0625 -1.25q0.71875 -0.4375 1.625 -0.5l0.25 -0.03125zm11.440933 7.953125q0.40625 0.03125 0.578125 0.21875q0.1875 0.171875 0.1875 0.484375q0 0.375 -0.296875 0.578125q-0.28125 0.1875 -0.84375 0.15625l-0.5 -0.03125q-1.515625 -0.125 -2.265625 -0.921875q-0.734375 -0.8125 -0.734375 -2.40625l0 -4.390625l-1.125 0q-0.828125 0 -0.828125 -0.71875q0 -0.34375 0.21875 -0.53125q0.21875 -0.203125 0.609375 -0.203125l1.125 0l0 -1.921875q0 -0.421875 0.25 -0.65625q0.25 -0.25 0.671875 -0.25q0.4375 0 0.6875 0.25q0.265625 0.234375 0.265625 0.65625l0 1.921875l1.84375 0q0.390625 0 0.609375 0.203125q0.21875 0.1875 0.21875 0.53125q0 0.359375 -0.21875 0.546875q-0.21875 0.171875 -0.609375 0.171875l-1.84375 0l0 4.515625q0 0.890625 0.359375 1.296875q0.375 0.40625 1.125 0.46875l0.515625 0.03125zm9.257538 -0.953125q0.25 0 0.421875 0.203125q0.171875 0.203125 0.171875 0.53125q0 0.53125 -0.671875 0.90625q-0.65625 0.375 -1.4375 0.578125q-0.765625 0.203125 -1.46875 0.203125q-2.171875 0 -3.421875 -1.25q-1.25 -1.265625 -1.25 -3.453125q0 -1.390625 0.546875 -2.46875q0.5625 -1.09375 1.546875 -1.6875q1.0 -0.59375 2.28125 -0.59375q1.828125 0 2.890625 1.171875q1.0625 1.171875 1.0625 3.171875q0 0.75 -0.671875 0.75l-5.765625 0q0.1875 2.890625 2.78125 2.890625q0.6875 0 1.1875 -0.1875q0.5 -0.1875 1.0625 -0.484375q0.0625 -0.03125 0.3125 -0.15625q0.25 -0.125 0.421875 -0.125zm-3.25 -5.65625q-1.078125 0 -1.734375 0.703125q-0.65625 0.6875 -0.78125 1.9375l4.8125 0q-0.0625 -1.265625 -0.65625 -1.953125q-0.578125 -0.6875 -1.640625 -0.6875zm13.463745 6.53125q0.28125 0.28125 0.28125 0.65625q0 0.359375 -0.25 0.609375q-0.25 0.25 -0.609375 0.25q-0.34375 0 -0.640625 -0.3125l-2.859375 -3.21875l-2.84375 3.21875q-0.296875 0.3125 -0.640625 0.3125q-0.359375 0 -0.609375 -0.25q-0.25 -0.265625 -0.25 -0.625q0 -0.359375 0.25 -0.640625l2.953125 -3.25l-2.796875 -3.109375q-0.28125 -0.3125 -0.28125 -0.625q0 -0.359375 0.25 -0.609375q0.265625 -0.25 0.609375 -0.25q0.359375 0 0.65625 0.3125l2.703125 3.0625l2.703125 -3.0625q0.296875 -0.3125 0.671875 -0.3125q0.328125 0 0.59375 0.25q0.265625 0.25 0.265625 0.609375q0 0.34375 -0.28125 0.625l-2.796875 3.109375l2.921875 3.25zm6.5914154 0.078125q0.40625 0.03125 0.578125 0.21875q0.1875 0.171875 0.1875 0.484375q0 0.375 -0.296875 0.578125q-0.28125 0.1875 -0.84375 0.15625l-0.5 -0.03125q-1.515625 -0.125 -2.265625 -0.921875q-0.734375 -0.8125 -0.734375 -2.40625l0 -4.390625l-1.125 0q-0.828125 0 -0.828125 -0.71875q0 -0.34375 0.21875 -0.53125q0.21875 -0.203125 0.609375 -0.203125l1.125 0l0 -1.921875q0 -0.421875 0.25 -0.65625q0.25 -0.25 0.671875 -0.25q0.4375 0 0.6875 0.25q0.265625 0.234375 0.265625 0.65625l0 1.921875l1.84375 0q0.390625 0 0.609375 0.203125q0.21875 0.1875 0.21875 0.53125q0 0.359375 -0.21875 0.546875q-0.21875 0.171875 -0.609375 0.171875l-1.84375 0l0 4.515625q0 0.890625 0.359375 1.296875q0.375 0.40625 1.125 0.46875l0.515625 0.03125zm5.304413 1.46875q-1.90625 0 -3.125 -0.78125q-0.328125 -0.203125 -0.46875 -0.421875q-0.140625 -0.234375 -0.140625 -0.5q0 -0.3125 0.15625 -0.515625q0.171875 -0.203125 0.4375 -0.203125q0.234375 0 0.765625 0.296875q0.5625 0.296875 1.09375 0.484375q0.53125 0.1875 1.328125 0.1875q0.890625 0 1.390625 -0.3125q0.515625 -0.3125 0.515625 -0.890625q0 -0.375 -0.203125 -0.59375q-0.1875 -0.234375 -0.671875 -0.40625q-0.484375 -0.1875 -1.4375 -0.390625q-1.640625 -0.34375 -2.359375 -0.953125q-0.71875 -0.609375 -0.71875 -1.65625q0 -0.796875 0.46875 -1.4375q0.46875 -0.65625 1.28125 -1.0q0.828125 -0.359375 1.875 -0.359375q0.734375 0 1.4375 0.203125q0.71875 0.1875 1.265625 0.5625q0.609375 0.40625 0.609375 0.953125q0 0.296875 -0.1875 0.5q-0.171875 0.203125 -0.40625 0.203125q-0.171875 0 -0.34375 -0.0625q-0.15625 -0.078125 -0.4375 -0.25q-0.515625 -0.296875 -0.953125 -0.46875q-0.4375 -0.171875 -1.078125 -0.171875q-0.796875 0 -1.28125 0.34375q-0.46875 0.328125 -0.46875 0.90625q0 0.53125 0.4375 0.828125q0.453125 0.28125 1.65625 0.53125q1.25 0.265625 1.953125 0.609375q0.71875 0.328125 1.015625 0.828125q0.3125 0.484375 0.3125 1.25q0 1.21875 -1.015625 1.953125q-1.015625 0.734375 -2.703125 0.734375z" fill-rule="nonzero"/><path fill="#000000" fill-opacity="0.0" d="m213.14568 304.27167c0 9.62204 -9.0 14.433044 -18.0 19.24408c-9.0 4.811035 -18.0 9.62204 -18.0 19.24411" fill-rule="evenodd"/><path stroke="#39b7c2" stroke-width="3.0" stroke-linejoin="round" stroke-linecap="butt" d="m213.14568 304.27167c0 9.62204 -9.0 14.433044 -18.0 19.24408c-2.25 1.2027588 -4.5 2.4055176 -6.609375 3.6834412c-0.26368713 0.159729 -0.5251465 0.3206482 -0.78414917 0.48291016l-0.3969574 0.25323486" fill-rule="evenodd"/><path fill="#39b7c2" stroke="#39b7c2" stroke-width="3.0" stroke-linecap="butt" d="m183.27417 325.1248l-3.6409454 14.023071l11.8029785 -8.401947z" fill-rule="evenodd"/><path fill="#000000" fill-opacity="0.0" d="m360.43176 342.5971l226.42517 0l0 40.724426l-226.42517 0z" fill-rule="evenodd"/><path fill="#153570" d="m397.61392 358.8793q-0.453125 0 -0.703125 -0.25q-0.25 -0.25 -0.25 -0.6875l0 -11.28125q0 -0.4375 0.25 -0.6875q0.25 -0.25 0.703125 -0.25l3.65625 0q3.1875 0 4.9375 1.71875q1.75 1.71875 1.75 4.859375q0 3.125 -1.75 4.859375q-1.75 1.71875 -4.9375 1.71875l-3.65625 0zm3.546875 -1.609375q4.84375 0 4.84375 -4.96875q0 -4.96875 -4.84375 -4.96875l-2.578125 0l0 9.9375l2.578125 0zm16.323822 -0.6875q0.25 0 0.421875 0.203125q0.171875 0.203125 0.171875 0.53125q0 0.53125 -0.671875 0.90625q-0.65625 0.375 -1.4375 0.578125q-0.765625 0.203125 -1.46875 0.203125q-2.171875 0 -3.421875 -1.25q-1.25 -1.265625 -1.25 -3.453125q0 -1.390625 0.546875 -2.46875q0.5625 -1.09375 1.546875 -1.6875q1.0 -0.59375 2.28125 -0.59375q1.828125 0 2.890625 1.171875q1.0625 1.171875 1.0625 3.171875q0 0.75 -0.671875 0.75l-5.765625 0q0.1875 2.890625 2.78125 2.890625q0.6875 0 1.1875 -0.1875q0.5 -0.1875 1.0625 -0.484375q0.0625 -0.03125 0.3125 -0.15625q0.25 -0.125 0.421875 -0.125zm-3.25 -5.65625q-1.078125 0 -1.734375 0.703125q-0.65625 0.6875 -0.78125 1.9375l4.8125 0q-0.0625 -1.265625 -0.65625 -1.953125q-0.578125 -0.6875 -1.640625 -0.6875zm9.166046 8.078125q-1.90625 0 -3.125 -0.78125q-0.328125 -0.203125 -0.46875 -0.421875q-0.140625 -0.234375 -0.140625 -0.5q0 -0.3125 0.15625 -0.515625q0.171875 -0.203125 0.4375 -0.203125q0.234375 0 0.765625 0.296875q0.5625 0.296875 1.09375 0.484375q0.53125 0.1875 1.328125 0.1875q0.890625 0 1.390625 -0.3125q0.515625 -0.3125 0.515625 -0.890625q0 -0.375 -0.203125 -0.59375q-0.1875 -0.234375 -0.671875 -0.40625q-0.484375 -0.1875 -1.4375 -0.390625q-1.640625 -0.34375 -2.359375 -0.953125q-0.71875 -0.609375 -0.71875 -1.65625q0 -0.796875 0.46875 -1.4375q0.46875 -0.65625 1.28125 -1.0q0.828125 -0.359375 1.875 -0.359375q0.734375 0 1.4375 0.203125q0.71875 0.1875 1.265625 0.5625q0.609375 0.40625 0.609375 0.953125q0 0.296875 -0.1875 0.5q-0.171875 0.203125 -0.40625 0.203125q-0.171875 0 -0.34375 -0.0625q-0.15625 -0.078125 -0.4375 -0.25q-0.515625 -0.296875 -0.953125 -0.46875q-0.4375 -0.171875 -1.078125 -0.171875q-0.796875 0 -1.28125 0.34375q-0.46875 0.328125 -0.46875 0.90625q0 0.53125 0.4375 0.828125q0.453125 0.28125 1.65625 0.53125q1.25 0.265625 1.953125 0.609375q0.71875 0.328125 1.015625 0.828125q0.3125 0.484375 0.3125 1.25q0 1.21875 -1.015625 1.953125q-1.015625 0.734375 -2.703125 0.734375zm9.71106 0q-1.328125 0 -2.328125 -0.578125q-0.984375 -0.578125 -1.546875 -1.640625q-0.546875 -1.0625 -0.546875 -2.453125q0 -1.421875 0.5625 -2.5q0.578125 -1.09375 1.59375 -1.6875q1.03125 -0.59375 2.359375 -0.59375q0.703125 0 1.421875 0.203125q0.71875 0.203125 1.28125 0.5625q0.59375 0.40625 0.59375 0.953125q0 0.3125 -0.171875 0.53125q-0.15625 0.21875 -0.421875 0.21875q-0.171875 0 -0.34375 -0.078125q-0.15625 -0.09375 -0.421875 -0.265625q-0.46875 -0.296875 -0.875 -0.453125q-0.390625 -0.15625 -0.953125 -0.15625q-1.265625 0 -1.96875 0.859375q-0.6875 0.859375 -0.6875 2.375q0 1.53125 0.6875 2.375q0.6875 0.828125 1.953125 0.828125q0.5625 0 0.984375 -0.171875q0.4375 -0.171875 0.875 -0.453125q0.21875 -0.125 0.421875 -0.21875q0.203125 -0.09375 0.375 -0.09375q0.25 0 0.421875 0.21875q0.171875 0.203125 0.171875 0.53125q0 0.25 -0.140625 0.46875q-0.140625 0.21875 -0.484375 0.4375q-0.546875 0.375 -1.296875 0.578125q-0.75 0.203125 -1.515625 0.203125zm9.885956 -9.421875q0.90625 -0.046875 0.90625 0.765625q0 0.421875 -0.21875 0.625q-0.203125 0.203125 -0.703125 0.234375l-0.5625 0.0625q-1.171875 0.109375 -1.75 0.828125q-0.5625 0.703125 -0.5625 1.703125l0 4.28125q0 0.4375 -0.265625 0.671875q-0.25 0.21875 -0.671875 0.21875q-0.40625 0 -0.671875 -0.21875q-0.265625 -0.234375 -0.265625 -0.671875l0 -7.59375q0 -0.4375 0.265625 -0.671875q0.265625 -0.234375 0.671875 -0.234375q0.375 0 0.625 0.234375q0.265625 0.234375 0.265625 0.65625l0 0.890625q0.359375 -0.828125 1.0625 -1.25q0.71875 -0.4375 1.625 -0.5l0.25 -0.03125zm3.000061 9.390625q-0.40625 0 -0.671875 -0.21875q-0.265625 -0.234375 -0.265625 -0.671875l0 -7.578125q0 -0.453125 0.265625 -0.6875q0.265625 -0.234375 0.671875 -0.234375q0.421875 0 0.671875 0.234375q0.265625 0.234375 0.265625 0.6875l0 7.578125q0 0.4375 -0.265625 0.671875q-0.25 0.21875 -0.671875 0.21875zm0.015625 -11.21875q-0.546875 0 -0.859375 -0.296875q-0.3125 -0.296875 -0.3125 -0.78125q0 -0.484375 0.3125 -0.765625q0.3125 -0.296875 0.859375 -0.296875q0.515625 0 0.84375 0.296875q0.328125 0.28125 0.328125 0.765625q0 0.484375 -0.3125 0.78125q-0.3125 0.296875 -0.859375 0.296875zm8.436707 1.796875q1.203125 0 2.109375 0.578125q0.921875 0.578125 1.4375 1.640625q0.515625 1.0625 0.515625 2.484375q0 1.390625 -0.515625 2.484375q-0.515625 1.078125 -1.4375 1.671875q-0.921875 0.59375 -2.109375 0.59375q-1.015625 0 -1.8125 -0.4375q-0.78125 -0.4375 -1.1875 -1.25l0 0.734375q0 0.421875 -0.25 0.671875q-0.25 0.25 -0.6875 0.25q-0.421875 0 -0.6875 -0.25q-0.25 -0.25 -0.25 -0.671875l0 -11.515625q0 -0.421875 0.265625 -0.65625q0.265625 -0.25 0.703125 -0.25q0.40625 0 0.65625 0.234375q0.25 0.234375 0.25 0.625l0 4.78125q0.40625 -0.828125 1.1875 -1.265625q0.796875 -0.453125 1.8125 -0.453125zm-0.4375 7.96875q1.203125 0 1.890625 -0.859375q0.6875 -0.859375 0.6875 -2.40625q0 -1.53125 -0.671875 -2.359375q-0.671875 -0.828125 -1.90625 -0.828125q-1.234375 0 -1.90625 0.84375q-0.65625 0.828125 -0.65625 2.375q0 1.546875 0.65625 2.390625q0.671875 0.84375 1.90625 0.84375zm13.713348 -0.9375q0.25 0 0.421875 0.203125q0.171875 0.203125 0.171875 0.53125q0 0.53125 -0.671875 0.90625q-0.65625 0.375 -1.4375 0.578125q-0.765625 0.203125 -1.46875 0.203125q-2.171875 0 -3.421875 -1.25q-1.25 -1.265625 -1.25 -3.453125q0 -1.390625 0.546875 -2.46875q0.5625 -1.09375 1.546875 -1.6875q1.0 -0.59375 2.28125 -0.59375q1.828125 0 2.890625 1.171875q1.0625 1.171875 1.0625 3.171875q0 0.75 -0.671875 0.75l-5.765625 0q0.1875 2.890625 2.78125 2.890625q0.6875 0 1.1875 -0.1875q0.5 -0.1875 1.0625 -0.484375q0.0625 -0.03125 0.3125 -0.15625q0.25 -0.125 0.421875 -0.125zm-3.25 -5.65625q-1.078125 0 -1.734375 0.703125q-0.65625 0.6875 -0.78125 1.9375l4.8125 0q-0.0625 -1.265625 -0.65625 -1.953125q-0.578125 -0.6875 -1.640625 -0.6875zm9.166016 8.078125q-1.90625 0 -3.125 -0.78125q-0.328125 -0.203125 -0.46875 -0.421875q-0.140625 -0.234375 -0.140625 -0.5q0 -0.3125 0.15625 -0.515625q0.171875 -0.203125 0.4375 -0.203125q0.234375 0 0.765625 0.296875q0.5625 0.296875 1.09375 0.484375q0.53125 0.1875 1.328125 0.1875q0.890625 0 1.390625 -0.3125q0.515625 -0.3125 0.515625 -0.890625q0 -0.375 -0.203125 -0.59375q-0.1875 -0.234375 -0.671875 -0.40625q-0.484375 -0.1875 -1.4375 -0.390625q-1.640625 -0.34375 -2.359375 -0.953125q-0.71875 -0.609375 -0.71875 -1.65625q0 -0.796875 0.46875 -1.4375q0.46875 -0.65625 1.28125 -1.0q0.828125 -0.359375 1.875 -0.359375q0.734375 0 1.4375 0.203125q0.71875 0.1875 1.265625 0.5625q0.609375 0.40625 0.609375 0.953125q0 0.296875 -0.1875 0.5q-0.171875 0.203125 -0.40625 0.203125q-0.171875 0 -0.34375 -0.0625q-0.15625 -0.078125 -0.4375 -0.25q-0.515625 -0.296875 -0.953125 -0.46875q-0.4375 -0.171875 -1.078125 -0.171875q-0.796875 0 -1.28125 0.34375q-0.46875 0.328125 -0.46875 0.90625q0 0.53125 0.4375 0.828125q0.453125 0.28125 1.65625 0.53125q1.25 0.265625 1.953125 0.609375q0.71875 0.328125 1.015625 0.828125q0.3125 0.484375 0.3125 1.25q0 1.21875 -1.015625 1.953125q-1.015625 0.734375 -2.703125 0.734375zm15.667572 -9.453125q3.25 0 3.25 3.671875l0 4.859375q0 0.40625 -0.265625 0.65625q-0.265625 0.234375 -0.6875 0.234375q-0.4375 0 -0.6875 -0.234375q-0.25 -0.25 -0.25 -0.65625l0 -4.84375q0 -1.109375 -0.46875 -1.625q-0.453125 -0.53125 -1.421875 -0.53125q-1.125 0 -1.828125 0.71875q-0.6875 0.703125 -0.6875 1.890625l0 4.390625q0 0.40625 -0.25 0.65625q-0.25 0.234375 -0.6875 0.234375q-0.421875 0 -0.6875 -0.234375q-0.25 -0.25 -0.25 -0.65625l0 -11.546875q0 -0.421875 0.265625 -0.65625q0.265625 -0.25 0.703125 -0.25q0.40625 0 0.65625 0.234375q0.25 0.234375 0.25 0.625l0 4.671875q0.46875 -0.78125 1.25 -1.1875q0.78125 -0.421875 1.796875 -0.421875zm9.777252 9.453125q-1.34375 0 -2.359375 -0.578125q-1.015625 -0.578125 -1.578125 -1.640625q-0.546875 -1.078125 -0.546875 -2.5q0 -1.4375 0.546875 -2.5q0.5625 -1.078125 1.578125 -1.65625q1.015625 -0.578125 2.359375 -0.578125q1.34375 0 2.359375 0.578125q1.015625 0.578125 1.5625 1.65625q0.546875 1.0625 0.546875 2.5q0 1.421875 -0.546875 2.5q-0.546875 1.0625 -1.5625 1.640625q-1.015625 0.578125 -2.359375 0.578125zm0 -1.484375q1.25 0 1.90625 -0.8125q0.65625 -0.828125 0.65625 -2.421875q0 -1.5625 -0.671875 -2.390625q-0.65625 -0.828125 -1.890625 -0.828125q-1.234375 0 -1.90625 0.828125q-0.671875 0.828125 -0.671875 2.390625q0 1.59375 0.65625 2.421875q0.671875 0.8125 1.921875 0.8125zm18.813324 -7.359375q0.21875 -0.546875 0.765625 -0.546875q0.359375 0 0.640625 0.25q0.28125 0.234375 0.28125 0.578125q0 0.1875 -0.078125 0.34375l-3.09375 7.546875q-0.109375 0.296875 -0.375 0.46875q-0.265625 0.15625 -0.578125 0.15625q-0.296875 0 -0.5625 -0.15625q-0.265625 -0.171875 -0.375 -0.46875l-2.421875 -5.984375l-2.375 5.984375q-0.109375 0.296875 -0.359375 0.46875q-0.25 0.15625 -0.5625 0.15625q-0.296875 0 -0.578125 -0.15625q-0.265625 -0.171875 -0.390625 -0.46875l-3.078125 -7.546875q-0.078125 -0.15625 -0.078125 -0.3125q0 -0.375 0.296875 -0.609375q0.3125 -0.25 0.6875 -0.25q0.5625 0 0.765625 0.53125l2.40625 6.359375l2.46875 -6.296875q0.109375 -0.296875 0.34375 -0.4375q0.25 -0.15625 0.53125 -0.15625q0.265625 0 0.5 0.15625q0.25 0.140625 0.359375 0.4375l2.453125 6.265625l2.40625 -6.3125zm12.823853 7.375q0.40625 0.03125 0.578125 0.21875q0.1875 0.171875 0.1875 0.484375q0 0.375 -0.296875 0.578125q-0.28125 0.1875 -0.84375 0.15625l-0.5 -0.03125q-1.515625 -0.125 -2.265625 -0.921875q-0.734375 -0.8125 -0.734375 -2.40625l0 -4.390625l-1.125 0q-0.828125 0 -0.828125 -0.71875q0 -0.34375 0.21875 -0.53125q0.21875 -0.203125 0.609375 -0.203125l1.125 0l0 -1.921875q0 -0.421875 0.25 -0.65625q0.25 -0.25 0.671875 -0.25q0.4375 0 0.6875 0.25q0.265625 0.234375 0.265625 0.65625l0 1.921875l1.84375 0q0.390625 0 0.609375 0.203125q0.21875 0.1875 0.21875 0.53125q0 0.359375 -0.21875 0.546875q-0.21875 0.171875 -0.609375 0.171875l-1.84375 0l0 4.515625q0 0.890625 0.359375 1.296875q0.375 0.40625 1.125 0.46875l0.515625 0.03125zm7.0544434 -7.984375q3.25 0 3.25 3.671875l0 4.859375q0 0.40625 -0.265625 0.65625q-0.265625 0.234375 -0.6875 0.234375q-0.4375 0 -0.6875 -0.234375q-0.25 -0.25 -0.25 -0.65625l0 -4.84375q0 -1.109375 -0.46875 -1.625q-0.453125 -0.53125 -1.421875 -0.53125q-1.125 0 -1.828125 0.71875q-0.6875 0.703125 -0.6875 1.890625l0 4.390625q0 0.40625 -0.25 0.65625q-0.25 0.234375 -0.6875 0.234375q-0.421875 0 -0.6875 -0.234375q-0.25 -0.25 -0.25 -0.65625l0 -11.546875q0 -0.421875 0.265625 -0.65625q0.265625 -0.25 0.703125 -0.25q0.40625 0 0.65625 0.234375q0.25 0.234375 0.25 0.625l0 4.671875q0.46875 -0.78125 1.25 -1.1875q0.78125 -0.421875 1.796875 -0.421875zm12.949097 7.03125q0.25 0 0.421875 0.203125q0.171875 0.203125 0.171875 0.53125q0 0.53125 -0.671875 0.90625q-0.65625 0.375 -1.4375 0.578125q-0.765625 0.203125 -1.46875 0.203125q-2.171875 0 -3.421875 -1.25q-1.25 -1.265625 -1.25 -3.453125q0 -1.390625 0.546875 -2.46875q0.5625 -1.09375 1.546875 -1.6875q1.0 -0.59375 2.28125 -0.59375q1.828125 0 2.890625 1.171875q1.0625 1.171875 1.0625 3.171875q0 0.75 -0.671875 0.75l-5.765625 0q0.1875 2.890625 2.78125 2.890625q0.6875 0 1.1875 -0.1875q0.5 -0.1875 1.0625 -0.484375q0.0625 -0.03125 0.3125 -0.15625q0.25 -0.125 0.421875 -0.125zm-3.25 -5.65625q-1.078125 0 -1.734375 0.703125q-0.65625 0.6875 -0.78125 1.9375l4.8125 0q-0.0625 -1.265625 -0.65625 -1.953125q-0.578125 -0.6875 -1.640625 -0.6875z" fill-rule="nonzero"/><path fill="#153570" d="m385.13007 367.6293q0.421875 0 0.6875 0.25q0.265625 0.234375 0.265625 0.65625l0 11.515625q0 0.4375 -0.25 0.6875q-0.25 0.234375 -0.6875 0.234375q-0.421875 0 -0.6875 -0.234375q-0.25 -0.25 -0.25 -0.6875l0 -0.734375q-0.40625 0.8125 -1.1875 1.25q-0.78125 0.4375 -1.8125 0.4375q-1.171875 0 -2.09375 -0.59375q-0.921875 -0.59375 -1.4375 -1.671875q-0.515625 -1.09375 -0.515625 -2.484375q0 -1.421875 0.515625 -2.484375q0.515625 -1.0625 1.421875 -1.640625q0.921875 -0.578125 2.109375 -0.578125q1.03125 0 1.796875 0.4375q0.78125 0.4375 1.1875 1.234375l0 -4.734375q0 -0.390625 0.25 -0.625q0.265625 -0.234375 0.6875 -0.234375zm-3.46875 11.890625q1.21875 0 1.875 -0.84375q0.671875 -0.84375 0.671875 -2.390625q0 -1.546875 -0.65625 -2.375q-0.65625 -0.84375 -1.890625 -0.84375q-1.234375 0 -1.921875 0.828125q-0.671875 0.828125 -0.671875 2.359375q0 1.53125 0.6875 2.40625q0.6875 0.859375 1.90625 0.859375zm11.010223 1.484375q-1.34375 0 -2.359375 -0.578125q-1.015625 -0.578125 -1.578125 -1.640625q-0.546875 -1.078125 -0.546875 -2.5q0 -1.4375 0.546875 -2.5q0.5625 -1.078125 1.578125 -1.65625q1.015625 -0.578125 2.359375 -0.578125q1.34375 0 2.359375 0.578125q1.015625 0.578125 1.5625 1.65625q0.546875 1.0625 0.546875 2.5q0 1.421875 -0.546875 2.5q-0.546875 1.0625 -1.5625 1.640625q-1.015625 0.578125 -2.359375 0.578125zm0 -1.484375q1.25 0 1.90625 -0.8125q0.65625 -0.828125 0.65625 -2.421875q0 -1.5625 -0.671875 -2.390625q-0.65625 -0.828125 -1.890625 -0.828125q-1.234375 0 -1.90625 0.828125q-0.671875 0.828125 -0.671875 2.390625q0 1.59375 0.65625 2.421875q0.671875 0.8125 1.921875 0.8125zm10.459625 1.484375q-1.328125 0 -2.328125 -0.578125q-0.984375 -0.578125 -1.546875 -1.640625q-0.546875 -1.0625 -0.546875 -2.453125q0 -1.421875 0.5625 -2.5q0.578125 -1.09375 1.59375 -1.6875q1.03125 -0.59375 2.359375 -0.59375q0.703125 0 1.421875 0.203125q0.71875 0.203125 1.28125 0.5625q0.59375 0.40625 0.59375 0.953125q0 0.3125 -0.171875 0.53125q-0.15625 0.21875 -0.421875 0.21875q-0.171875 0 -0.34375 -0.078125q-0.15625 -0.09375 -0.421875 -0.265625q-0.46875 -0.296875 -0.875 -0.453125q-0.390625 -0.15625 -0.953125 -0.15625q-1.265625 0 -1.96875 0.859375q-0.6875 0.859375 -0.6875 2.375q0 1.53125 0.6875 2.375q0.6875 0.828125 1.953125 0.828125q0.5625 0 0.984375 -0.171875q0.4375 -0.171875 0.875 -0.453125q0.21875 -0.125 0.421875 -0.21875q0.203125 -0.09375 0.375 -0.09375q0.25 0 0.421875 0.21875q0.171875 0.203125 0.171875 0.53125q0 0.25 -0.140625 0.46875q-0.140625 0.21875 -0.484375 0.4375q-0.546875 0.375 -1.296875 0.578125q-0.75 0.203125 -1.515625 0.203125zm12.167206 -9.421875q0.421875 0 0.671875 0.25q0.265625 0.234375 0.265625 0.671875l0 7.59375q0 0.390625 -0.265625 0.640625q-0.265625 0.234375 -0.6875 0.234375q-0.390625 0 -0.640625 -0.234375q-0.234375 -0.234375 -0.234375 -0.625l0 -0.703125q-0.4375 0.78125 -1.203125 1.1875q-0.75 0.40625 -1.671875 0.40625q-3.328125 0 -3.328125 -3.65625l0 -4.84375q0 -0.4375 0.25 -0.671875q0.25 -0.25 0.703125 -0.25q0.4375 0 0.6875 0.25q0.25 0.234375 0.25 0.671875l0 4.828125q0 1.109375 0.4375 1.625q0.453125 0.515625 1.390625 0.515625q1.09375 0 1.75 -0.703125q0.671875 -0.703125 0.671875 -1.890625l0 -4.375q0 -0.40625 0.25 -0.65625q0.265625 -0.265625 0.703125 -0.265625zm14.0060425 -0.03125q3.0625 0 3.0625 3.671875l0 4.859375q0 0.421875 -0.265625 0.65625q-0.25 0.234375 -0.6875 0.234375q-0.40625 0 -0.671875 -0.234375q-0.265625 -0.234375 -0.265625 -0.65625l0 -4.84375q0 -1.125 -0.40625 -1.640625q-0.40625 -0.515625 -1.28125 -0.515625q-1.03125 0 -1.625 0.703125q-0.59375 0.6875 -0.59375 1.90625l0 4.390625q0 0.421875 -0.265625 0.65625q-0.265625 0.234375 -0.6875 0.234375q-0.40625 0 -0.671875 -0.234375q-0.265625 -0.234375 -0.265625 -0.65625l0 -4.84375q0 -1.125 -0.40625 -1.640625q-0.40625 -0.515625 -1.296875 -0.515625q-1.015625 0 -1.625 0.703125q-0.609375 0.6875 -0.609375 1.90625l0 4.390625q0 0.421875 -0.265625 0.65625q-0.25 0.234375 -0.671875 0.234375q-0.40625 0 -0.671875 -0.234375q-0.265625 -0.234375 -0.265625 -0.65625l0 -7.59375q0 -0.421875 0.265625 -0.65625q0.28125 -0.25 0.671875 -0.25q0.40625 0 0.65625 0.234375q0.25 0.234375 0.25 0.65625l0 0.6875q0.40625 -0.78125 1.125 -1.1875q0.734375 -0.421875 1.6875 -0.421875q1.046875 0 1.71875 0.4375q0.6875 0.421875 1.03125 1.3125q0.40625 -0.796875 1.203125 -1.265625q0.8125 -0.484375 1.828125 -0.484375zm12.769196 7.03125q0.25 0 0.421875 0.203125q0.171875 0.203125 0.171875 0.53125q0 0.53125 -0.671875 0.90625q-0.65625 0.375 -1.4375 0.578125q-0.765625 0.203125 -1.46875 0.203125q-2.171875 0 -3.421875 -1.25q-1.25 -1.265625 -1.25 -3.453125q0 -1.390625 0.546875 -2.46875q0.5625 -1.09375 1.546875 -1.6875q1.0 -0.59375 2.28125 -0.59375q1.828125 0 2.890625 1.171875q1.0625 1.171875 1.0625 3.171875q0 0.75 -0.671875 0.75l-5.765625 0q0.1875 2.890625 2.78125 2.890625q0.6875 0 1.1875 -0.1875q0.5 -0.1875 1.0625 -0.484375q0.0625 -0.03125 0.3125 -0.15625q0.25 -0.125 0.421875 -0.125zm-3.25 -5.65625q-1.078125 0 -1.734375 0.703125q-0.65625 0.6875 -0.78125 1.9375l4.8125 0q-0.0625 -1.265625 -0.65625 -1.953125q-0.578125 -0.6875 -1.640625 -0.6875zm10.900391 -1.375q3.265625 0 3.265625 3.671875l0 4.859375q0 0.421875 -0.265625 0.65625q-0.25 0.234375 -0.6875 0.234375q-0.4375 0 -0.6875 -0.234375q-0.25 -0.25 -0.25 -0.65625l0 -4.765625q0 -1.15625 -0.46875 -1.6875q-0.453125 -0.546875 -1.421875 -0.546875q-1.125 0 -1.828125 0.71875q-0.6875 0.703125 -0.6875 1.890625l0 4.390625q0 0.40625 -0.25 0.65625q-0.25 0.234375 -0.6875 0.234375q-0.421875 0 -0.6875 -0.234375q-0.25 -0.25 -0.25 -0.65625l0 -7.59375q0 -0.390625 0.265625 -0.640625q0.265625 -0.265625 0.671875 -0.265625q0.421875 0 0.65625 0.25q0.25 0.234375 0.25 0.640625l0 0.75q0.4375 -0.8125 1.234375 -1.234375q0.8125 -0.4375 1.828125 -0.4375zm10.292877 7.984375q0.40625 0.03125 0.578125 0.21875q0.1875 0.171875 0.1875 0.484375q0 0.375 -0.296875 0.578125q-0.28125 0.1875 -0.84375 0.15625l-0.5 -0.03125q-1.515625 -0.125 -2.265625 -0.921875q-0.734375 -0.8125 -0.734375 -2.40625l0 -4.390625l-1.125 0q-0.828125 0 -0.828125 -0.71875q0 -0.34375 0.21875 -0.53125q0.21875 -0.203125 0.609375 -0.203125l1.125 0l0 -1.921875q0 -0.421875 0.25 -0.65625q0.25 -0.25 0.671875 -0.25q0.4375 0 0.6875 0.25q0.265625 0.234375 0.265625 0.65625l0 1.921875l1.84375 0q0.390625 0 0.609375 0.203125q0.21875 0.1875 0.21875 0.53125q0 0.359375 -0.21875 0.546875q-0.21875 0.171875 -0.609375 0.171875l-1.84375 0l0 4.515625q0 0.890625 0.359375 1.296875q0.375 0.40625 1.125 0.46875l0.515625 0.03125zm7.9953003 1.4375q-0.40625 0 -0.671875 -0.21875q-0.265625 -0.234375 -0.265625 -0.671875l0 -7.578125q0 -0.453125 0.265625 -0.6875q0.265625 -0.234375 0.671875 -0.234375q0.421875 0 0.671875 0.234375q0.265625 0.234375 0.265625 0.6875l0 7.578125q0 0.4375 -0.265625 0.671875q-0.25 0.21875 -0.671875 0.21875zm0.015625 -11.21875q-0.546875 0 -0.859375 -0.296875q-0.3125 -0.296875 -0.3125 -0.78125q0 -0.484375 0.3125 -0.765625q0.3125 -0.296875 0.859375 -0.296875q0.515625 0 0.84375 0.296875q0.328125 0.28125 0.328125 0.765625q0 0.484375 -0.3125 0.78125q-0.3125 0.296875 -0.859375 0.296875zm6.733551 11.25q-1.90625 0 -3.125 -0.78125q-0.328125 -0.203125 -0.46875 -0.421875q-0.140625 -0.234375 -0.140625 -0.5q0 -0.3125 0.15625 -0.515625q0.171875 -0.203125 0.4375 -0.203125q0.234375 0 0.765625 0.296875q0.5625 0.296875 1.09375 0.484375q0.53125 0.1875 1.328125 0.1875q0.890625 0 1.390625 -0.3125q0.515625 -0.3125 0.515625 -0.890625q0 -0.375 -0.203125 -0.59375q-0.1875 -0.234375 -0.671875 -0.40625q-0.484375 -0.1875 -1.4375 -0.390625q-1.640625 -0.34375 -2.359375 -0.953125q-0.71875 -0.609375 -0.71875 -1.65625q0 -0.796875 0.46875 -1.4375q0.46875 -0.65625 1.28125 -1.0q0.828125 -0.359375 1.875 -0.359375q0.734375 0 1.4375 0.203125q0.71875 0.1875 1.265625 0.5625q0.609375 0.40625 0.609375 0.953125q0 0.296875 -0.1875 0.5q-0.171875 0.203125 -0.40625 0.203125q-0.171875 0 -0.34375 -0.0625q-0.15625 -0.078125 -0.4375 -0.25q-0.515625 -0.296875 -0.953125 -0.46875q-0.4375 -0.171875 -1.078125 -0.171875q-0.796875 0 -1.28125 0.34375q-0.46875 0.328125 -0.46875 0.90625q0 0.53125 0.4375 0.828125q0.453125 0.28125 1.65625 0.53125q1.25 0.265625 1.953125 0.609375q0.71875 0.328125 1.015625 0.828125q0.3125 0.484375 0.3125 1.25q0 1.21875 -1.015625 1.953125q-1.015625 0.734375 -2.703125 0.734375zm13.917572 0q-1.90625 0 -3.125 -0.78125q-0.328125 -0.203125 -0.46875 -0.421875q-0.140625 -0.234375 -0.140625 -0.5q0 -0.3125 0.15625 -0.515625q0.171875 -0.203125 0.4375 -0.203125q0.234375 0 0.765625 0.296875q0.5625 0.296875 1.09375 0.484375q0.53125 0.1875 1.328125 0.1875q0.890625 0 1.390625 -0.3125q0.515625 -0.3125 0.515625 -0.890625q0 -0.375 -0.203125 -0.59375q-0.1875 -0.234375 -0.671875 -0.40625q-0.484375 -0.1875 -1.4375 -0.390625q-1.640625 -0.34375 -2.359375 -0.953125q-0.71875 -0.609375 -0.71875 -1.65625q0 -0.796875 0.46875 -1.4375q0.46875 -0.65625 1.28125 -1.0q0.828125 -0.359375 1.875 -0.359375q0.734375 0 1.4375 0.203125q0.71875 0.1875 1.265625 0.5625q0.609375 0.40625 0.609375 0.953125q0 0.296875 -0.1875 0.5q-0.171875 0.203125 -0.40625 0.203125q-0.171875 0 -0.34375 -0.0625q-0.15625 -0.078125 -0.4375 -0.25q-0.515625 -0.296875 -0.953125 -0.46875q-0.4375 -0.171875 -1.078125 -0.171875q-0.796875 0 -1.28125 0.34375q-0.46875 0.328125 -0.46875 0.90625q0 0.53125 0.4375 0.828125q0.453125 0.28125 1.65625 0.53125q1.25 0.265625 1.953125 0.609375q0.71875 0.328125 1.015625 0.828125q0.3125 0.484375 0.3125 1.25q0 1.21875 -1.015625 1.953125q-1.015625 0.734375 -2.703125 0.734375zm10.180206 -1.46875q0.40625 0.03125 0.578125 0.21875q0.1875 0.171875 0.1875 0.484375q0 0.375 -0.296875 0.578125q-0.28125 0.1875 -0.84375 0.15625l-0.5 -0.03125q-1.515625 -0.125 -2.265625 -0.921875q-0.734375 -0.8125 -0.734375 -2.40625l0 -4.390625l-1.125 0q-0.828125 0 -0.828125 -0.71875q0 -0.34375 0.21875 -0.53125q0.21875 -0.203125 0.609375 -0.203125l1.125 0l0 -1.921875q0 -0.421875 0.25 -0.65625q0.25 -0.25 0.671875 -0.25q0.4375 0 0.6875 0.25q0.265625 0.234375 0.265625 0.65625l0 1.921875l1.84375 0q0.390625 0 0.609375 0.203125q0.21875 0.1875 0.21875 0.53125q0 0.359375 -0.21875 0.546875q-0.21875 0.171875 -0.609375 0.171875l-1.84375 0l0 4.515625q0 0.890625 0.359375 1.296875q0.375 0.40625 1.125 0.46875l0.515625 0.03125zm6.898163 -7.953125q0.90625 -0.046875 0.90625 0.765625q0 0.421875 -0.21875 0.625q-0.203125 0.203125 -0.703125 0.234375l-0.5625 0.0625q-1.171875 0.109375 -1.75 0.828125q-0.5625 0.703125 -0.5625 1.703125l0 4.28125q0 0.4375 -0.265625 0.671875q-0.25 0.21875 -0.671875 0.21875q-0.40625 0 -0.671875 -0.21875q-0.265625 -0.234375 -0.265625 -0.671875l0 -7.59375q0 -0.4375 0.265625 -0.671875q0.265625 -0.234375 0.671875 -0.234375q0.375 0 0.625 0.234375q0.265625 0.234375 0.265625 0.65625l0 0.890625q0.359375 -0.828125 1.0625 -1.25q0.71875 -0.4375 1.625 -0.5l0.25 -0.03125zm9.1094055 0q0.421875 0 0.671875 0.25q0.265625 0.234375 0.265625 0.671875l0 7.59375q0 0.390625 -0.265625 0.640625q-0.265625 0.234375 -0.6875 0.234375q-0.390625 0 -0.640625 -0.234375q-0.234375 -0.234375 -0.234375 -0.625l0 -0.703125q-0.4375 0.78125 -1.203125 1.1875q-0.75 0.40625 -1.6718445 0.40625q-3.328125 0 -3.328125 -3.65625l0 -4.84375q0 -0.4375 0.25 -0.671875q0.25 -0.25 0.703125 -0.25q0.4375 0 0.6875 0.25q0.25 0.234375 0.25 0.671875l0 4.828125q0 1.109375 0.4375 1.625q0.453125 0.515625 1.390625 0.515625q1.0937195 0 1.7499695 -0.703125q0.671875 -0.703125 0.671875 -1.890625l0 -4.375q0 -0.40625 0.25 -0.65625q0.265625 -0.265625 0.703125 -0.265625zm7.4591675 9.421875q-1.328125 0 -2.328125 -0.578125q-0.984375 -0.578125 -1.546875 -1.640625q-0.546875 -1.0625 -0.546875 -2.453125q0 -1.421875 0.5625 -2.5q0.578125 -1.09375 1.59375 -1.6875q1.03125 -0.59375 2.359375 -0.59375q0.703125 0 1.421875 0.203125q0.71875 0.203125 1.28125 0.5625q0.59375 0.40625 0.59375 0.953125q0 0.3125 -0.171875 0.53125q-0.15625 0.21875 -0.421875 0.21875q-0.171875 0 -0.34375 -0.078125q-0.15625 -0.09375 -0.421875 -0.265625q-0.46875 -0.296875 -0.875 -0.453125q-0.390625 -0.15625 -0.953125 -0.15625q-1.265625 0 -1.96875 0.859375q-0.6875 0.859375 -0.6875 2.375q0 1.53125 0.6875 2.375q0.6875 0.828125 1.953125 0.828125q0.5625 0 0.984375 -0.171875q0.4375 -0.171875 0.875 -0.453125q0.21875 -0.125 0.421875 -0.21875q0.203125 -0.09375 0.375 -0.09375q0.25 0 0.421875 0.21875q0.171875 0.203125 0.171875 0.53125q0 0.25 -0.140625 0.46875q-0.140625 0.21875 -0.484375 0.4375q-0.546875 0.375 -1.296875 0.578125q-0.75 0.203125 -1.515625 0.203125zm9.61084 -1.46875q0.40625 0.03125 0.578125 0.21875q0.1875 0.171875 0.1875 0.484375q0 0.375 -0.296875 0.578125q-0.28125 0.1875 -0.84375 0.15625l-0.5 -0.03125q-1.515625 -0.125 -2.265625 -0.921875q-0.734375 -0.8125 -0.734375 -2.40625l0 -4.390625l-1.125 0q-0.828125 0 -0.828125 -0.71875q0 -0.34375 0.21875 -0.53125q0.21875 -0.203125 0.609375 -0.203125l1.125 0l0 -1.921875q0 -0.421875 0.25 -0.65625q0.25 -0.25 0.671875 -0.25q0.4375 0 0.6875 0.25q0.265625 0.234375 0.265625 0.65625l0 1.921875l1.84375 0q0.390625 0 0.609375 0.203125q0.21875 0.1875 0.21875 0.53125q0 0.359375 -0.21875 0.546875q-0.21875 0.171875 -0.609375 0.171875l-1.84375 0l0 4.515625q0 0.890625 0.359375 1.296875q0.375 0.40625 1.125 0.46875l0.515625 0.03125zm9.179382 -7.953125q0.421875 0 0.671875 0.25q0.265625 0.234375 0.265625 0.671875l0 7.59375q0 0.390625 -0.265625 0.640625q-0.265625 0.234375 -0.6875 0.234375q-0.390625 0 -0.640625 -0.234375q-0.234375 -0.234375 -0.234375 -0.625l0 -0.703125q-0.4375 0.78125 -1.203125 1.1875q-0.75 0.40625 -1.671875 0.40625q-3.328125 0 -3.328125 -3.65625l0 -4.84375q0 -0.4375 0.25 -0.671875q0.25 -0.25 0.703125 -0.25q0.4375 0 0.6875 0.25q0.25 0.234375 0.25 0.671875l0 4.828125q0 1.109375 0.4375 1.625q0.453125 0.515625 1.390625 0.515625q1.09375 0 1.75 -0.703125q0.671875 -0.703125 0.671875 -1.890625l0 -4.375q0 -0.40625 0.25 -0.65625q0.265625 -0.265625 0.703125 -0.265625zm8.3341675 0q0.90625 -0.046875 0.90625 0.765625q0 0.421875 -0.21875 0.625q-0.203125 0.203125 -0.703125 0.234375l-0.5625 0.0625q-1.171875 0.109375 -1.75 0.828125q-0.5625 0.703125 -0.5625 1.703125l0 4.28125q0 0.4375 -0.265625 0.671875q-0.25 0.21875 -0.671875 0.21875q-0.40625 0 -0.671875 -0.21875q-0.265625 -0.234375 -0.265625 -0.671875l0 -7.59375q0 -0.4375 0.265625 -0.671875q0.265625 -0.234375 0.671875 -0.234375q0.375 0 0.625 0.234375q0.265625 0.234375 0.265625 0.65625l0 0.890625q0.359375 -0.828125 1.0625 -1.25q0.71875 -0.4375 1.625 -0.5l0.25 -0.03125zm9.000916 7.0q0.25 0 0.421875 0.203125q0.171875 0.203125 0.171875 0.53125q0 0.53125 -0.671875 0.90625q-0.65625 0.375 -1.4375 0.578125q-0.765625 0.203125 -1.46875 0.203125q-2.171875 0 -3.421875 -1.25q-1.25 -1.265625 -1.25 -3.453125q0 -1.390625 0.546875 -2.46875q0.5625 -1.09375 1.546875 -1.6875q1.0 -0.59375 2.28125 -0.59375q1.828125 0 2.890625 1.171875q1.0625 1.171875 1.0625 3.171875q0 0.75 -0.671875 0.75l-5.765625 0q0.1875 2.890625 2.78125 2.890625q0.6875 0 1.1875 -0.1875q0.5 -0.1875 1.0625 -0.484375q0.0625 -0.03125 0.3125 -0.15625q0.25 -0.125 0.421875 -0.125zm-3.25 -5.65625q-1.078125 0 -1.734375 0.703125q-0.65625 0.6875 -0.78125 1.9375l4.8125 0q-0.0625 -1.265625 -0.65625 -1.953125q-0.578125 -0.6875 -1.640625 -0.6875zm13.431641 -5.296875q0.421875 0 0.6875 0.25q0.265625 0.234375 0.265625 0.65625l0 11.515625q0 0.4375 -0.25 0.6875q-0.25 0.234375 -0.6875 0.234375q-0.421875 0 -0.6875 -0.234375q-0.25 -0.25 -0.25 -0.6875l0 -0.734375q-0.40625 0.8125 -1.1875 1.25q-0.78125 0.4375 -1.8125 0.4375q-1.171875 0 -2.09375 -0.59375q-0.921875 -0.59375 -1.4375 -1.671875q-0.515625 -1.09375 -0.515625 -2.484375q0 -1.421875 0.515625 -2.484375q0.515625 -1.0625 1.421875 -1.640625q0.921875 -0.578125 2.109375 -0.578125q1.03125 0 1.796875 0.4375q0.78125 0.4375 1.1875 1.234375l0 -4.734375q0 -0.390625 0.25 -0.625q0.265625 -0.234375 0.6875 -0.234375zm-3.46875 11.890625q1.21875 0 1.875 -0.84375q0.671875 -0.84375 0.671875 -2.390625q0 -1.546875 -0.65625 -2.375q-0.65625 -0.84375 -1.890625 -0.84375q-1.234375 0 -1.921875 0.828125q-0.671875 0.828125 -0.671875 2.359375q0 1.53125 0.6875 2.40625q0.6875 0.859375 1.90625 0.859375z" fill-rule="nonzero"/><path fill="#000000" fill-opacity="0.0" d="m476.64435 291.77036c0 10.748016 -2.5039368 16.12204 -5.0078735 21.496063c-2.5039368 5.373993 -5.0078735 10.748016 -5.0078735 21.496063" fill-rule="evenodd"/><path stroke="#153570" stroke-width="3.0" stroke-linejoin="round" stroke-linecap="butt" d="m476.64435 291.77036c0 10.748016 -2.5039368 16.12204 -5.0078735 21.496063c-0.31298828 0.6717529 -0.62597656 1.3434753 -0.93408203 2.0257263c-0.15405273 0.3411255 -0.30688477 0.6848755 -0.45788574 1.0325623c-0.07546997 0.17385864 -0.1505127 0.34866333 -0.22503662 0.5246277l-0.091033936 0.21820068" fill-rule="evenodd"/><path fill="#153570" stroke="#153570" stroke-width="3.0" stroke-linecap="butt" d="m465.05722 316.15912l2.3753967 14.291962l7.367035 -12.475159z" fill-rule="evenodd"/><path fill="#000000" fill-opacity="0.0" d="m598.1116 156.67848l280.5669 0l0 36.377945l-280.5669 0z" fill-rule="evenodd"/><path fill="#ff8900" d="m637.50867 180.66245q0.09375 0.234375 0.09375 0.375q0 0.359375 -0.296875 0.609375q-0.28125 0.234375 -0.640625 0.234375q-0.25 0 -0.46875 -0.140625q-0.203125 -0.140625 -0.3125 -0.40625l-1.234375 -2.796875l-6.828125 0l-1.234375 2.796875q-0.109375 0.265625 -0.34375 0.40625q-0.21875 0.140625 -0.453125 0.140625q-0.375 0 -0.671875 -0.234375q-0.28125 -0.25 -0.28125 -0.609375q0 -0.140625 0.09375 -0.375l5.265625 -11.5q0.125 -0.296875 0.40625 -0.46875q0.296875 -0.171875 0.609375 -0.171875q0.3125 0 0.609375 0.171875q0.296875 0.171875 0.421875 0.46875l5.265625 11.5zm-9.0 -3.65625l5.46875 0l-2.75 -6.171875l-2.71875 6.171875zm28.165833 -3.9375q0.21875 -0.546875 0.765625 -0.546875q0.359375 0 0.640625 0.25q0.28125 0.234375 0.28125 0.578125q0 0.1875 -0.078125 0.34375l-3.09375 7.546875q-0.109375 0.296875 -0.375 0.46875q-0.265625 0.15625 -0.578125 0.15625q-0.296875 0 -0.5625 -0.15625q-0.265625 -0.171875 -0.375 -0.46875l-2.421875 -5.984375l-2.375 5.984375q-0.109375 0.296875 -0.359375 0.46875q-0.25 0.15625 -0.5625 0.15625q-0.296875 0 -0.578125 -0.15625q-0.265625 -0.171875 -0.390625 -0.46875l-3.078125 -7.546875q-0.078125 -0.15625 -0.078125 -0.3125q0 -0.375 0.296875 -0.609375q0.3125 -0.25 0.6875 -0.25q0.5625 0 0.765625 0.53125l2.40625 6.359375l2.46875 -6.296875q0.109375 -0.296875 0.34375 -0.4375q0.25 -0.15625 0.53125 -0.15625q0.265625 0 0.5 0.15625q0.25 0.140625 0.359375 0.4375l2.453125 6.265625l2.40625 -6.3125zm7.1087036 -0.609375q1.8125 0 2.703125 0.921875q0.890625 0.90625 0.890625 2.765625l0 4.84375q0 0.421875 -0.25 0.65625q-0.234375 0.234375 -0.671875 0.234375q-0.40625 0 -0.65625 -0.234375q-0.234375 -0.25 -0.234375 -0.65625l0 -0.703125q-0.359375 0.796875 -1.0625 1.21875q-0.6875 0.40625 -1.625 0.40625q-0.890625 0 -1.640625 -0.359375q-0.734375 -0.359375 -1.171875 -0.984375q-0.421875 -0.640625 -0.421875 -1.453125q-0.015625 -1.0 0.5 -1.5625q0.53125 -0.578125 1.703125 -0.828125q1.171875 -0.25 3.265625 -0.25l0.4375 0l0 -0.546875q0 -1.046875 -0.4375 -1.5q-0.421875 -0.46875 -1.375 -0.46875q-0.65625 0 -1.234375 0.171875q-0.578125 0.15625 -1.265625 0.46875q-0.5 0.28125 -0.71875 0.28125q-0.28125 0 -0.453125 -0.203125q-0.171875 -0.203125 -0.171875 -0.515625q0 -0.28125 0.15625 -0.5q0.15625 -0.21875 0.515625 -0.421875q0.65625 -0.359375 1.53125 -0.5625q0.875 -0.21875 1.6875 -0.21875zm-0.578125 8.0625q1.03125 0 1.6875 -0.703125q0.65625 -0.703125 0.65625 -1.796875l0 -0.484375l-0.34375 0q-1.453125 0 -2.234375 0.125q-0.78125 0.125 -1.125 0.4375q-0.328125 0.3125 -0.328125 0.890625q0 0.671875 0.484375 1.109375q0.484375 0.421875 1.203125 0.421875zm13.215454 -7.46875q0.109375 -0.28125 0.328125 -0.40625q0.21875 -0.125 0.453125 -0.125q0.359375 0 0.625 0.25q0.265625 0.234375 0.265625 0.5625q0 0.1875 -0.0625 0.359375l-5.1875 11.0q-0.125 0.265625 -0.34375 0.40625q-0.203125 0.140625 -0.4375 0.140625q-0.34375 0 -0.625 -0.234375q-0.265625 -0.21875 -0.265625 -0.546875q0 -0.15625 0.09375 -0.375l1.296875 -2.75l-3.609375 -7.640625q-0.0625 -0.15625 -0.0625 -0.34375q0 -0.34375 0.296875 -0.578125q0.296875 -0.25 0.671875 -0.25q0.546875 0 0.796875 0.515625l2.890625 6.421875l2.875 -6.40625zm12.61084 7.390625q0.40625 0.03125 0.578125 0.21875q0.1875 0.171875 0.1875 0.484375q0 0.375 -0.296875 0.578125q-0.28125 0.1875 -0.84375 0.15625l-0.5 -0.03125q-1.515625 -0.125 -2.265625 -0.921875q-0.734375 -0.8125 -0.734375 -2.40625l0 -4.390625l-1.125 0q-0.828125 0 -0.828125 -0.71875q0 -0.34375 0.21875 -0.53125q0.21875 -0.203125 0.609375 -0.203125l1.125 0l0 -1.921875q0 -0.421875 0.25 -0.65625q0.25 -0.25 0.671875 -0.25q0.4375 0 0.6875 0.25q0.265625 0.234375 0.265625 0.65625l0 1.921875l1.84375 0q0.390625 0 0.609375 0.203125q0.21875 0.1875 0.21875 0.53125q0 0.359375 -0.21875 0.546875q-0.21875 0.171875 -0.609375 0.171875l-1.84375 0l0 4.515625q0 0.890625 0.359375 1.296875q0.375 0.40625 1.125 0.46875l0.515625 0.03125zm6.0856934 1.46875q-1.34375 0 -2.359375 -0.578125q-1.015625 -0.578125 -1.578125 -1.640625q-0.546875 -1.078125 -0.546875 -2.5q0 -1.4375 0.546875 -2.5q0.5625 -1.078125 1.578125 -1.65625q1.015625 -0.578125 2.359375 -0.578125q1.34375 0 2.359375 0.578125q1.015625 0.578125 1.5625 1.65625q0.546875 1.0625 0.546875 2.5q0 1.421875 -0.546875 2.5q-0.546875 1.0625 -1.5625 1.640625q-1.015625 0.578125 -2.359375 0.578125zm0 -1.484375q1.25 0 1.90625 -0.8125q0.65625 -0.828125 0.65625 -2.421875q0 -1.5625 -0.671875 -2.390625q-0.65625 -0.828125 -1.890625 -0.828125q-1.234375 0 -1.90625 0.828125q-0.671875 0.828125 -0.671875 2.390625q0 1.59375 0.65625 2.421875q0.671875 0.8125 1.921875 0.8125zm15.947388 0.015625q0.40625 0.03125 0.578125 0.21875q0.1875 0.171875 0.1875 0.484375q0 0.375 -0.296875 0.578125q-0.28125 0.1875 -0.84375 0.15625l-0.5 -0.03125q-1.515625 -0.125 -2.265625 -0.921875q-0.734375 -0.8125 -0.734375 -2.40625l0 -4.390625l-1.125 0q-0.828125 0 -0.828125 -0.71875q0 -0.34375 0.21875 -0.53125q0.21875 -0.203125 0.609375 -0.203125l1.125 0l0 -1.921875q0 -0.421875 0.25 -0.65625q0.25 -0.25 0.671875 -0.25q0.4375 0 0.6875 0.25q0.265625 0.234375 0.265625 0.65625l0 1.921875l1.84375 0q0.390625 0 0.609375 0.203125q0.21875 0.1875 0.21875 0.53125q0 0.359375 -0.21875 0.546875q-0.21875 0.171875 -0.609375 0.171875l-1.84375 0l0 4.515625q0 0.890625 0.359375 1.296875q0.375 0.40625 1.125 0.46875l0.515625 0.03125zm5.9450073 -7.984375q1.8125 0 2.703125 0.921875q0.890625 0.90625 0.890625 2.765625l0 4.84375q0 0.421875 -0.25 0.65625q-0.234375 0.234375 -0.671875 0.234375q-0.40625 0 -0.65625 -0.234375q-0.234375 -0.25 -0.234375 -0.65625l0 -0.703125q-0.359375 0.796875 -1.0625 1.21875q-0.6875 0.40625 -1.625 0.40625q-0.890625 0 -1.640625 -0.359375q-0.734375 -0.359375 -1.171875 -0.984375q-0.421875 -0.640625 -0.421875 -1.453125q-0.015625 -1.0 0.5 -1.5625q0.53125 -0.578125 1.703125 -0.828125q1.171875 -0.25 3.265625 -0.25l0.4375 0l0 -0.546875q0 -1.046875 -0.4375 -1.5q-0.421875 -0.46875 -1.375 -0.46875q-0.65625 0 -1.234375 0.171875q-0.578125 0.15625 -1.265625 0.46875q-0.5 0.28125 -0.71875 0.28125q-0.28125 0 -0.453125 -0.203125q-0.171875 -0.203125 -0.171875 -0.515625q0 -0.28125 0.15625 -0.5q0.15625 -0.21875 0.515625 -0.421875q0.65625 -0.359375 1.53125 -0.5625q0.875 -0.21875 1.6875 -0.21875zm-0.578125 8.0625q1.03125 0 1.6875 -0.703125q0.65625 -0.703125 0.65625 -1.796875l0 -0.484375l-0.34375 0q-1.453125 0 -2.234375 0.125q-0.78125 0.125 -1.125 0.4375q-0.328125 0.3125 -0.328125 0.890625q0 0.671875 0.484375 1.109375q0.484375 0.421875 1.203125 0.421875zm7.684204 1.359375q-0.40625 0 -0.671875 -0.21875q-0.265625 -0.234375 -0.265625 -0.671875l0 -11.53125q0 -0.453125 0.265625 -0.6875q0.265625 -0.234375 0.671875 -0.234375q0.421875 0 0.671875 0.234375q0.265625 0.234375 0.265625 0.6875l0 11.53125q0 0.4375 -0.265625 0.671875q-0.25 0.21875 -0.671875 0.21875zm11.217957 -1.5625q0.34375 0.28125 0.34375 0.6875q0 0.359375 -0.25 0.625q-0.234375 0.25 -0.578125 0.25q-0.359375 0 -0.640625 -0.265625l-4.640625 -4.09375l0 3.4375q0 0.453125 -0.265625 0.6875q-0.25 0.234375 -0.671875 0.234375q-0.40625 0 -0.671875 -0.234375q-0.265625 -0.234375 -0.265625 -0.6875l0 -11.5q0 -0.453125 0.265625 -0.6875q0.265625 -0.234375 0.671875 -0.234375q0.421875 0 0.671875 0.234375q0.265625 0.234375 0.265625 0.6875l0 7.3125l4.25 -3.984375q0.328125 -0.265625 0.625 -0.265625q0.34375 0 0.609375 0.265625q0.265625 0.25 0.265625 0.609375q0 0.34375 -0.3125 0.640625l-3.328125 3.046875l3.65625 3.234375zm11.383057 0.125q0.40625 0.03125 0.578125 0.21875q0.1875 0.171875 0.1875 0.484375q0 0.375 -0.296875 0.578125q-0.28125 0.1875 -0.84375 0.15625l-0.5 -0.03125q-1.515625 -0.125 -2.265625 -0.921875q-0.734375 -0.8125 -0.734375 -2.40625l0 -4.390625l-1.125 0q-0.828125 0 -0.828125 -0.71875q0 -0.34375 0.21875 -0.53125q0.21875 -0.203125 0.609375 -0.203125l1.125 0l0 -1.921875q0 -0.421875 0.25 -0.65625q0.25 -0.25 0.671875 -0.25q0.4375 0 0.6875 0.25q0.265625 0.234375 0.265625 0.65625l0 1.921875l1.84375 0q0.390625 0 0.609375 0.203125q0.21875 0.1875 0.21875 0.53125q0 0.359375 -0.21875 0.546875q-0.21875 0.171875 -0.609375 0.171875l-1.84375 0l0 4.515625q0 0.890625 0.359375 1.296875q0.375 0.40625 1.125 0.46875l0.515625 0.03125zm6.0856323 1.46875q-1.34375 0 -2.359375 -0.578125q-1.015625 -0.578125 -1.578125 -1.640625q-0.546875 -1.078125 -0.546875 -2.5q0 -1.4375 0.546875 -2.5q0.5625 -1.078125 1.578125 -1.65625q1.015625 -0.578125 2.359375 -0.578125q1.34375 0 2.359375 0.578125q1.015625 0.578125 1.5625 1.65625q0.546875 1.0625 0.546875 2.5q0 1.421875 -0.546875 2.5q-0.546875 1.0625 -1.5625 1.640625q-1.015625 0.578125 -2.359375 0.578125zm0 -1.484375q1.25 0 1.90625 -0.8125q0.65625 -0.828125 0.65625 -2.421875q0 -1.5625 -0.671875 -2.390625q-0.65625 -0.828125 -1.890625 -0.828125q-1.234375 0 -1.90625 0.828125q-0.671875 0.828125 -0.671875 2.390625q0 1.59375 0.65625 2.421875q0.671875 0.8125 1.921875 0.8125zm15.384888 1.484375q-1.328125 0 -2.328125 -0.578125q-0.984375 -0.578125 -1.546875 -1.640625q-0.546875 -1.0625 -0.546875 -2.453125q0 -1.421875 0.5625 -2.5q0.578125 -1.09375 1.59375 -1.6875q1.03125 -0.59375 2.359375 -0.59375q0.703125 0 1.421875 0.203125q0.71875 0.203125 1.28125 0.5625q0.59375 0.40625 0.59375 0.953125q0 0.3125 -0.171875 0.53125q-0.15625 0.21875 -0.421875 0.21875q-0.171875 0 -0.34375 -0.078125q-0.15625 -0.09375 -0.421875 -0.265625q-0.46875 -0.296875 -0.875 -0.453125q-0.390625 -0.15625 -0.953125 -0.15625q-1.265625 0 -1.96875 0.859375q-0.6875 0.859375 -0.6875 2.375q0 1.53125 0.6875 2.375q0.6875 0.828125 1.953125 0.828125q0.5625 0 0.984375 -0.171875q0.4375 -0.171875 0.875 -0.453125q0.21875 -0.125 0.421875 -0.21875q0.203125 -0.09375 0.375 -0.09375q0.25 0 0.421875 0.21875q0.171875 0.203125 0.171875 0.53125q0 0.25 -0.140625 0.46875q-0.140625 0.21875 -0.484375 0.4375q-0.546875 0.375 -1.296875 0.578125q-0.75 0.203125 -1.515625 0.203125zm9.073486 0q-1.34375 0 -2.359375 -0.578125q-1.015625 -0.578125 -1.578125 -1.640625q-0.546875 -1.078125 -0.546875 -2.5q0 -1.4375 0.546875 -2.5q0.5625 -1.078125 1.578125 -1.65625q1.015625 -0.578125 2.359375 -0.578125q1.34375 0 2.359375 0.578125q1.015625 0.578125 1.5625 1.65625q0.546875 1.0625 0.546875 2.5q0 1.421875 -0.546875 2.5q-0.546875 1.0625 -1.5625 1.640625q-1.015625 0.578125 -2.359375 0.578125zm0 -1.484375q1.25 0 1.90625 -0.8125q0.65625 -0.828125 0.65625 -2.421875q0 -1.5625 -0.671875 -2.390625q-0.65625 -0.828125 -1.890625 -0.828125q-1.234375 0 -1.90625 0.828125q-0.671875 0.828125 -0.671875 2.390625q0 1.59375 0.65625 2.421875q0.671875 0.8125 1.921875 0.8125zm17.00647 -7.96875q3.0625 0 3.0625 3.671875l0 4.859375q0 0.421875 -0.265625 0.65625q-0.25 0.234375 -0.6875 0.234375q-0.40625 0 -0.671875 -0.234375q-0.265625 -0.234375 -0.265625 -0.65625l0 -4.84375q0 -1.125 -0.40625 -1.640625q-0.40625 -0.515625 -1.28125 -0.515625q-1.03125 0 -1.625 0.703125q-0.59375 0.6875 -0.59375 1.90625l0 4.390625q0 0.421875 -0.265625 0.65625q-0.265625 0.234375 -0.6875 0.234375q-0.40625 0 -0.671875 -0.234375q-0.265625 -0.234375 -0.265625 -0.65625l0 -4.84375q0 -1.125 -0.40625 -1.640625q-0.40625 -0.515625 -1.296875 -0.515625q-1.015625 0 -1.625 0.703125q-0.609375 0.6875 -0.609375 1.90625l0 4.390625q0 0.421875 -0.265625 0.65625q-0.25 0.234375 -0.671875 0.234375q-0.40625 0 -0.671875 -0.234375q-0.265625 -0.234375 -0.265625 -0.65625l0 -7.59375q0 -0.421875 0.265625 -0.65625q0.28125 -0.25 0.671875 -0.25q0.40625 0 0.65625 0.234375q0.25 0.234375 0.25 0.65625l0 0.6875q0.40625 -0.78125 1.125 -1.1875q0.734375 -0.421875 1.6875 -0.421875q1.046875 0 1.71875 0.4375q0.6875 0.421875 1.03125 1.3125q0.40625 -0.796875 1.203125 -1.265625q0.8125 -0.484375 1.828125 -0.484375zm10.519226 0q1.1875 0 2.109375 0.59375q0.921875 0.59375 1.4375 1.6875q0.515625 1.078125 0.515625 2.5q0 1.390625 -0.515625 2.453125q-0.5 1.0625 -1.421875 1.640625q-0.921875 0.578125 -2.125 0.578125q-1.015625 0 -1.8125 -0.4375q-0.78125 -0.4375 -1.1875 -1.25l0 4.15625q0 0.390625 -0.25 0.625q-0.25 0.234375 -0.65625 0.234375q-0.4375 0 -0.703125 -0.25q-0.265625 -0.234375 -0.265625 -0.640625l0 -10.9375q0 -0.40625 0.25 -0.65625q0.265625 -0.265625 0.6875 -0.265625q0.421875 0 0.671875 0.265625q0.265625 0.25 0.265625 0.65625l0 0.765625q0.40625 -0.828125 1.1875 -1.265625q0.796875 -0.453125 1.8125 -0.453125zm-0.4375 7.96875q1.234375 0 1.90625 -0.828125q0.671875 -0.828125 0.671875 -2.359375q0 -1.546875 -0.6875 -2.40625q-0.6875 -0.859375 -1.890625 -0.859375q-1.234375 0 -1.90625 0.84375q-0.65625 0.828125 -0.65625 2.375q0 1.546875 0.65625 2.390625q0.671875 0.84375 1.90625 0.84375zm13.635193 -7.9375q0.421875 0 0.671875 0.25q0.265625 0.234375 0.265625 0.671875l0 7.59375q0 0.390625 -0.265625 0.640625q-0.265625 0.234375 -0.6875 0.234375q-0.390625 0 -0.640625 -0.234375q-0.234375 -0.234375 -0.234375 -0.625l0 -0.703125q-0.4375 0.78125 -1.203125 1.1875q-0.75 0.40625 -1.671875 0.40625q-3.328125 0 -3.328125 -3.65625l0 -4.84375q0 -0.4375 0.25 -0.671875q0.25 -0.25 0.703125 -0.25q0.4375 0 0.6875 0.25q0.25 0.234375 0.25 0.671875l0 4.828125q0 1.109375 0.4375 1.625q0.453125 0.515625 1.390625 0.515625q1.09375 0 1.75 -0.703125q0.671875 -0.703125 0.671875 -1.890625l0 -4.375q0 -0.40625 0.25 -0.65625q0.265625 -0.265625 0.703125 -0.265625zm8.0216675 7.953125q0.40625 0.03125 0.578125 0.21875q0.1875 0.171875 0.1875 0.484375q0 0.375 -0.296875 0.578125q-0.28125 0.1875 -0.84375 0.15625l-0.5 -0.03125q-1.515625 -0.125 -2.265625 -0.921875q-0.734375 -0.8125 -0.734375 -2.40625l0 -4.390625l-1.125 0q-0.828125 0 -0.828125 -0.71875q0 -0.34375 0.21875 -0.53125q0.21875 -0.203125 0.609375 -0.203125l1.125 0l0 -1.921875q0 -0.421875 0.25 -0.65625q0.25 -0.25 0.671875 -0.25q0.4375 0 0.6875 0.25q0.265625 0.234375 0.265625 0.65625l0 1.921875l1.84375 0q0.390625 0 0.609375 0.203125q0.21875 0.1875 0.21875 0.53125q0 0.359375 -0.21875 0.546875q-0.21875 0.171875 -0.609375 0.171875l-1.84375 0l0 4.515625q0 0.890625 0.359375 1.296875q0.375 0.40625 1.125 0.46875l0.515625 0.03125zm9.257507 -0.953125q0.25 0 0.421875 0.203125q0.171875 0.203125 0.171875 0.53125q0 0.53125 -0.671875 0.90625q-0.65625 0.375 -1.4375 0.578125q-0.765625 0.203125 -1.46875 0.203125q-2.171875 0 -3.421875 -1.25q-1.25 -1.265625 -1.25 -3.453125q0 -1.390625 0.546875 -2.46875q0.5625 -1.09375 1.546875 -1.6875q1.0 -0.59375 2.28125 -0.59375q1.828125 0 2.890625 1.171875q1.0625 1.171875 1.0625 3.171875q0 0.75 -0.671875 0.75l-5.765625 0q0.1875 2.890625 2.78125 2.890625q0.6875 0 1.1875 -0.1875q0.5 -0.1875 1.0625 -0.484375q0.0625 -0.03125 0.3125 -0.15625q0.25 -0.125 0.421875 -0.125zm-3.25 -5.65625q-1.078125 0 -1.734375 0.703125q-0.65625 0.6875 -0.78125 1.9375l4.8125 0q-0.0625 -1.265625 -0.65625 -1.953125q-0.578125 -0.6875 -1.640625 -0.6875zm10.759827 -1.34375q0.90625 -0.046875 0.90625 0.765625q0 0.421875 -0.21875 0.625q-0.203125 0.203125 -0.703125 0.234375l-0.5625 0.0625q-1.171875 0.109375 -1.75 0.828125q-0.5625 0.703125 -0.5625 1.703125l0 4.28125q0 0.4375 -0.265625 0.671875q-0.25 0.21875 -0.671875 0.21875q-0.40625 0 -0.671875 -0.21875q-0.265625 -0.234375 -0.265625 -0.671875l0 -7.59375q0 -0.4375 0.265625 -0.671875q0.265625 -0.234375 0.671875 -0.234375q0.375 0 0.625 0.234375q0.265625 0.234375 0.265625 0.65625l0 0.890625q0.359375 -0.828125 1.0625 -1.25q0.71875 -0.4375 1.625 -0.5l0.25 -0.03125zm5.1410522 9.421875q-1.90625 0 -3.125 -0.78125q-0.328125 -0.203125 -0.46875 -0.421875q-0.140625 -0.234375 -0.140625 -0.5q0 -0.3125 0.15625 -0.515625q0.171875 -0.203125 0.4375 -0.203125q0.234375 0 0.765625 0.296875q0.5625 0.296875 1.09375 0.484375q0.53125 0.1875 1.328125 0.1875q0.890625 0 1.390625 -0.3125q0.515625 -0.3125 0.515625 -0.890625q0 -0.375 -0.203125 -0.59375q-0.1875 -0.234375 -0.671875 -0.40625q-0.484375 -0.1875 -1.4375 -0.390625q-1.640625 -0.34375 -2.359375 -0.953125q-0.71875 -0.609375 -0.71875 -1.65625q0 -0.796875 0.46875 -1.4375q0.46875 -0.65625 1.28125 -1.0q0.828125 -0.359375 1.875 -0.359375q0.734375 0 1.4375 0.203125q0.71875 0.1875 1.265625 0.5625q0.609375 0.40625 0.609375 0.953125q0 0.296875 -0.1875 0.5q-0.171875 0.203125 -0.40625 0.203125q-0.171875 0 -0.34375 -0.0625q-0.15625 -0.078125 -0.4375 -0.25q-0.515625 -0.296875 -0.953125 -0.46875q-0.4375 -0.171875 -1.078125 -0.171875q-0.796875 0 -1.28125 0.34375q-0.46875 0.328125 -0.46875 0.90625q0 0.53125 0.4375 0.828125q0.453125 0.28125 1.65625 0.53125q1.25 0.265625 1.953125 0.609375q0.71875 0.328125 1.015625 0.828125q0.3125 0.484375 0.3125 1.25q0 1.21875 -1.015625 1.953125q-1.015625 0.734375 -2.703125 0.734375z" fill-rule="nonzero"/><path fill="#000000" fill-opacity="0.0" d="m695.64435 236.77034c0 -8.251968 4.748047 -12.377945 9.496094 -16.503937c4.747986 -4.1259766 9.496033 -8.251968 9.496033 -16.503937" fill-rule="evenodd"/><path stroke="#ff8900" stroke-width="3.0" stroke-linejoin="round" stroke-linecap="butt" d="m695.64435 236.77034c0 -8.251968 4.748047 -12.377945 9.496094 -16.503937l0.8330078 -0.7257385" fill-rule="evenodd"/><path fill="#ff8900" stroke="#ff8900" stroke-width="3.0" stroke-linecap="butt" d="m710.31696 221.9255l2.2087402 -14.31868l-10.895813 9.548981z" fill-rule="evenodd"/></g></svg>